<svg width="10" height="10" viewBox="0 0 37 35" fill="none" xmlns="http://www.w3.org/2000/svg">
<path d="M0.24 24.464C0.24 18.704 4.912 15.0133 14.256 13.392L21.04 12.304C21.04 11.024 20.9333 10.1707 20.72 9.744C20.5067 9.27467 19.9947 9.04 19.184 9.04C18.416 9.04 17.648 9.38133 16.88 10.064C16.112 10.7467 15.3867 11.088 14.704 11.088H3.824C2.88533 11.088 2.416 10.64 2.416 9.744C2.416 8.80533 2.736 7.824 3.376 6.8C4.05867 5.73333 5.01867 4.688 6.256 3.664C7.536 2.64 9.30667 1.78667 11.568 1.104C13.872 0.421332 16.432 0.079998 19.248 0.079998C24.9653 0.079998 29.2533 1.27466 32.112 3.664C34.9707 6.05333 36.4 9.46667 36.4 13.904V32.272C36.4 32.7413 36.2293 33.1467 35.888 33.488C35.5467 33.8293 35.1413 34 34.672 34H23.472C23.0027 34 22.5973 33.8293 22.256 33.488C21.9147 33.1467 21.744 32.7413 21.744 32.272V30.48C19.7387 33.2533 16.816 34.64 12.976 34.64C9.136 34.64 6.04267 33.68 3.696 31.76C1.392 29.7973 0.24 27.3653 0.24 24.464ZM17.072 25.168C19.8453 25.168 21.232 23.504 21.232 20.176L17.456 21.008C15.5787 21.4347 14.64 22.224 14.64 23.376C14.64 23.888 14.8533 24.3147 15.28 24.656C15.7067 24.9973 16.304 25.168 17.072 25.168Z" fill="#E7470A"/>
</svg>
