<svg width="37" height="35" viewBox="0 0 37 35" fill="none" xmlns="http://www.w3.org/2000/svg">
<path d="M15.92 15.12V19.6C15.92 21.0507 16.112 22.096 16.496 22.736C16.88 23.376 17.4773 23.696 18.288 23.696C19.0987 23.696 19.6533 23.568 19.952 23.312C20.2507 23.0133 20.5493 22.48 20.848 21.712C21.1893 20.9013 21.808 20.496 22.704 20.496H35.184C35.6533 20.496 36.0587 20.6667 36.4 21.008C36.7413 21.3493 36.912 21.7973 36.912 22.352C36.912 22.9067 36.72 23.6533 36.336 24.592C35.952 25.5307 35.2907 26.5973 34.352 27.792C33.4133 28.9867 32.2613 30.096 30.896 31.12C29.5307 32.1013 27.7387 32.9333 25.52 33.616C23.3013 34.2987 20.848 34.64 18.16 34.64C12.8267 34.64 8.496 33.2533 5.168 30.48C1.88267 27.664 0.24 23.7813 0.24 18.832V15.888C0.24 10.9387 1.88267 7.07733 5.168 4.304C8.496 1.488 12.8267 0.079998 18.16 0.079998C21.3173 0.079998 24.176 0.570665 26.736 1.552C29.296 2.49067 31.2587 3.664 32.624 5.072C34.032 6.43733 35.0987 7.78133 35.824 9.104C36.5493 10.4267 36.912 11.4507 36.912 12.176C36.912 12.8587 36.7413 13.3707 36.4 13.712C36.0587 14.0533 35.6533 14.224 35.184 14.224H22.704C21.8933 14.224 21.2747 13.7973 20.848 12.944C20.2507 11.664 19.4613 11.024 18.48 11.024C16.7733 11.024 15.92 12.3893 15.92 15.12Z" fill="#E7470A"/>
</svg>
