<svg width="37" height="35" viewBox="0 0 37 35" fill="none" xmlns="http://www.w3.org/2000/svg">
<path d="M34.992 21.136H15.92V21.456C15.92 24.0587 16.752 25.36 18.416 25.36C18.8853 25.36 19.4613 25.0187 20.144 24.336C20.8267 23.6533 21.5733 23.312 22.384 23.312H34.48C35.4187 23.312 35.888 23.7813 35.888 24.72C35.888 26.8107 34.3093 28.9867 31.152 31.248C28.0373 33.5093 23.792 34.64 18.416 34.64C13.0827 34.64 8.70933 33.2533 5.296 30.48C1.92533 27.664 0.24 23.8027 0.24 18.896V15.824C0.24 11.1733 1.968 7.39733 5.424 4.496C8.88 1.552 13.4027 0.079998 18.992 0.079998C24.624 0.079998 28.976 1.72267 32.048 5.008C35.1627 8.29333 36.72 12.4533 36.72 17.488V19.408C36.72 19.8773 36.5493 20.2827 36.208 20.624C35.8667 20.9653 35.4613 21.136 34.992 21.136ZM21.04 12.88C21.04 10.32 20.1867 9.04 18.48 9.04C16.7733 9.04 15.92 10.32 15.92 12.88V13.136H21.04V12.88Z" fill="#E7470A"/>
</svg>
