<svg width="39" height="46" viewBox="0 0 39 46" fill="none" xmlns="http://www.w3.org/2000/svg">
<path d="M16.136 27.056V44.272C16.136 44.7413 15.9653 45.1467 15.624 45.488C15.2827 45.8293 14.8773 46 14.408 46H1.928C1.45867 46 1.05333 45.8293 0.712 45.488C0.370667 45.1467 0.2 44.7413 0.2 44.272V2.288C0.2 1.81867 0.370667 1.41333 0.712 1.072C1.05333 0.730665 1.45867 0.559998 1.928 0.559998H14.408C14.8773 0.559998 15.2827 0.730665 15.624 1.072C15.9653 1.41333 16.136 1.81867 16.136 2.288V16.048C18.568 13.4027 21.6827 12.08 25.48 12.08C29.2773 12.08 32.4133 13.3173 34.888 15.792C37.3627 18.2667 38.6 21.872 38.6 26.608V44.208C38.6 44.6773 38.4293 45.0827 38.088 45.424C37.7467 45.7653 37.3413 45.936 36.872 45.936H24.328C23.8587 45.936 23.4533 45.7653 23.112 45.424C22.7707 45.0827 22.6 44.6773 22.6 44.208V27.056C22.6 24.7093 21.512 23.536 19.336 23.536C17.2027 23.536 16.136 24.7093 16.136 27.056Z" fill="#E7470A"/>
</svg>
