<svg width="16" height="48" viewBox="0 0 16 48" fill="none" xmlns="http://www.w3.org/2000/svg">
<path d="M13.384 48H1.928C1.45867 48 1.05333 47.8293 0.712 47.488C0.370667 47.1467 0.2 46.7413 0.2 46.272V16.448C0.2 15.9787 0.370667 15.5733 0.712 15.232C1.05333 14.8907 1.45867 14.72 1.928 14.72H13.384C13.8533 14.72 14.2587 14.8907 14.6 15.232C14.9413 15.5733 15.112 15.9787 15.112 16.448V46.272C15.112 46.7413 14.9413 47.1467 14.6 47.488C14.2587 47.8293 13.8533 48 13.384 48ZM14.792 2.368V10.112C14.792 10.5813 14.6213 10.9867 14.28 11.328C13.9387 11.6693 13.5333 11.84 13.064 11.84H2.248C1.77867 11.84 1.37333 11.6693 1.032 11.328C0.690667 10.9867 0.52 10.5813 0.52 10.112V2.368C0.52 1.89866 0.690667 1.49333 1.032 1.152C1.37333 0.810665 1.77867 0.639999 2.248 0.639999H13.064C13.5333 0.639999 13.9387 0.810665 14.28 1.152C14.6213 1.49333 14.792 1.89866 14.792 2.368Z" fill="#E7470A"/>
</svg>
