<svg width="38" height="34" viewBox="0 0 38 34" fill="none" xmlns="http://www.w3.org/2000/svg">
<path d="M37.896 14.608V32.272C37.896 32.7413 37.7253 33.1467 37.384 33.488C37.0427 33.8293 36.6373 34 36.168 34H23.944C23.4747 34 23.0693 33.8293 22.728 33.488C22.3867 33.1467 22.216 32.7413 22.216 32.272V15.056C22.216 12.7093 21.1493 11.536 19.016 11.536C16.8827 11.536 15.816 12.7093 15.816 15.056V32.272C15.816 32.7413 15.6453 33.1467 15.304 33.488C14.9627 33.8293 14.5573 34 14.088 34H1.928C1.45867 34 1.05333 33.8293 0.712 33.488C0.370667 33.1467 0.2 32.7413 0.2 32.272V2.448C0.2 1.97867 0.370667 1.57333 0.712 1.232C1.05333 0.890664 1.45867 0.719997 1.928 0.719997H13.128C13.5973 0.719997 14.0027 0.890664 14.344 1.232C14.6853 1.57333 14.856 1.97867 14.856 2.448V4.56C15.9653 3.23733 17.4587 2.17066 19.336 1.36C21.256 0.506664 23.304 0.079998 25.48 0.079998C28.9787 0.079998 31.9227 1.31733 34.312 3.792C36.7013 6.224 37.896 9.82933 37.896 14.608Z" fill="#E7470A"/>
</svg>
