<svg width="38" height="35" viewBox="0 0 38 35" fill="none" xmlns="http://www.w3.org/2000/svg">
<path d="M0.24 19.536V15.184C0.24 10.32 1.968 6.58667 5.424 3.984C8.88 1.38133 13.3387 0.079998 18.8 0.079998C24.2613 0.079998 28.72 1.38133 32.176 3.984C35.632 6.58667 37.36 10.32 37.36 15.184V19.536C37.36 24.4427 35.696 28.1973 32.368 30.8C29.04 33.36 24.5173 34.64 18.8 34.64C13.0827 34.64 8.56 33.36 5.232 30.8C1.904 28.1973 0.24 24.4427 0.24 19.536ZM21.68 20.048V14.672C21.68 13.0507 21.4667 11.92 21.04 11.28C20.6133 10.64 19.8667 10.32 18.8 10.32C17.7333 10.32 16.9867 10.64 16.56 11.28C16.1333 11.92 15.92 13.0507 15.92 14.672V20.048C15.92 21.7547 16.1333 22.9067 16.56 23.504C16.9867 24.1013 17.7333 24.4 18.8 24.4C19.8667 24.4 20.6133 24.08 21.04 23.44C21.4667 22.8 21.68 21.6693 21.68 20.048Z" fill="#E7470A"/>
</svg>
