<svg width="30" height="34" viewBox="0 0 30 34" fill="none" xmlns="http://www.w3.org/2000/svg">
<path d="M15.216 2.448V4.688C18.2027 2.04266 21.5307 0.719997 25.2 0.719997H28.272C28.7413 0.719997 29.1467 0.890664 29.488 1.232C29.8293 1.57333 30 1.97867 30 2.448V12.432C30 12.9013 29.8293 13.3067 29.488 13.648C29.1467 13.9893 28.7413 14.16 28.272 14.16H20.016C18.864 14.16 17.9467 14.4373 17.264 14.992C16.624 15.504 16.2613 16.208 16.176 17.104V32.272C16.176 32.7413 16.0053 33.1467 15.664 33.488C15.3227 33.8293 14.9173 34 14.448 34H2.288C1.81867 34 1.41333 33.8293 1.072 33.488C0.730667 33.1467 0.56 32.7413 0.56 32.272V2.448C0.56 1.97867 0.730667 1.57333 1.072 1.232C1.41333 0.890664 1.81867 0.719997 2.288 0.719997H13.488C13.9573 0.719997 14.3627 0.890664 14.704 1.232C15.0453 1.57333 15.216 1.97867 15.216 2.448Z" fill="#E7470A"/>
</svg>
