<svg width="36" height="35" viewBox="0 0 36 35" fill="none" xmlns="http://www.w3.org/2000/svg">
<path d="M19.928 24.784C19.928 24.3573 19.8213 24.016 19.608 23.76C19.0533 23.0773 17.0053 22.416 13.464 21.776C9.92267 21.0933 7.04267 19.92 4.824 18.256C2.648 16.5493 1.56 14.1813 1.56 11.152C1.56 8.12266 3.01067 5.52 5.912 3.344C8.81333 1.168 12.7173 0.079998 17.624 0.079998C22.5733 0.079998 26.6267 1.104 29.784 3.152C32.9413 5.2 34.52 7.26933 34.52 9.36C34.52 9.82933 34.3707 10.2347 34.072 10.576C33.816 10.9173 33.496 11.088 33.112 11.088H22.36C21.72 11.088 20.9307 10.7467 19.992 10.064C19.0533 9.38133 18.3493 9.04 17.88 9.04C16.8987 9.04 16.408 9.38133 16.408 10.064C16.408 10.4907 16.5147 10.832 16.728 11.088C17.2827 11.728 19.608 12.3467 23.704 12.944C27.8 13.5413 30.8507 14.864 32.856 16.912C34.904 18.9173 35.928 21.1573 35.928 23.632C35.928 27.088 34.3707 29.7973 31.256 31.76C28.1413 33.7227 23.7253 34.704 18.008 34.704C14.9787 34.704 12.2907 34.3627 9.944 33.68C7.59733 32.9973 5.80533 32.144 4.568 31.12C2.136 29.1147 0.92 27.2373 0.92 25.488C0.92 25.0187 1.06933 24.6133 1.368 24.272C1.66667 23.9307 2.02933 23.76 2.456 23.76H13.592C14.1893 23.76 14.9573 24.1013 15.896 24.784C16.8773 25.424 17.7947 25.744 18.648 25.744C19.5013 25.744 19.928 25.424 19.928 24.784Z" fill="#E7470A"/>
</svg>
