<svg width="20" height="35" viewBox="0 0 33 46" fill="none" xmlns="http://www.w3.org/2000/svg">
<path d="M22.4 23.92V30.96C22.4 33.0933 23.3173 34.16 25.152 34.16H30.976C31.4453 34.16 31.8507 34.3307 32.192 34.672C32.5333 35.0133 32.704 35.4187 32.704 35.888V44.272C32.704 44.7413 32.5333 45.1467 32.192 45.488C31.8507 45.8293 31.4453 46 30.976 46H23.744C13.0773 46 7.744 41.4133 7.744 32.24V23.92H2.688C2.21867 23.92 1.81333 23.7493 1.472 23.408C1.13067 23.0667 0.96 22.6613 0.96 22.192V14.448C0.96 13.9787 1.13067 13.5733 1.472 13.232C1.81333 12.8907 2.21867 12.72 2.688 12.72H7.744V2.288C7.744 1.81867 7.91467 1.41333 8.256 1.072C8.59733 0.730665 9.00267 0.559998 9.472 0.559998H20.672C21.1413 0.559998 21.5467 0.730665 21.888 1.072C22.2293 1.41333 22.4 1.81867 22.4 2.288V12.72H30.464C30.9333 12.72 31.3387 12.8907 31.68 13.232C32.0213 13.5733 32.192 13.9787 32.192 14.448V22.192C32.192 22.6613 32.0213 23.0667 31.68 23.408C31.3387 23.7493 30.9333 23.92 30.464 23.92H22.4Z" fill="#E7470A"/>
</svg>
