<svg width="39" height="35" viewBox="0 0 39 35" fill="none" xmlns="http://www.w3.org/2000/svg">
<path d="M0.88 20.112V2.448C0.88 1.97867 1.05067 1.57333 1.392 1.232C1.73333 0.890664 2.13867 0.719997 2.608 0.719997H14.832C15.3013 0.719997 15.7067 0.890664 16.048 1.232C16.3893 1.57333 16.56 1.97867 16.56 2.448V19.664C16.56 22.0107 17.6267 23.184 19.76 23.184C21.8933 23.184 22.96 22.0107 22.96 19.664V2.448C22.96 1.97867 23.1307 1.57333 23.472 1.232C23.8133 0.890664 24.2187 0.719997 24.688 0.719997H36.848C37.3173 0.719997 37.7227 0.890664 38.064 1.232C38.4053 1.57333 38.576 1.97867 38.576 2.448V32.272C38.576 32.7413 38.4053 33.1467 38.064 33.488C37.7227 33.8293 37.3173 34 36.848 34H25.648C25.1787 34 24.7733 33.8293 24.432 33.488C24.0907 33.1467 23.92 32.7413 23.92 32.272V30.16C21.9147 33.1467 18.3733 34.64 13.296 34.64C9.79733 34.64 6.85333 33.424 4.464 30.992C2.07467 28.5173 0.88 24.8907 0.88 20.112Z" fill="#E7470A"/>
</svg>
