<svg width="54" height="34" viewBox="0 0 54 34" fill="none" xmlns="http://www.w3.org/2000/svg">
<path d="M24.088 0.719997H30.04C31.192 0.719997 31.9173 1.232 32.216 2.256L36.376 15.568L40.28 2.256C40.5787 1.232 41.304 0.719997 42.456 0.719997H52.312C52.7387 0.719997 53.1013 0.869331 53.4 1.168C53.6987 1.46666 53.848 1.76533 53.848 2.064C53.848 2.36267 53.8267 2.59733 53.784 2.768L44.44 32.4C44.0987 33.4667 43.3947 34 42.328 34H33.752C32.6853 34 31.9813 33.4667 31.64 32.4L27.096 19.472L22.488 32.4C22.1467 33.4667 21.4427 34 20.376 34H11.8C10.7333 34 10.0293 33.4667 9.688 32.4L0.344 2.768C0.301333 2.59733 0.28 2.36267 0.28 2.064C0.28 1.76533 0.429333 1.46666 0.728 1.168C1.02667 0.869331 1.38933 0.719997 1.816 0.719997H11.672C12.824 0.719997 13.5493 1.232 13.848 2.256L17.752 15.568L21.912 2.256C22.2107 1.232 22.936 0.719997 24.088 0.719997Z" fill="#E7470A"/>
</svg>
