<svg width="41" height="47" viewBox="0 0 41 47" fill="none" xmlns="http://www.w3.org/2000/svg">
<path d="M2.56 0.719997H13.376C14.3573 0.719997 15.04 1.232 15.424 2.256L20.672 16.848L26.112 2.256C26.5387 1.232 27.264 0.719997 28.288 0.719997H38.976C39.36 0.719997 39.7013 0.869331 40 1.168C40.2987 1.424 40.448 1.70133 40.448 2C40.448 2.29867 40.4267 2.53333 40.384 2.704L22.336 44.624C21.9093 45.648 21.1627 46.16 20.096 46.16H9.6C9.216 46.16 8.87467 46.032 8.576 45.776C8.32 45.52 8.192 45.2 8.192 44.816C8.192 44.4747 8.21333 44.2613 8.256 44.176L13.376 31.888L1.024 2.704C0.981333 2.576 0.96 2.42667 0.96 2.256C1.13067 1.232 1.664 0.719997 2.56 0.719997Z" fill="#E7470A"/>
</svg>
