<svg width="224" height="72" viewBox="0 0 224 72" fill="none" xmlns="http://www.w3.org/2000/svg">
<g filter="url(#filter0_d_1055_576)">
<path d="M9 23C9 13.0589 17.0589 5 27 5H195C204.941 5 213 13.0589 213 23V45C213 54.9411 204.941 63 195 63H27C17.0589 63 9 54.9411 9 45V23Z" fill="#E7470A"/>
</g>
<path d="M46.3026 42H43.4901L48.6108 27.4545H51.8636L56.9915 42H54.179L50.294 30.4375H50.1804L46.3026 42ZM46.3949 36.2969H54.0653V38.4134H46.3949V36.2969ZM61.5423 27.4545V42H58.9073V27.4545H61.5423ZM70.5209 26.32H73.3009C73.3009 31.2 70.3009 34.56 64.8809 36.04L63.8409 33.98C68.2609 32.78 70.5209 30.42 70.5209 27.58V26.32ZM64.8609 26.32H72.3609V28.42H64.8609V26.32ZM76.6009 25.26H79.2609V35.62H76.6009V25.26ZM73.4009 29.64H76.9809V31.8H73.4009V29.64ZM67.0609 36.36H79.2609V43.58H67.0609V36.36ZM76.6409 38.46H69.6809V41.48H76.6409V38.46ZM84.1394 34.42H97.1594V36.52H84.1394V34.42ZM82.1794 39.6H98.9394V41.74H82.1794V39.6ZM89.2194 35.48H91.8794V40.54H89.2194V35.48ZM84.1394 26.52H96.9994V28.64H86.8394V35.22H84.1394V26.52ZM86.0194 30.44H96.5794V32.52H86.0194V30.44ZM102.178 30.92H111.258V33.04H102.178V30.92ZM105.358 32.28H108.018V35.82H105.358V32.28ZM102.178 26.38H111.138V28.5H104.838V31.8H102.178V26.38ZM113.318 25.24H115.998V39.18H113.318V25.24ZM103.458 41.34H116.498V43.46H103.458V41.34ZM103.458 38.2H106.118V42.14H103.458V38.2ZM100.978 37.1L100.658 35C104.158 35 108.498 34.96 112.218 34.56L112.398 36.46C108.538 37.02 104.378 37.1 100.978 37.1ZM131.057 30.14H134.817V32.26H131.057V30.14ZM130.957 34.76H134.737V36.88H130.957V34.76ZM137.337 25.26H139.877V43.78H137.337V25.26ZM133.517 25.66H135.997V42.96H133.517V25.66ZM129.337 27.44H131.897C131.897 32.7 130.317 36.9 125.157 39.94L123.657 38.08C127.837 35.54 129.337 32.46 129.337 27.98V27.44ZM124.717 27.44H130.237V29.56H124.717V27.44ZM156.076 27.66H159.276V29.84H156.076V27.66ZM156.076 31.68H159.276V33.86H156.076V31.68ZM154.236 25.26H156.896V36.18H154.236V25.26ZM144.536 36.94H156.896V43.78H154.236V39.06H144.536V36.94ZM147.476 26.26C150.336 26.26 152.516 28.16 152.516 30.8C152.516 33.44 150.336 35.32 147.476 35.32C144.616 35.32 142.436 33.44 142.436 30.8C142.436 28.16 144.616 26.26 147.476 26.26ZM147.476 28.52C146.076 28.52 145.036 29.34 145.036 30.8C145.036 32.26 146.076 33.1 147.476 33.1C148.876 33.1 149.916 32.26 149.916 30.8C149.916 29.34 148.876 28.52 147.476 28.52ZM170.054 31.04H174.934V33.18H170.054V31.04ZM165.014 26.68H167.174V29.36C167.174 34.02 165.594 38.32 162.114 40.06L160.454 37.92C163.614 36.46 165.014 32.88 165.014 29.36V26.68ZM165.574 26.68H167.694V29.36C167.694 32.88 169.034 36.26 172.094 37.62L170.514 39.74C167.034 38.06 165.574 33.98 165.574 29.36V26.68ZM173.614 25.24H176.254V43.82H173.614V25.24Z" fill="white"/>
<defs>
<filter id="filter0_d_1055_576" x="5" y="5" width="212" height="66" filterUnits="userSpaceOnUse" color-interpolation-filters="sRGB">
<feFlood flood-opacity="0" result="BackgroundImageFix"/>
<feColorMatrix in="SourceAlpha" type="matrix" values="0 0 0 0 0 0 0 0 0 0 0 0 0 0 0 0 0 0 127 0" result="hardAlpha"/>
<feOffset dy="4"/>
<feGaussianBlur stdDeviation="2"/>
<feComposite in2="hardAlpha" operator="out"/>
<feColorMatrix type="matrix" values="0 0 0 0 0 0 0 0 0 0 0 0 0 0 0 0 0 0 0.25 0"/>
<feBlend mode="normal" in2="BackgroundImageFix" result="effect1_dropShadow_1055_576"/>
<feBlend mode="normal" in="SourceGraphic" in2="effect1_dropShadow_1055_576" result="shape"/>
</filter>
</defs>
</svg>
