<svg width="15" height="15" viewBox="0 0 15 15" fill="none" xmlns="http://www.w3.org/2000/svg">
<path d="M12.6684 0.47823C12.9276 0.168099 13.2725 -0.0033534 13.6304 4.97078e-05C13.9883 0.00345282 14.3311 0.181446 14.5865 0.496471C14.842 0.811495 14.9901 1.23891 14.9995 1.68853C15.009 2.13815 14.8791 2.5748 14.6372 2.90635L7.29535 14.4457C7.16911 14.6166 7.01674 14.7537 6.84735 14.8489C6.67797 14.9441 6.49505 14.9954 6.30954 14.9997C6.12402 15.004 5.93972 14.9613 5.76764 14.874C5.59557 14.7868 5.43927 14.6568 5.30807 14.4919L0.439241 8.37308C0.303652 8.2143 0.194899 8.02282 0.119471 7.81008C0.0440431 7.59733 0.00348419 7.36767 0.000214773 7.13479C-0.00305464 6.90192 0.0310325 6.6706 0.100442 6.45464C0.169851 6.23868 0.273161 6.0425 0.404209 5.87781C0.535257 5.71312 0.691357 5.58328 0.863198 5.49605C1.03504 5.40883 1.2191 5.36599 1.4044 5.3701C1.5897 5.3742 1.77245 5.42518 1.94173 5.51997C2.11102 5.61476 2.26337 5.75144 2.38972 5.92184L6.24283 10.7619L12.6334 0.529106L12.6684 0.47823Z" fill="white"/>
</svg>
