<svg width="37" height="24" viewBox="0 0 37 24" fill="none" xmlns="http://www.w3.org/2000/svg">
<path d="M5.7335 10.2852L1.61328 6.71722M13.5722 5.90808L11.894 1.21094M31.2688 10.2852L35.389 6.71951M23.4301 5.90808L25.1083 1.21094M18.5011 5.28408C7.4355 5.28408 2.78935 13.8921 2.78935 14.0704C2.78935 14.2487 7.4355 22.8544 18.5011 22.8544C29.5668 22.8544 34.2129 14.2487 34.2129 14.0704C34.2129 13.8921 29.5668 5.28408 18.5011 5.28408Z" stroke="black" stroke-width="2" stroke-linecap="round" stroke-linejoin="round"/>
<path d="M14.0235 13.1845C13.8805 13.6955 13.8561 14.2261 13.9519 14.7454C14.0477 15.2646 14.2618 15.7623 14.5817 16.2094C14.9015 16.6566 15.3209 17.0444 15.8154 17.3503C16.3099 17.6563 16.8697 17.8742 17.4623 17.9916C18.055 18.109 18.6686 18.1235 19.2678 18.0342C19.867 17.9449 20.4397 17.7536 20.9527 17.4715C21.4657 17.1893 21.9089 16.8218 22.2565 16.3904C22.6041 15.959 22.8491 15.4722 22.9775 14.9582C23.1206 14.4471 23.1449 13.9166 23.0491 13.3973C22.9533 12.8781 22.7393 12.3804 22.4194 11.9333C22.0995 11.4861 21.6802 11.0983 21.1857 10.7924C20.6912 10.4864 20.1314 10.2685 19.5387 10.1511C18.9461 10.0337 18.3324 10.0192 17.7332 10.1085C17.1341 10.1978 16.5614 10.389 16.0484 10.6712C15.5353 10.9534 15.0922 11.3208 14.7446 11.7523C14.397 12.1837 14.1519 12.6705 14.0235 13.1845Z" stroke="black" stroke-width="2" stroke-linecap="round" stroke-linejoin="round"/>
</svg>
