<svg width="30" height="30" viewBox="0 0 30 30" fill="none" xmlns="http://www.w3.org/2000/svg">
<g clip-path="url(#clip0_1220_573)">
<path d="M29.4862 27.828L26.8587 25.2017C27.4122 24.3568 27.7517 23.3898 27.8479 22.3843C27.944 21.3788 27.794 20.365 27.4106 19.4305C27.0273 18.496 26.4222 17.6688 25.6477 17.0205C24.8731 16.3721 23.9524 15.9221 22.965 15.7092L22.9237 15.7017V10.6155C22.924 10.3205 22.8209 10.0349 22.6325 9.80797L22.6337 9.81047V9.80422C22.6101 9.77555 22.585 9.74802 22.5587 9.72172L22.5487 9.71047L22.515 9.67672L13.215 0.376719C13.1891 0.350843 13.162 0.326231 13.1337 0.302969L13.1012 0.280469C13.081 0.263942 13.0601 0.2481 13.0387 0.232969L13.0075 0.210469L12.94 0.167969L12.9112 0.152969C12.8829 0.136302 12.8517 0.120885 12.8175 0.106719L12.7775 0.0904687L12.7137 0.0679687L12.6687 0.0542187L12.5962 0.0354687L12.5612 0.0279687C12.5257 0.0206307 12.4898 0.0152062 12.4537 0.0117188H1.26875C0.933308 0.0130276 0.611923 0.146606 0.374377 0.38345C0.136831 0.620294 0.00230178 0.941282 0 1.27672L0 26.748C0.000326203 27.0848 0.133944 27.4079 0.371667 27.6465C0.60939 27.8852 0.931899 28.0201 1.26875 28.0217H21.6562C22.8751 28.0239 24.0671 27.6641 25.0812 26.988L25.0587 27.0017L27.6862 29.6292C27.9285 29.8496 28.2463 29.9682 28.5737 29.9604C28.9011 29.9526 29.2129 29.819 29.4444 29.5874C29.6759 29.3557 29.8092 29.0438 29.8168 28.7164C29.8244 28.389 29.7055 28.0713 29.485 27.8292L29.4862 27.8305V27.828ZM25.33 21.7942C25.3301 22.2774 25.235 22.7559 25.0502 23.2023C24.8653 23.6487 24.5944 24.0544 24.2528 24.3961C23.9112 24.7378 23.5056 25.0089 23.0592 25.1939C22.6129 25.3789 22.1344 25.4741 21.6512 25.4742C21.1681 25.4743 20.6896 25.3792 20.2432 25.1944C19.7967 25.0096 19.3911 24.7386 19.0494 24.397C18.7076 24.0554 18.4365 23.6498 18.2516 23.2035C18.0666 22.7571 17.9713 22.2786 17.9712 21.7955C17.9709 20.8196 18.3582 19.8836 19.048 19.1934C19.7378 18.5031 20.6735 18.1152 21.6494 18.1148C22.6252 18.1145 23.5612 18.5018 24.2514 19.1916C24.9417 19.8814 25.3297 20.8184 25.33 21.7942ZM13.585 4.34922L18.5762 9.34172H13.585V4.34922ZM2.5475 2.54922H11.0387V10.6155C11.0387 11.3192 11.6087 11.8892 12.3125 11.8892H20.3787V15.7017C17.5312 16.3105 15.4262 18.8055 15.4262 21.793C15.4262 23.1792 15.8787 24.4592 16.645 25.493L16.6325 25.4767H2.54625L2.5475 2.54922Z" fill="white"/>
</g>
<defs>
<clipPath id="clip0_1220_573">
<rect width="30" height="30" fill="white"/>
</clipPath>
</defs>
</svg>
