<svg width="132" height="133" viewBox="0 0 132 133" fill="none" xmlns="http://www.w3.org/2000/svg">
<path d="M49.6941 110.064C49.0226 108.529 47.852 108.373 47.3783 108.373C46.9045 108.373 45.7339 108.527 45.0958 109.98L43.348 113.96C41.8964 117.276 37.6466 116.912 36.6339 113.42L32.804 100.326L30.3855 108.598C29.043 113.18 25.2866 116.261 21.0458 116.262L18.2239 116.262C16.2106 116.263 14.5803 114.406 14.5809 112.112C14.5814 109.818 16.2126 107.96 18.2259 107.96L21.0478 107.959C22.1478 107.959 23.1228 107.16 23.4715 105.971L27.6178 91.7937C28.3699 89.2483 30.452 87.5354 32.807 87.5348C35.162 87.5342 37.2432 89.2436 37.9919 91.7912L41.1506 102.594C45.6497 98.3925 53.4635 100.075 56.1815 106.264C56.6117 107.245 57.4315 107.808 58.3128 107.888L58.3179 86.5817L87.4782 53.6008L87.4811 41.5231L56.5043 41.5305C53.498 41.5312 51.0389 38.7297 51.0397 35.3049L51.0481 0.0191164L5.49734 0.02995C2.46821 0.0306704 0.0305906 2.80741 0.029771 6.25815L0.00117621 126.645C0.000356575 130.096 2.43666 132.871 5.46579 132.871L81.991 132.852C85.0201 132.852 87.4578 130.075 87.4586 126.624L87.4611 116.246L58.3086 116.224C54.6372 116.145 51.3445 113.818 49.6941 110.064ZM87.4812 31.6379C87.4815 30.0034 86.9125 28.4208 85.8879 27.2535L63.5969 1.83231C62.5723 0.665012 61.1831 0.016706 59.7255 0.0170527L58.3362 0.0173831L58.3283 33.2275L87.4808 33.2206L87.4812 31.6379ZM65.6029 90.0359L65.5987 107.949L81.3114 107.945L118.145 65.7022L102.689 48.0941L65.6029 90.0359ZM129.508 43.415L122.251 35.1479C119.988 32.5694 116.315 32.5703 114.05 35.1498L107.842 42.2214L123.298 59.8295L129.506 52.7579C131.773 50.1784 131.774 45.9934 129.508 43.415Z" fill="black"/>
</svg>
