<svg width="400" height="300" viewBox="0 0 140 127" fill="none" xmlns="http://www.w3.org/2000/svg">
  <path d="M52.8923 104.412C52.1772 102.955 50.931 102.807 50.4268 102.807C49.9225 102.807 48.6764 102.953 47.9975 104.331L46.1381 108.107C44.5937 111.254 40.0699 110.906 38.991 107.593L34.9108 95.1685L32.3386 103.017C30.9106 107.364 26.9129 110.286 22.3987 110.286H19.3949C17.2518 110.286 15.5159 108.523 15.5159 106.347C15.5159 104.171 17.2518 102.408 19.3949 102.408H22.3987C23.5697 102.408 24.6073 101.65 24.9782 100.523L29.3881 87.0718C30.1882 84.6569 32.404 83.0321 34.9108 83.0321C37.4176 83.0321 39.6335 84.6544 40.4311 87.0718L43.7961 97.3225C48.5842 93.337 56.9022 94.9346 59.7969 100.808C60.2551 101.739 61.1279 102.273 62.0661 102.349V82.1336L93.098 50.8473V39.3879H60.1242C56.9241 39.3879 54.3057 36.7292 54.3057 33.4797V0H5.81847C2.59407 0 0 2.63406 0 5.90818V120.133C0 123.407 2.59407 126.041 5.81847 126.041H87.2771C90.5015 126.041 93.0956 123.407 93.0956 120.133V110.286L62.0637 110.259C58.1556 110.183 54.65 107.974 52.8923 104.412ZM93.0956 30.0086C93.0956 28.4577 92.4895 26.9561 91.3985 25.8483L67.664 1.72322C66.573 0.615436 65.0942 0 63.5426 0H62.0637V31.5103H93.0956V30.0086ZM69.8217 85.4126V102.408H86.5473L125.744 62.3362L109.288 45.6259L69.8217 85.4126ZM137.835 41.1923L130.108 33.3468C127.698 30.8998 123.788 30.8998 121.378 33.3468L114.772 40.055L131.228 56.7653L137.835 50.0571C140.247 47.6101 140.247 43.6393 137.835 41.1923Z" fill="white"/>
</svg>
