<svg width="41" height="41" viewBox="0 0 41 41" fill="none" xmlns="http://www.w3.org/2000/svg">
<circle cx="20.5" cy="20.5" r="20.5" fill="#FAD23F"/>
<path d="M22.4339 10.6364L22.1058 25.0142H18.9041L18.5859 10.6364H22.4339ZM20.505 31.2188C19.9018 31.2188 19.3847 31.0066 18.9538 30.5824C18.5296 30.1581 18.3175 29.6411 18.3175 29.0312C18.3175 28.4347 18.5296 27.9242 18.9538 27.5C19.3847 27.0758 19.9018 26.8636 20.505 26.8636C21.0949 26.8636 21.6054 27.0758 22.0362 27.5C22.4737 27.9242 22.6925 28.4347 22.6925 29.0312C22.6925 29.4356 22.5897 29.8035 22.3842 30.1349C22.1854 30.4664 21.9202 30.7315 21.5888 30.9304C21.264 31.1226 20.9027 31.2188 20.505 31.2188Z" fill="white"/>
</svg>
