<svg width="57" height="57" viewBox="0 0 57 57" fill="none" xmlns="http://www.w3.org/2000/svg">
<path d="M22.0009 13.0337L17.6276 8.74537C18.6067 6.33924 20.3103 4.27405 22.5169 2.81822C24.7235 1.36239 27.3312 0.583237 30.0009 0.582031C37.3609 0.582031 43.3343 6.3687 43.3343 13.4987V18.6654H46.0009C47.4154 18.6654 48.772 19.2097 49.7722 20.1786C50.7724 21.1476 51.3343 22.4617 51.3343 23.832V41.3987L27.8676 18.6654H38.0009V13.4987C38.0009 9.21037 34.4276 5.7487 30.0009 5.7487C25.7609 5.7487 22.2943 8.97787 22.0009 13.0337ZM56.9609 53.437L53.5743 56.7179L49.8943 53.1529C48.9343 54.1862 47.5476 54.832 46.0009 54.832H14.0009C11.0409 54.832 8.6676 52.5329 8.6676 49.6654V23.832C8.6676 22.4617 9.22951 21.1476 10.2297 20.1786C11.2299 19.2097 12.5864 18.6654 14.0009 18.6654H14.2943L0.960938 5.7487L4.37427 2.46786L56.9609 53.437ZM34.9343 38.6604L28.0276 31.9695C26.0009 32.7187 24.6676 34.5787 24.6676 36.7487C24.6676 38.119 25.2295 39.4331 26.2297 40.4021C27.2299 41.371 28.5865 41.9154 30.0009 41.9154C32.2409 41.9154 34.1609 40.6237 34.9343 38.6604Z" fill="#141F7B"/>
</svg>
