<svg width="20" height="19" viewBox="0 0 20 19" fill="none" xmlns="http://www.w3.org/2000/svg">
<path d="M4.04036 4.68685C3.67569 4.68685 3.32596 4.54198 3.06809 4.28412C2.81023 4.02626 2.66536 3.67652 2.66536 3.31185C2.66536 2.94718 2.81023 2.59744 3.06809 2.33958C3.32596 2.08171 3.67569 1.93685 4.04036 1.93685C4.40504 1.93685 4.75477 2.08171 5.01264 2.33958C5.2705 2.59744 5.41536 2.94718 5.41536 3.31185C5.41536 3.67652 5.2705 4.02626 5.01264 4.28412C4.75477 4.54198 4.40504 4.68685 4.04036 4.68685ZM18.6245 8.88518L10.3745 0.635182C10.0445 0.305182 9.5862 0.103516 9.08203 0.103516H2.66536C1.64786 0.103516 0.832031 0.919349 0.832031 1.93685V8.35352C0.832031 8.85768 1.0337 9.31602 1.37286 9.64602L9.6137 17.896C9.95286 18.226 10.4112 18.4368 10.9154 18.4368C11.4195 18.4368 11.8779 18.226 12.2079 17.896L18.6245 11.4793C18.9637 11.1493 19.1654 10.691 19.1654 10.1868C19.1654 9.67352 18.9545 9.21518 18.6245 8.88518Z" fill="black"/>
</svg>
