<?xml version="1.0" encoding="UTF-8"?>
<svg id="Layer_2" data-name="Layer 2" xmlns="http://www.w3.org/2000/svg" viewBox="0 0 714.81 177">
  <defs>
    <style>
      .cls-1 {
        stroke-width: 12px;
      }

      .cls-1, .cls-2, .cls-3 {
        fill: none;
        stroke: #e7470a;
        stroke-miterlimit: 10;
      }

      .cls-2 {
        stroke-width: 9px;
      }

      .cls-3 {
        stroke-width: 10px;
      }
    </style>
  </defs>
  <path className="cls-1" d="M303.94,20.99s.92-11.8-4.74-12.11-16.3-.64-11.16,12.46c0,0,7.91,8.32,15.95,20.55s-9.84,13.61-9.84,13.61c0,0-7.77-5.5-7.48-12.99s0-3.52,0-3.52"/>
  <polyline className="cls-1" points="316.17 3.99 316.17 59.94 316.78 30.75 331.46 29.52 332.99 5.22 332.99 59.94"/>
  <path className="cls-2" d="M353.84,5.52l-6.79,36.44-.15.82-3.06,16.4,5-15.9s9.67-.31,10.13-.31,5.04,16.2,5.04,16.2l-6.61-37.83v-6.35l1.26-2.75.83-5.3"/>
  <path className="cls-1" d="M374.87,3.99v55.95l1.22-51.15s18.19-7.24,13.3,20.73l-11.16,2.45s13.3-4.13,13.15,14.68v13.3"/>
  <polyline className="cls-1" points="403.46 3.99 404.07 59.94 404.83 7.2 427.76 11.48"/>
  <line className="cls-1" x1="406.51" y1="31.2" x2="422.72" y2="31.2"/>
  <line className="cls-1" x1="406.51" y1="53.98" x2="425.62" y2="53.98"/>
  <polyline className="cls-1" points="438 2.77 449.42 36.55 450.54 60.86"/>
  <line className="cls-1" x1="460.48" y1="2.77" x2="450.54" y2="38.54"/>
  <path className="cls-3" d="M476.71,8.43s-11.04,1.07-8.13,22.78c0,0-1.16,25.83,8.13,23.39,0,0,12.71.15,8.81-24.48-.04-.25-.08-.49-.12-.74-4.28-25.38,2.96-13.91-8.68-20.94Z"/>
  <path className="cls-3" d="M498.08,5.68l-.57,44.03s4.01,9.63,9.86,5.73c0,0,7.68-.92,7.22-12.5s-.46-36.71-.46-36.71"/>
  <line className="cls-3" x1="526.51" y1="6.23" x2="527.13" y2="59.18"/>
  <path className="cls-3" d="M527.13,11.94s11.77-8.71,15.29,7.8c0,0,4.54,7.19-5.5,12.08s-5.98,0-5.98,0"/>
  <path className="cls-3" d="M536.91,31.82s8.56,6.27,5.5,17.58,5.96,10.55,5.96,10.55"/>
  <path className="cls-1" d="M301,101.87s4.94-20.75-14.33-15.94c0,0-5.29,9.39-1.84,23.15l-1.17,16.52s12.06,15.02,17.45,0"/>
  <path className="cls-1" d="M295.27,130.07s5.39-3.7,5.27-14.58"/>
  <path className="cls-1" d="M471.63,103.24s4.94-20.75-14.33-15.94c0,0-5.29,9.39-1.84,23.15l-1.17,16.52s12.06,15.02,17.45,0"/>
  <path className="cls-1" d="M468.09,129.15s5.39-3.7,5.27-14.58"/>
  <path className="cls-3" d="M320.04,87.19s-12.04-3.1-7.63,20.52c0,0-3.91,26.9,7.63,22.93s8.94-23.39,8.94-23.39l-1.38-18.92s-3.3-3.32-7.27-2.52-3.05,3.9-3.05,3.9l.34.65-.49,1.05.26,1.05-.23,1.49"/>
  <polyline className="cls-3" points="340.56 135 340.56 83.16 347.32 83.88 359.24 137.06"/>
  <line className="cls-3" x1="358.17" y1="132.27" x2="358.17" y2="78.13"/>
  <polyline className="cls-3" points="366.04 86.05 391.38 86.62 378.71 87.65 378.28 139.13"/>
  <path className="cls-3" d="M397.65,83.16l1.83,52.64v-49.76s18.46,1.38,14.56,15.13-18.12,7.91-18.12,7.91l18.66,4.82s2.26-.1,0,3.67.26,19.48.26,19.48"/>
  <polyline className="cls-3" points="434.55 83.16 424.82 137.06 434.84 83.88 446.14 136.15 441.79 120.44 432.62 119.87"/>
  <polyline className="cls-1" points="476.71 86.05 503.74 86.58 491.51 87.61 490.22 137.06"/>
  <path className="cls-1" d="M518.11,80.89l8.71,56.18.31-9.1,7.36-42.5.72-2.31,1.7-.75s6.57,49.07,6.57,49.53c0,.31.62,1.99,1.02,3.06.2.53.35.91.35.91v1.15l4.89-51.02v-3.63"/>
  <line className="cls-1" x1="561.98" y1="80.89" x2="562.9" y2="137.06"/>
  <line className="cls-1" x1="568.25" y1="86.58" x2="595.76" y2="87.61"/>
  <line className="cls-1" x1="582" y1="87.61" x2="582" y2="138.52"/>
  <polyline className="cls-1" points="602.64 83.16 602.64 138.52 603.25 108.97 615.48 105.96 618.23 107.33 618.23 82.11 619.15 139.43"/>
  <path className="cls-1" d="M641.77,82.11l1.07,48.31s12.99,7.64,17.43-5.81l-1.83-42.5"/>
  <path className="cls-1" d="M688.4,97.92s.24-13.05-9.74-11.34-6.92,13.72-6.92,13.72c0,0,2.45,2.45,11.16,14.68s-3.05,16.21-3.05,16.21c0,0-13.61,8.25-10.71-13.16"/>
  <line className="cls-1" x1="700.32" y1="122.77" x2="701.79" y2="138.52"/>
</svg>