<?xml version="1.0" encoding="UTF-8"?>
<svg id="Layer_1" data-name="Layer 1" xmlns="http://www.w3.org/2000/svg" viewBox="0 0 714.81 177">
  <defs>
    <style>
      .cls-1 {
        opacity: .51;
      }

      .cls-2 {
        fill: none;
      }

      .cls-2, .cls-3 {
        stroke-width: 0px;
      }

      .cls-3 {
        fill: #e7470a;
      }

      .cls-4 {
        opacity: .43;
      }
    </style>
  </defs>
  <g className="cls-1">
    <rect className="cls-2" y="83.88" width="714.81" height="77.78"/>
    <path className="cls-3" d="M287.21,54.79c-1.97-2.18-2.95-5.32-2.95-9.4v-2.88h7.49v3.46c0,3.26,1.37,4.9,4.1,4.9,1.34,0,2.36-.4,3.06-1.19.7-.79,1.04-2.08,1.04-3.85,0-2.11-.48-3.97-1.44-5.58-.96-1.61-2.74-3.54-5.33-5.8-3.27-2.88-5.54-5.48-6.84-7.81-1.3-2.33-1.94-4.96-1.94-7.88,0-3.98,1.01-7.07,3.02-9.25,2.02-2.18,4.94-3.28,8.78-3.28s6.66,1.09,8.6,3.28c1.94,2.19,2.92,5.32,2.92,9.4v2.09h-7.49v-2.59c0-1.73-.34-2.99-1.01-3.78-.67-.79-1.66-1.19-2.95-1.19-2.64,0-3.96,1.61-3.96,4.82,0,1.82.49,3.53,1.48,5.11.98,1.58,2.77,3.5,5.36,5.76,3.31,2.88,5.59,5.5,6.84,7.85,1.25,2.35,1.87,5.11,1.87,8.28,0,4.13-1.02,7.3-3.06,9.5-2.04,2.21-5,3.31-8.89,3.31s-6.74-1.09-8.71-3.28Z"/>
    <path className="cls-3" d="M312.41,6.95h7.92v20.52h8.5V6.95h7.92v50.4h-7.92v-22.68h-8.5v22.68h-7.92V6.95Z"/>
    <path className="cls-3" d="M348.77,6.95h10.73l8.21,50.4h-7.92l-1.44-10.01v.14h-9l-1.44,9.86h-7.34l8.21-50.4ZM357.41,40.65l-3.53-24.91h-.14l-3.46,24.91h7.13Z"/>
    <path className="cls-3" d="M371.52,6.95h11.74c4.08,0,7.06.95,8.93,2.84,1.87,1.9,2.81,4.81,2.81,8.75v3.1c0,5.23-1.73,8.54-5.18,9.94v.14c1.92.58,3.28,1.75,4.07,3.53.79,1.78,1.19,4.15,1.19,7.13v8.86c0,1.44.05,2.6.14,3.49.1.89.33,1.76.72,2.63h-8.06c-.29-.82-.48-1.58-.58-2.3-.1-.72-.14-2.02-.14-3.89v-9.22c0-2.3-.37-3.91-1.12-4.82-.74-.91-2.03-1.37-3.85-1.37h-2.74v21.6h-7.92V6.95ZM382.32,28.55c1.58,0,2.77-.41,3.56-1.22.79-.82,1.19-2.18,1.19-4.1v-3.89c0-1.82-.32-3.14-.97-3.96-.65-.82-1.67-1.22-3.06-1.22h-3.6v14.4h2.88Z"/>
    <path className="cls-3" d="M400.53,6.95h21.6v7.2h-13.68v13.32h10.87v7.2h-10.87v15.48h13.68v7.2h-21.6V6.95Z"/>
    <path className="cls-3" d="M445.46,35.89l-9.58-28.94h8.42l5.4,18.5h.14l5.4-18.5h7.7l-9.58,28.94v21.46h-7.92v-21.46Z"/>
    <path className="cls-3" d="M467.78,54.76c-2.06-2.21-3.1-5.33-3.1-9.36v-26.5c0-4.03,1.03-7.15,3.1-9.36,2.06-2.21,5.04-3.31,8.93-3.31s6.86,1.1,8.93,3.31c2.06,2.21,3.1,5.33,3.1,9.36v26.5c0,4.03-1.03,7.15-3.1,9.36-2.06,2.21-5.04,3.31-8.93,3.31s-6.86-1.1-8.93-3.31ZM480.81,45.9v-27.5c0-3.31-1.37-4.97-4.1-4.97s-4.1,1.66-4.1,4.97v27.5c0,3.31,1.37,4.97,4.1,4.97s4.1-1.66,4.1-4.97Z"/>
    <path className="cls-3" d="M496.8,54.79c-2.02-2.18-3.02-5.32-3.02-9.4V6.95h7.92v39.02c0,1.73.35,2.98,1.04,3.74.7.77,1.69,1.15,2.99,1.15s2.29-.38,2.99-1.15c.7-.77,1.04-2.02,1.04-3.74V6.95h7.63v38.45c0,4.08-1.01,7.21-3.02,9.4-2.02,2.19-4.94,3.28-8.78,3.28s-6.77-1.09-8.78-3.28Z"/>
    <path className="cls-3" d="M523,6.95h11.74c4.08,0,7.06.95,8.93,2.84,1.87,1.9,2.81,4.81,2.81,8.75v3.1c0,5.23-1.73,8.54-5.18,9.94v.14c1.92.58,3.28,1.75,4.07,3.53.79,1.78,1.19,4.15,1.19,7.13v8.86c0,1.44.05,2.6.14,3.49.1.89.33,1.76.72,2.63h-8.06c-.29-.82-.48-1.58-.58-2.3-.1-.72-.14-2.02-.14-3.89v-9.22c0-2.3-.37-3.91-1.12-4.82-.74-.91-2.03-1.37-3.85-1.37h-2.74v21.6h-7.92V6.95ZM533.8,28.55c1.58,0,2.77-.41,3.56-1.22.79-.82,1.19-2.18,1.19-4.1v-3.89c0-1.82-.32-3.14-.97-3.96-.65-.82-1.67-1.22-3.06-1.22h-3.6v14.4h2.88Z"/>
    <path className="cls-3" d="M283.35,131.76c-1.99-2.16-2.99-5.21-2.99-9.14v-27.07c0-3.94,1-6.98,2.99-9.14,1.99-2.16,4.88-3.24,8.68-3.24s6.68,1.08,8.68,3.24c1.99,2.16,2.99,5.21,2.99,9.14v5.33h-7.49v-5.83c0-3.12-1.32-4.68-3.96-4.68s-3.96,1.56-3.96,4.68v28.15c0,3.07,1.32,4.61,3.96,4.61s3.96-1.54,3.96-4.61v-7.7h7.49v7.13c0,3.94-1,6.98-2.99,9.14-1.99,2.16-4.88,3.24-8.68,3.24s-6.68-1.08-8.68-3.24Z"/>
    <path className="cls-3" d="M311.11,131.69c-2.06-2.21-3.1-5.33-3.1-9.36v-26.5c0-4.03,1.03-7.15,3.1-9.36,2.06-2.21,5.04-3.31,8.93-3.31s6.86,1.1,8.93,3.31c2.06,2.21,3.1,5.33,3.1,9.36v26.5c0,4.03-1.03,7.15-3.1,9.36-2.06,2.21-5.04,3.31-8.93,3.31s-6.87-1.1-8.93-3.31ZM324.14,122.84v-27.5c0-3.31-1.37-4.97-4.1-4.97s-4.11,1.66-4.11,4.97v27.5c0,3.31,1.37,4.97,4.11,4.97s4.1-1.66,4.1-4.97Z"/>
    <path className="cls-3" d="M337.39,83.88h9.94l7.7,30.17h.14v-30.17h7.06v50.4h-8.14l-9.5-36.79h-.14v36.79h-7.06v-50.4Z"/>
    <path className="cls-3" d="M374.32,91.08h-8.28v-7.2h24.48v7.2h-8.28v43.2h-7.92v-43.2Z"/>
    <path className="cls-3" d="M394.34,83.88h11.74c4.08,0,7.06.95,8.93,2.84,1.87,1.9,2.81,4.81,2.81,8.75v3.1c0,5.23-1.73,8.54-5.18,9.94v.14c1.92.58,3.28,1.75,4.07,3.53.79,1.78,1.19,4.15,1.19,7.13v8.86c0,1.44.05,2.6.14,3.49.1.89.34,1.76.72,2.63h-8.06c-.29-.82-.48-1.58-.58-2.3-.1-.72-.14-2.02-.14-3.89v-9.22c0-2.3-.37-3.91-1.12-4.82-.75-.91-2.03-1.37-3.85-1.37h-2.74v21.6h-7.92v-50.4ZM405.14,105.48c1.58,0,2.77-.41,3.56-1.22.79-.82,1.19-2.18,1.19-4.1v-3.89c0-1.82-.32-3.14-.97-3.96-.65-.82-1.67-1.22-3.06-1.22h-3.6v14.4h2.88Z"/>
    <path className="cls-3" d="M429.47,83.88h10.73l8.21,50.4h-7.92l-1.44-10.01v.14h-9l-1.44,9.86h-7.34l8.21-50.4ZM438.11,117.58l-3.53-24.91h-.14l-3.46,24.91h7.13Z"/>
    <path className="cls-3" d="M454.56,131.76c-1.99-2.16-2.99-5.21-2.99-9.14v-27.07c0-3.94,1-6.98,2.99-9.14,1.99-2.16,4.88-3.24,8.68-3.24s6.68,1.08,8.68,3.24c1.99,2.16,2.99,5.21,2.99,9.14v5.33h-7.49v-5.83c0-3.12-1.32-4.68-3.96-4.68s-3.96,1.56-3.96,4.68v28.15c0,3.07,1.32,4.61,3.96,4.61s3.96-1.54,3.96-4.61v-7.7h7.49v7.13c0,3.94-1,6.98-2.99,9.14-1.99,2.16-4.88,3.24-8.68,3.24s-6.68-1.08-8.68-3.24Z"/>
    <path className="cls-3" d="M485.85,91.08h-8.28v-7.2h24.48v7.2h-8.28v43.2h-7.92v-43.2Z"/>
    <path className="cls-3" d="M515.51,83.88h7.63l3.53,38.74h.14l3.74-38.74h8.64l3.74,38.74h.14l3.53-38.74h6.84l-5.11,50.4h-9.86l-3.6-33.98h-.14l-3.6,33.98h-10.51l-5.11-50.4Z"/>
    <path className="cls-3" d="M557.49,83.88h7.92v50.4h-7.92v-50.4Z"/>
    <path className="cls-3" d="M577.5,91.08h-8.28v-7.2h24.48v7.2h-8.28v43.2h-7.92v-43.2Z"/>
    <path className="cls-3" d="M597.52,83.88h7.92v20.52h8.5v-20.52h7.92v50.4h-7.92v-22.68h-8.5v22.68h-7.92v-50.4Z"/>
    <path className="cls-3" d="M642.01,131.73c-2.02-2.18-3.02-5.32-3.02-9.4v-38.45h7.92v39.02c0,1.73.35,2.98,1.04,3.74.7.77,1.69,1.15,2.99,1.15s2.29-.38,2.99-1.15c.7-.77,1.04-2.02,1.04-3.74v-39.02h7.63v38.45c0,4.08-1.01,7.21-3.02,9.4-2.02,2.19-4.94,3.28-8.78,3.28s-6.77-1.09-8.78-3.28Z"/>
    <path className="cls-3" d="M669.81,131.73c-1.97-2.18-2.95-5.32-2.95-9.4v-2.88h7.49v3.46c0,3.26,1.37,4.9,4.1,4.9,1.34,0,2.36-.4,3.06-1.19.7-.79,1.04-2.08,1.04-3.85,0-2.11-.48-3.97-1.44-5.58-.96-1.61-2.74-3.54-5.33-5.8-3.26-2.88-5.54-5.48-6.84-7.81-1.3-2.33-1.94-4.96-1.94-7.88,0-3.98,1.01-7.07,3.02-9.25,2.02-2.18,4.94-3.28,8.78-3.28s6.66,1.09,8.6,3.28c1.94,2.19,2.92,5.32,2.92,9.4v2.09h-7.49v-2.59c0-1.73-.34-2.99-1.01-3.78s-1.66-1.19-2.95-1.19c-2.64,0-3.96,1.61-3.96,4.82,0,1.82.49,3.53,1.48,5.11.98,1.58,2.77,3.5,5.36,5.76,3.31,2.88,5.59,5.5,6.84,7.85,1.25,2.35,1.87,5.11,1.87,8.28,0,4.13-1.02,7.3-3.06,9.5-2.04,2.21-5,3.31-8.89,3.31s-6.74-1.09-8.71-3.28Z"/>
  </g>
  <g className="cls-4">
    <path className="cls-3" d="M697.97,127.37h7.63v7.63h-7.63v-7.63Z"/>
  </g>
</svg>