<svg width="2252" height="1408" viewBox="0 0 2252 1408" fill="none" xmlns="http://www.w3.org/2000/svg">
<path d="M0 0H2252V1408H0V0Z" fill="#FEFDF6"/>
<path d="M1787.67 1099.98H1783.2V1100.06C1783.2 1100.67 1783.4 1100.97 1783.79 1100.97C1783.9 1100.97 1784.03 1100.89 1784.19 1100.73C1784.35 1100.57 1784.53 1100.49 1784.72 1100.49H1787.55C1787.77 1100.49 1787.88 1100.6 1787.88 1100.82C1787.88 1101.31 1787.51 1101.82 1786.77 1102.35C1786.04 1102.88 1785.05 1103.15 1783.79 1103.15C1782.54 1103.15 1781.51 1102.82 1780.71 1102.17C1779.92 1101.51 1779.53 1100.61 1779.53 1099.46V1098.74C1779.53 1097.65 1779.93 1096.76 1780.74 1096.08C1781.55 1095.39 1782.61 1095.05 1783.92 1095.05C1785.24 1095.05 1786.26 1095.43 1786.98 1096.2C1787.71 1096.97 1788.08 1097.95 1788.08 1099.13V1099.58C1788.08 1099.69 1788.04 1099.78 1787.96 1099.86C1787.88 1099.94 1787.78 1099.98 1787.67 1099.98ZM1784.4 1098.05C1784.4 1097.45 1784.2 1097.15 1783.8 1097.15C1783.4 1097.15 1783.2 1097.45 1783.2 1098.05V1098.11H1784.4V1098.05ZM1798.09 1097.73C1797.93 1097.73 1797.79 1097.79 1797.67 1097.91C1797.56 1098.03 1797.5 1098.21 1797.5 1098.45V1102.59C1797.5 1102.7 1797.46 1102.8 1797.38 1102.88C1797.3 1102.96 1797.21 1103 1797.1 1103H1794.46C1794.35 1103 1794.25 1102.96 1794.17 1102.88C1794.09 1102.8 1794.05 1102.7 1794.05 1102.59V1098.56C1794.05 1098.01 1793.85 1097.73 1793.45 1097.73C1793.28 1097.73 1793.14 1097.8 1793.02 1097.93C1792.91 1098.05 1792.85 1098.22 1792.85 1098.44V1102.59C1792.85 1102.7 1792.81 1102.8 1792.73 1102.88C1792.65 1102.96 1792.56 1103 1792.45 1103H1789.75C1789.64 1103 1789.54 1102.96 1789.46 1102.88C1789.38 1102.8 1789.34 1102.7 1789.34 1102.59V1095.6C1789.34 1095.49 1789.38 1095.4 1789.46 1095.32C1789.54 1095.24 1789.64 1095.2 1789.75 1095.2H1792.22C1792.33 1095.2 1792.43 1095.24 1792.51 1095.32C1792.59 1095.4 1792.63 1095.49 1792.63 1095.6V1096.1C1792.83 1095.84 1793.11 1095.6 1793.48 1095.39C1793.89 1095.16 1794.35 1095.05 1794.86 1095.05C1795.96 1095.05 1796.7 1095.46 1797.08 1096.28C1797.32 1095.93 1797.65 1095.64 1798.07 1095.41C1798.49 1095.17 1798.93 1095.05 1799.38 1095.05C1800.19 1095.05 1800.85 1095.33 1801.36 1095.9C1801.88 1096.47 1802.14 1097.32 1802.14 1098.45V1102.59C1802.14 1102.7 1802.1 1102.8 1802.02 1102.88C1801.94 1102.96 1801.84 1103 1801.73 1103H1799.09C1798.98 1103 1798.89 1102.96 1798.81 1102.88C1798.73 1102.8 1798.69 1102.7 1798.69 1102.59V1098.56C1798.69 1098.01 1798.49 1097.73 1798.09 1097.73ZM1812.33 1098.51V1099.7C1812.33 1100.82 1812.03 1101.67 1811.43 1102.26C1810.83 1102.85 1810.09 1103.15 1809.22 1103.15C1808.36 1103.15 1807.67 1102.92 1807.15 1102.44V1105.45C1807.15 1105.56 1807.11 1105.65 1807.03 1105.73C1806.95 1105.81 1806.86 1105.85 1806.75 1105.85H1803.97C1803.86 1105.85 1803.77 1105.81 1803.69 1105.73C1803.61 1105.65 1803.57 1105.56 1803.57 1105.45V1095.6C1803.57 1095.49 1803.61 1095.4 1803.69 1095.32C1803.77 1095.24 1803.86 1095.2 1803.97 1095.2H1806.52C1806.63 1095.2 1806.73 1095.24 1806.81 1095.32C1806.89 1095.4 1806.93 1095.49 1806.93 1095.6V1096.05C1807.45 1095.38 1808.18 1095.05 1809.13 1095.05C1810.08 1095.05 1810.85 1095.33 1811.44 1095.9C1812.03 1096.46 1812.33 1097.33 1812.33 1098.51ZM1807.15 1098.6V1099.71C1807.18 1100.21 1807.43 1100.46 1807.9 1100.46C1808.4 1100.46 1808.65 1100.17 1808.65 1099.59V1098.6C1808.65 1098.02 1808.4 1097.73 1807.9 1097.73C1807.4 1097.73 1807.15 1098.02 1807.15 1098.6ZM1816.69 1103H1814.01C1813.9 1103 1813.8 1102.96 1813.72 1102.88C1813.64 1102.8 1813.6 1102.7 1813.6 1102.59V1092.75C1813.6 1092.64 1813.64 1092.55 1813.72 1092.47C1813.8 1092.39 1813.9 1092.35 1814.01 1092.35H1816.69C1816.8 1092.35 1816.9 1092.39 1816.98 1092.47C1817.06 1092.55 1817.1 1092.64 1817.1 1092.75V1102.59C1817.1 1102.7 1817.06 1102.8 1816.98 1102.88C1816.9 1102.96 1816.8 1103 1816.69 1103ZM1818.37 1099.61V1098.59C1818.37 1097.45 1818.78 1096.57 1819.59 1095.96C1820.4 1095.35 1821.44 1095.05 1822.72 1095.05C1824 1095.05 1825.05 1095.35 1825.86 1095.96C1826.67 1096.57 1827.07 1097.45 1827.07 1098.59V1099.61C1827.07 1100.76 1826.68 1101.64 1825.9 1102.25C1825.12 1102.85 1824.06 1103.15 1822.72 1103.15C1821.38 1103.15 1820.32 1102.85 1819.54 1102.25C1818.76 1101.64 1818.37 1100.76 1818.37 1099.61ZM1823.4 1099.73V1098.47C1823.4 1098.09 1823.35 1097.82 1823.25 1097.67C1823.15 1097.52 1822.97 1097.45 1822.72 1097.45C1822.47 1097.45 1822.3 1097.52 1822.2 1097.67C1822.1 1097.82 1822.05 1098.09 1822.05 1098.47V1099.73C1822.05 1100.13 1822.1 1100.4 1822.2 1100.54C1822.3 1100.68 1822.47 1100.75 1822.72 1100.75C1822.97 1100.75 1823.15 1100.67 1823.25 1100.52C1823.35 1100.37 1823.4 1100.11 1823.4 1099.73ZM1828.2 1095.2H1830.74C1830.97 1095.2 1831.13 1095.32 1831.22 1095.56L1832.45 1098.98L1833.72 1095.56C1833.82 1095.32 1833.99 1095.2 1834.23 1095.2H1836.74C1836.83 1095.2 1836.91 1095.23 1836.98 1095.3C1837.05 1095.36 1837.08 1095.43 1837.08 1095.5C1837.08 1095.57 1837.08 1095.62 1837.07 1095.66L1832.84 1105.49C1832.74 1105.73 1832.56 1105.85 1832.31 1105.85H1829.85C1829.76 1105.85 1829.68 1105.82 1829.61 1105.76C1829.55 1105.7 1829.52 1105.63 1829.52 1105.54C1829.52 1105.46 1829.53 1105.41 1829.54 1105.39L1830.74 1102.51L1827.84 1095.66C1827.83 1095.63 1827.83 1095.6 1827.83 1095.56C1827.87 1095.32 1827.99 1095.2 1828.2 1095.2Z" fill="#15207B"/>
<path d="M1788.51 1254.51V1255.7C1788.51 1256.82 1788.21 1257.67 1787.61 1258.26C1787.01 1258.85 1786.28 1259.15 1785.41 1259.15C1784.55 1259.15 1783.86 1258.92 1783.34 1258.44V1261.45C1783.34 1261.56 1783.3 1261.65 1783.22 1261.73C1783.14 1261.81 1783.04 1261.85 1782.93 1261.85H1780.16C1780.05 1261.85 1779.95 1261.81 1779.87 1261.73C1779.79 1261.65 1779.75 1261.56 1779.75 1261.45V1251.6C1779.75 1251.49 1779.79 1251.4 1779.87 1251.32C1779.95 1251.24 1780.05 1251.2 1780.16 1251.2H1782.71C1782.82 1251.2 1782.91 1251.24 1782.99 1251.32C1783.07 1251.4 1783.11 1251.49 1783.11 1251.6V1252.05C1783.63 1251.38 1784.37 1251.05 1785.32 1251.05C1786.27 1251.05 1787.04 1251.33 1787.63 1251.9C1788.22 1252.46 1788.51 1253.33 1788.51 1254.51ZM1783.34 1254.6V1255.71C1783.37 1256.21 1783.62 1256.46 1784.09 1256.46C1784.59 1256.46 1784.84 1256.17 1784.84 1255.59V1254.6C1784.84 1254.02 1784.59 1253.73 1784.09 1253.73C1783.59 1253.73 1783.34 1254.02 1783.34 1254.6ZM1793.07 1251.6V1252.13C1793.77 1251.51 1794.55 1251.2 1795.41 1251.2H1796.13C1796.24 1251.2 1796.33 1251.24 1796.41 1251.32C1796.49 1251.4 1796.53 1251.49 1796.53 1251.6V1253.94C1796.53 1254.05 1796.49 1254.15 1796.41 1254.23C1796.33 1254.31 1796.24 1254.35 1796.13 1254.35H1794.19C1793.92 1254.35 1793.71 1254.41 1793.55 1254.54C1793.4 1254.66 1793.31 1254.83 1793.29 1255.04V1258.59C1793.29 1258.7 1793.25 1258.8 1793.17 1258.88C1793.09 1258.96 1793 1259 1792.89 1259H1790.04C1789.93 1259 1789.83 1258.96 1789.75 1258.88C1789.67 1258.8 1789.63 1258.7 1789.63 1258.59V1251.6C1789.63 1251.49 1789.67 1251.4 1789.75 1251.32C1789.83 1251.24 1789.93 1251.2 1790.04 1251.2H1792.66C1792.77 1251.2 1792.87 1251.24 1792.95 1251.32C1793.03 1251.4 1793.07 1251.49 1793.07 1251.6ZM1797.51 1255.61V1254.59C1797.51 1253.45 1797.92 1252.57 1798.73 1251.96C1799.54 1251.35 1800.58 1251.05 1801.86 1251.05C1803.14 1251.05 1804.19 1251.35 1805 1251.96C1805.81 1252.57 1806.21 1253.45 1806.21 1254.59V1255.61C1806.21 1256.76 1805.82 1257.64 1805.04 1258.25C1804.26 1258.85 1803.2 1259.15 1801.86 1259.15C1800.52 1259.15 1799.46 1258.85 1798.68 1258.25C1797.9 1257.64 1797.51 1256.76 1797.51 1255.61ZM1802.54 1255.73V1254.47C1802.54 1254.09 1802.49 1253.82 1802.39 1253.67C1802.29 1253.52 1802.11 1253.45 1801.86 1253.45C1801.61 1253.45 1801.44 1253.52 1801.34 1253.67C1801.24 1253.82 1801.19 1254.09 1801.19 1254.47V1255.73C1801.19 1256.13 1801.24 1256.4 1801.34 1256.54C1801.44 1256.68 1801.61 1256.75 1801.86 1256.75C1802.11 1256.75 1802.29 1256.67 1802.39 1256.52C1802.49 1256.37 1802.54 1256.11 1802.54 1255.73ZM1816.25 1254.51V1255.7C1816.25 1256.82 1815.95 1257.67 1815.35 1258.26C1814.75 1258.85 1814.02 1259.15 1813.15 1259.15C1812.29 1259.15 1811.6 1258.92 1811.08 1258.44V1261.45C1811.08 1261.56 1811.04 1261.65 1810.96 1261.73C1810.88 1261.81 1810.78 1261.85 1810.67 1261.85H1807.9C1807.79 1261.85 1807.69 1261.81 1807.61 1261.73C1807.53 1261.65 1807.49 1261.56 1807.49 1261.45V1251.6C1807.49 1251.49 1807.53 1251.4 1807.61 1251.32C1807.69 1251.24 1807.79 1251.2 1807.9 1251.2H1810.45C1810.56 1251.2 1810.65 1251.24 1810.73 1251.32C1810.81 1251.4 1810.85 1251.49 1810.85 1251.6V1252.05C1811.37 1251.38 1812.11 1251.05 1813.06 1251.05C1814.01 1251.05 1814.78 1251.33 1815.37 1251.9C1815.96 1252.46 1816.25 1253.33 1816.25 1254.51ZM1811.08 1254.6V1255.71C1811.11 1256.21 1811.36 1256.46 1811.83 1256.46C1812.33 1256.46 1812.58 1256.17 1812.58 1255.59V1254.6C1812.58 1254.02 1812.33 1253.73 1811.83 1253.73C1811.33 1253.73 1811.08 1254.02 1811.08 1254.6ZM1825.45 1255.98H1820.98V1256.06C1820.98 1256.67 1821.17 1256.97 1821.56 1256.97C1821.67 1256.97 1821.81 1256.89 1821.97 1256.73C1822.13 1256.57 1822.3 1256.49 1822.49 1256.49H1825.33C1825.55 1256.49 1825.66 1256.6 1825.66 1256.82C1825.66 1257.31 1825.29 1257.82 1824.55 1258.35C1823.82 1258.88 1822.82 1259.15 1821.56 1259.15C1820.31 1259.15 1819.29 1258.82 1818.49 1258.17C1817.7 1257.51 1817.3 1256.61 1817.3 1255.46V1254.74C1817.3 1253.65 1817.71 1252.76 1818.52 1252.08C1819.33 1251.39 1820.39 1251.05 1821.7 1251.05C1823.02 1251.05 1824.04 1251.43 1824.76 1252.2C1825.49 1252.97 1825.85 1253.95 1825.85 1255.13V1255.58C1825.85 1255.69 1825.81 1255.78 1825.73 1255.86C1825.65 1255.94 1825.56 1255.98 1825.45 1255.98ZM1822.18 1254.05C1822.18 1253.45 1821.98 1253.15 1821.58 1253.15C1821.18 1253.15 1820.98 1253.45 1820.98 1254.05V1254.11H1822.18V1254.05ZM1830.41 1251.6V1252.13C1831.11 1251.51 1831.89 1251.2 1832.75 1251.2H1833.47C1833.58 1251.2 1833.67 1251.24 1833.75 1251.32C1833.83 1251.4 1833.87 1251.49 1833.87 1251.6V1253.94C1833.87 1254.05 1833.83 1254.15 1833.75 1254.23C1833.67 1254.31 1833.58 1254.35 1833.47 1254.35H1831.53C1831.26 1254.35 1831.05 1254.41 1830.89 1254.54C1830.74 1254.66 1830.65 1254.83 1830.63 1255.04V1258.59C1830.63 1258.7 1830.59 1258.8 1830.51 1258.88C1830.43 1258.96 1830.34 1259 1830.23 1259H1827.38C1827.27 1259 1827.17 1258.96 1827.09 1258.88C1827.01 1258.8 1826.97 1258.7 1826.97 1258.59V1251.6C1826.97 1251.49 1827.01 1251.4 1827.09 1251.32C1827.17 1251.24 1827.27 1251.2 1827.38 1251.2H1830C1830.11 1251.2 1830.21 1251.24 1830.29 1251.32C1830.37 1251.4 1830.41 1251.49 1830.41 1251.6ZM1839.58 1253.82V1255.47C1839.58 1255.97 1839.79 1256.22 1840.22 1256.22H1841.59C1841.7 1256.22 1841.79 1256.26 1841.87 1256.34C1841.95 1256.42 1841.99 1256.52 1841.99 1256.63V1258.59C1841.99 1258.7 1841.95 1258.8 1841.87 1258.88C1841.79 1258.96 1841.7 1259 1841.59 1259H1839.89C1837.39 1259 1836.14 1257.92 1836.14 1255.77V1253.82H1834.96C1834.85 1253.82 1834.75 1253.78 1834.67 1253.7C1834.59 1253.62 1834.55 1253.53 1834.55 1253.42V1251.6C1834.55 1251.49 1834.59 1251.4 1834.67 1251.32C1834.75 1251.24 1834.85 1251.2 1834.96 1251.2H1836.14V1248.75C1836.14 1248.64 1836.18 1248.55 1836.26 1248.47C1836.34 1248.39 1836.44 1248.35 1836.55 1248.35H1839.17C1839.28 1248.35 1839.38 1248.39 1839.46 1248.47C1839.54 1248.55 1839.58 1248.64 1839.58 1248.75V1251.2H1841.47C1841.58 1251.2 1841.67 1251.24 1841.75 1251.32C1841.83 1251.4 1841.87 1251.49 1841.87 1251.6V1253.42C1841.87 1253.53 1841.83 1253.62 1841.75 1253.7C1841.67 1253.78 1841.58 1253.82 1841.47 1253.82H1839.58ZM1842.9 1251.2H1845.43C1845.66 1251.2 1845.82 1251.32 1845.91 1251.56L1847.14 1254.98L1848.42 1251.56C1848.52 1251.32 1848.69 1251.2 1848.93 1251.2H1851.43C1851.52 1251.2 1851.6 1251.23 1851.67 1251.3C1851.74 1251.36 1851.78 1251.43 1851.78 1251.5C1851.78 1251.57 1851.77 1251.62 1851.76 1251.66L1847.53 1261.49C1847.43 1261.73 1847.26 1261.85 1847.01 1261.85H1844.55C1844.46 1261.85 1844.38 1261.82 1844.31 1261.76C1844.25 1261.7 1844.22 1261.63 1844.22 1261.54C1844.22 1261.46 1844.22 1261.41 1844.23 1261.39L1845.43 1258.51L1842.54 1251.66C1842.53 1251.63 1842.52 1251.6 1842.52 1251.56C1842.56 1251.32 1842.69 1251.2 1842.9 1251.2Z" fill="#15207B"/>
<path d="M1787.51 1176.51V1177.7C1787.51 1178.82 1787.21 1179.67 1786.61 1180.26C1786.01 1180.85 1785.28 1181.15 1784.41 1181.15C1783.55 1181.15 1782.86 1180.92 1782.34 1180.44V1183.45C1782.34 1183.56 1782.3 1183.65 1782.22 1183.73C1782.14 1183.81 1782.04 1183.85 1781.93 1183.85H1779.16C1779.05 1183.85 1778.95 1183.81 1778.87 1183.73C1778.79 1183.65 1778.75 1183.56 1778.75 1183.45V1173.6C1778.75 1173.49 1778.79 1173.4 1778.87 1173.32C1778.95 1173.24 1779.05 1173.2 1779.16 1173.2H1781.71C1781.82 1173.2 1781.91 1173.24 1781.99 1173.32C1782.07 1173.4 1782.11 1173.49 1782.11 1173.6V1174.05C1782.63 1173.38 1783.37 1173.05 1784.32 1173.05C1785.27 1173.05 1786.04 1173.33 1786.63 1173.9C1787.22 1174.46 1787.51 1175.33 1787.51 1176.51ZM1782.34 1176.6V1177.71C1782.37 1178.21 1782.62 1178.46 1783.09 1178.46C1783.59 1178.46 1783.84 1178.17 1783.84 1177.59V1176.6C1783.84 1176.02 1783.59 1175.73 1783.09 1175.73C1782.59 1175.73 1782.34 1176.02 1782.34 1176.6ZM1788.71 1177.74V1173.6C1788.71 1173.49 1788.75 1173.4 1788.83 1173.32C1788.91 1173.24 1789 1173.2 1789.11 1173.2H1791.98C1792.09 1173.2 1792.18 1173.24 1792.26 1173.32C1792.34 1173.4 1792.38 1173.49 1792.38 1173.6V1177.64C1792.38 1178.19 1792.63 1178.46 1793.13 1178.46C1793.63 1178.46 1793.88 1178.19 1793.88 1177.64V1173.6C1793.88 1173.49 1793.92 1173.4 1794 1173.32C1794.08 1173.24 1794.18 1173.2 1794.29 1173.2H1797.14C1797.25 1173.2 1797.34 1173.24 1797.42 1173.32C1797.5 1173.4 1797.54 1173.49 1797.54 1173.6V1180.59C1797.54 1180.7 1797.5 1180.8 1797.42 1180.88C1797.34 1180.96 1797.25 1181 1797.14 1181H1794.51C1794.4 1181 1794.31 1180.96 1794.23 1180.88C1794.15 1180.8 1794.11 1180.7 1794.11 1180.59V1180.1C1793.64 1180.8 1792.81 1181.15 1791.62 1181.15C1790.8 1181.15 1790.11 1180.86 1789.55 1180.29C1788.99 1179.71 1788.71 1178.86 1788.71 1177.74ZM1802.32 1173.6V1174.13C1803.02 1173.51 1803.8 1173.2 1804.66 1173.2H1805.38C1805.49 1173.2 1805.59 1173.24 1805.67 1173.32C1805.75 1173.4 1805.79 1173.49 1805.79 1173.6V1175.94C1805.79 1176.05 1805.75 1176.15 1805.67 1176.23C1805.59 1176.31 1805.49 1176.35 1805.38 1176.35H1803.45C1803.18 1176.35 1802.96 1176.41 1802.8 1176.54C1802.65 1176.66 1802.57 1176.83 1802.55 1177.04V1180.59C1802.55 1180.7 1802.51 1180.8 1802.43 1180.88C1802.35 1180.96 1802.25 1181 1802.14 1181H1799.29C1799.18 1181 1799.09 1180.96 1799.01 1180.88C1798.93 1180.8 1798.89 1180.7 1798.89 1180.59V1173.6C1798.89 1173.49 1798.93 1173.4 1799.01 1173.32C1799.09 1173.24 1799.18 1173.2 1799.29 1173.2H1801.92C1802.03 1173.2 1802.12 1173.24 1802.2 1173.32C1802.28 1173.4 1802.32 1173.49 1802.32 1173.6ZM1810.44 1176.57V1177.62C1810.44 1177.96 1810.49 1178.21 1810.58 1178.36C1810.67 1178.51 1810.81 1178.58 1811 1178.58C1811.19 1178.58 1811.32 1178.55 1811.39 1178.49C1811.46 1178.42 1811.53 1178.3 1811.6 1178.12C1811.68 1177.93 1811.82 1177.83 1812.03 1177.83H1814.96C1815.07 1177.83 1815.16 1177.87 1815.24 1177.95C1815.32 1178.03 1815.36 1178.14 1815.36 1178.27C1815.36 1178.4 1815.32 1178.57 1815.23 1178.8C1815.14 1179.02 1814.98 1179.26 1814.76 1179.54C1814.54 1179.82 1814.27 1180.08 1813.95 1180.32C1813.63 1180.55 1813.21 1180.75 1812.69 1180.91C1812.17 1181.07 1811.6 1181.15 1810.97 1181.15C1809.72 1181.15 1808.7 1180.82 1807.92 1180.17C1807.15 1179.51 1806.77 1178.6 1806.77 1177.44V1176.75C1806.77 1175.59 1807.15 1174.69 1807.92 1174.04C1808.7 1173.38 1809.72 1173.05 1810.97 1173.05C1811.71 1173.05 1812.38 1173.16 1812.98 1173.39C1813.58 1173.61 1814.04 1173.89 1814.36 1174.22C1814.69 1174.54 1814.94 1174.85 1815.11 1175.16C1815.28 1175.47 1815.36 1175.71 1815.36 1175.88C1815.36 1176.04 1815.32 1176.16 1815.24 1176.24C1815.16 1176.32 1815.07 1176.36 1814.96 1176.36H1812.03C1811.84 1176.36 1811.7 1176.26 1811.6 1176.06C1811.46 1175.76 1811.27 1175.61 1811.04 1175.61C1810.64 1175.61 1810.44 1175.93 1810.44 1176.57ZM1820.29 1176.56V1180.59C1820.29 1180.7 1820.25 1180.8 1820.17 1180.88C1820.09 1180.96 1820 1181 1819.89 1181H1816.96C1816.85 1181 1816.76 1180.96 1816.68 1180.88C1816.6 1180.8 1816.56 1180.7 1816.56 1180.59V1170.75C1816.56 1170.64 1816.6 1170.55 1816.68 1170.47C1816.76 1170.39 1816.85 1170.35 1816.96 1170.35H1819.89C1820 1170.35 1820.09 1170.39 1820.17 1170.47C1820.25 1170.55 1820.29 1170.64 1820.29 1170.75V1173.98C1820.86 1173.36 1821.59 1173.05 1822.48 1173.05C1823.37 1173.05 1824.11 1173.34 1824.69 1173.92C1825.27 1174.5 1825.56 1175.34 1825.56 1176.45V1180.58C1825.56 1180.69 1825.52 1180.78 1825.44 1180.86C1825.36 1180.94 1825.26 1180.98 1825.15 1180.98H1822.21C1822.1 1180.98 1822.01 1180.94 1821.93 1180.86C1821.85 1180.78 1821.81 1180.69 1821.81 1180.58V1176.56C1821.81 1176.01 1821.55 1175.73 1821.04 1175.73C1820.54 1175.73 1820.29 1176.01 1820.29 1176.56ZM1826.76 1178.76C1826.76 1177.41 1827.86 1176.55 1830.05 1176.17L1831.64 1175.91C1831.64 1175.61 1831.61 1175.41 1831.56 1175.31C1831.51 1175.2 1831.39 1175.15 1831.2 1175.15C1831.02 1175.15 1830.84 1175.23 1830.66 1175.39C1830.48 1175.55 1830.31 1175.63 1830.15 1175.63H1827.6C1827.38 1175.63 1827.27 1175.52 1827.27 1175.31C1827.27 1175.09 1827.35 1174.86 1827.5 1174.62C1827.66 1174.37 1827.88 1174.13 1828.17 1173.89C1828.47 1173.65 1828.89 1173.45 1829.42 1173.29C1829.96 1173.13 1830.56 1173.05 1831.22 1173.05C1832.56 1173.05 1833.56 1173.33 1834.23 1173.89C1834.9 1174.45 1835.24 1175.25 1835.24 1176.29V1180.59C1835.24 1180.7 1835.2 1180.8 1835.12 1180.88C1835.04 1180.96 1834.94 1181 1834.83 1181H1832.21C1832.1 1181 1832 1180.96 1831.92 1180.88C1831.84 1180.8 1831.8 1180.7 1831.8 1180.59V1180.17C1831.33 1180.82 1830.65 1181.15 1829.75 1181.15C1828.85 1181.15 1828.12 1180.93 1827.57 1180.47C1827.03 1180.01 1826.76 1179.44 1826.76 1178.76ZM1830.71 1178.93C1831.36 1178.93 1831.68 1178.54 1831.68 1177.76L1830.8 1177.95C1830.36 1178.05 1830.14 1178.24 1830.14 1178.51C1830.14 1178.63 1830.19 1178.73 1830.29 1178.81C1830.39 1178.89 1830.53 1178.93 1830.71 1178.93ZM1840.81 1178.84C1840.81 1178.74 1840.79 1178.66 1840.74 1178.6C1840.61 1178.44 1840.13 1178.28 1839.3 1178.13C1838.47 1177.97 1837.79 1177.7 1837.27 1177.31C1836.76 1176.91 1836.51 1176.35 1836.51 1175.64C1836.51 1174.93 1836.85 1174.32 1837.53 1173.81C1838.21 1173.3 1839.12 1173.05 1840.27 1173.05C1841.43 1173.05 1842.38 1173.29 1843.12 1173.77C1843.86 1174.25 1844.23 1174.73 1844.23 1175.22C1844.23 1175.33 1844.2 1175.43 1844.13 1175.51C1844.07 1175.59 1843.99 1175.63 1843.9 1175.63H1841.38C1841.23 1175.63 1841.05 1175.55 1840.83 1175.39C1840.61 1175.23 1840.44 1175.15 1840.33 1175.15C1840.1 1175.15 1839.99 1175.23 1839.99 1175.39C1839.99 1175.49 1840.01 1175.57 1840.06 1175.63C1840.19 1175.78 1840.74 1175.92 1841.7 1176.06C1842.66 1176.2 1843.37 1176.51 1843.84 1176.99C1844.32 1177.46 1844.56 1177.99 1844.56 1178.57C1844.56 1179.38 1844.2 1180.01 1843.47 1180.47C1842.74 1180.94 1841.7 1181.17 1840.36 1181.17C1839.65 1181.17 1839.02 1181.09 1838.47 1180.92C1837.92 1180.76 1837.5 1180.56 1837.21 1180.32C1836.64 1179.85 1836.36 1179.41 1836.36 1179C1836.36 1178.89 1836.39 1178.8 1836.46 1178.72C1836.53 1178.64 1836.62 1178.6 1836.72 1178.6H1839.33C1839.47 1178.6 1839.65 1178.68 1839.87 1178.84C1840.1 1178.99 1840.31 1179.06 1840.51 1179.06C1840.71 1179.06 1840.81 1178.99 1840.81 1178.84ZM1853.63 1177.98H1849.16V1178.06C1849.16 1178.67 1849.35 1178.97 1849.74 1178.97C1849.85 1178.97 1849.99 1178.89 1850.15 1178.73C1850.31 1178.57 1850.48 1178.49 1850.67 1178.49H1853.51C1853.73 1178.49 1853.84 1178.6 1853.84 1178.82C1853.84 1179.31 1853.47 1179.82 1852.73 1180.35C1852 1180.88 1851 1181.15 1849.74 1181.15C1848.49 1181.15 1847.47 1180.82 1846.67 1180.17C1845.88 1179.51 1845.48 1178.61 1845.48 1177.46V1176.74C1845.48 1175.65 1845.89 1174.76 1846.7 1174.08C1847.51 1173.39 1848.57 1173.05 1849.88 1173.05C1851.2 1173.05 1852.22 1173.43 1852.94 1174.2C1853.67 1174.97 1854.03 1175.95 1854.03 1177.13V1177.58C1854.03 1177.69 1853.99 1177.78 1853.91 1177.86C1853.83 1177.94 1853.74 1177.98 1853.63 1177.98ZM1850.36 1176.05C1850.36 1175.45 1850.16 1175.15 1849.76 1175.15C1849.36 1175.15 1849.16 1175.45 1849.16 1176.05V1176.11H1850.36V1176.05Z" fill="#15207B"/>
<line x1="0.0118062" y1="1168.5" x2="847.012" y2="1172.5" stroke="#141F7B" stroke-width="5"/>
<line x1="1054" y1="1174.5" x2="1429" y2="1174.5" stroke="#141F7B" stroke-width="5"/>
<line x1="1576" y1="787.5" x2="1627" y2="787.5" stroke="#141F7B" stroke-width="5"/>
<line x1="1334" y1="787.5" x2="1537" y2="787.5" stroke="#141F7B" stroke-width="5"/>
<rect x="844.5" y="1141.5" width="208" height="69" rx="34.5" stroke="#141F7B" stroke-width="5"/>
<rect x="1745.5" y="1082.5" width="122" height="32" rx="16" stroke="#141F7B" stroke-width="5"/>
<rect x="1746.5" y="1238.5" width="122" height="32" rx="16" stroke="#141F7B" stroke-width="5"/>
<rect x="1746.5" y="1160.5" width="122" height="32" rx="16" stroke="#141F7B" stroke-width="5"/>
<rect x="1402.5" y="1142.5" width="229" height="67" rx="33.5" fill="#141F7B" stroke="#141F7B" stroke-width="3"/>
<path d="M914.44 1164.26H919.928C920.133 1164.26 920.311 1164.33 920.46 1164.48C920.609 1164.63 920.684 1164.81 920.684 1165.02V1176.27C920.684 1178.88 919.872 1180.85 918.248 1182.18C916.624 1183.49 914.412 1184.14 911.612 1184.14C908.831 1184.14 906.619 1183.49 904.976 1182.18C903.352 1180.87 902.54 1178.9 902.54 1176.27V1165.02C902.54 1164.81 902.615 1164.63 902.764 1164.48C902.913 1164.33 903.091 1164.26 903.296 1164.26H908.784C908.989 1164.26 909.167 1164.33 909.316 1164.48C909.465 1164.63 909.54 1164.81 909.54 1165.02V1176.36C909.54 1177.79 910.231 1178.51 911.612 1178.51C912.993 1178.51 913.684 1177.79 913.684 1176.36V1165.02C913.684 1164.81 913.759 1164.63 913.908 1164.48C914.057 1164.33 914.235 1164.26 914.44 1164.26ZM924.795 1164.26H933.139C935.827 1164.26 937.927 1164.84 939.439 1166C940.951 1167.15 941.707 1168.86 941.707 1171.12C941.707 1173.38 940.951 1175.05 939.439 1176.13C937.945 1177.21 935.845 1177.76 933.139 1177.76H931.319V1183.1C931.319 1183.31 931.244 1183.49 931.095 1183.64C930.945 1183.78 930.768 1183.86 930.563 1183.86H924.795C924.589 1183.86 924.412 1183.78 924.263 1183.64C924.113 1183.49 924.039 1183.31 924.039 1183.1V1165.02C924.039 1164.81 924.113 1164.63 924.263 1164.48C924.412 1164.33 924.589 1164.26 924.795 1164.26ZM931.179 1169.47V1172.58H933.139C933.475 1172.58 933.773 1172.45 934.035 1172.21C934.296 1171.95 934.427 1171.59 934.427 1171.12C934.427 1170.65 934.324 1170.26 934.119 1169.94C933.913 1169.63 933.587 1169.47 933.139 1169.47H931.179ZM951.467 1178.12H959.223C959.428 1178.12 959.606 1178.19 959.755 1178.34C959.904 1178.49 959.979 1178.67 959.979 1178.88V1183.1C959.979 1183.31 959.904 1183.49 959.755 1183.64C959.606 1183.78 959.428 1183.86 959.223 1183.86H945.111C944.906 1183.86 944.728 1183.78 944.579 1183.64C944.43 1183.49 944.355 1183.31 944.355 1183.1V1165.02C944.355 1164.81 944.43 1164.63 944.579 1164.48C944.728 1164.33 944.906 1164.26 945.111 1164.26H950.711C950.916 1164.26 951.094 1164.33 951.243 1164.48C951.392 1164.63 951.467 1164.81 951.467 1165.02V1178.12ZM964.499 1166.05C966.217 1164.67 968.485 1163.98 971.303 1163.98C974.122 1163.98 976.381 1164.68 978.079 1166.08C979.797 1167.46 980.655 1169.41 980.655 1171.93V1176.3C980.655 1178.86 979.806 1180.81 978.107 1182.15C976.427 1183.48 974.159 1184.14 971.303 1184.14C968.447 1184.14 966.17 1183.48 964.471 1182.15C962.791 1180.81 961.951 1178.86 961.951 1176.3V1171.93C961.951 1169.39 962.801 1167.43 964.499 1166.05ZM969.791 1178.12C970.165 1178.49 970.669 1178.68 971.303 1178.68C971.938 1178.68 972.442 1178.49 972.815 1178.12C973.189 1177.75 973.375 1177.18 973.375 1176.41V1171.71C973.375 1170.96 973.189 1170.4 972.815 1170.03C972.442 1169.64 971.938 1169.44 971.303 1169.44C970.669 1169.44 970.165 1169.64 969.791 1170.03C969.418 1170.4 969.231 1170.96 969.231 1171.71V1176.41C969.231 1177.18 969.418 1177.75 969.791 1178.12ZM989.862 1164.26H995.938C996.61 1164.26 997.03 1164.57 997.198 1165.18L1003.44 1183.05C1003.46 1183.1 1003.47 1183.2 1003.47 1183.33C1003.47 1183.44 1003.4 1183.56 1003.27 1183.69C1003.16 1183.8 1003.02 1183.86 1002.85 1183.86H997.674C997.114 1183.86 996.75 1183.63 996.582 1183.16L995.91 1181.31H989.89L989.218 1183.16C989.05 1183.63 988.686 1183.86 988.126 1183.86H982.946C982.778 1183.86 982.629 1183.8 982.498 1183.69C982.386 1183.56 982.33 1183.44 982.33 1183.33C982.33 1183.2 982.339 1183.1 982.358 1183.05L988.602 1165.18C988.77 1164.57 989.19 1164.26 989.862 1164.26ZM991.318 1175.85H994.482L992.886 1170.64L991.318 1175.85ZM1006.47 1164.26H1014.53C1017.26 1164.26 1019.5 1164.94 1021.25 1166.3C1023.03 1167.65 1023.91 1169.53 1023.91 1171.96V1176.13C1023.91 1178.67 1023.06 1180.59 1021.34 1181.9C1019.62 1183.21 1017.36 1183.86 1014.56 1183.86H1006.47C1006.27 1183.86 1006.09 1183.78 1005.94 1183.64C1005.79 1183.49 1005.71 1183.31 1005.71 1183.1V1165.02C1005.71 1164.81 1005.79 1164.63 1005.94 1164.48C1006.09 1164.33 1006.27 1164.26 1006.47 1164.26ZM1012.71 1169.72V1178.4H1014.53C1015.17 1178.4 1015.67 1178.21 1016.05 1177.84C1016.44 1177.45 1016.63 1176.88 1016.63 1176.13V1171.96C1016.63 1170.47 1015.93 1169.72 1014.53 1169.72H1012.71Z" fill="#15207B"/>
<path d="M879.727 1180.6H888.727V1170.68H894.727L884.227 1159.09L873.727 1170.68H879.727V1180.6ZM873.727 1183.91H894.727V1187.22H873.727V1183.91Z" fill="#15207B"/>
<path d="M1695.5 749.802L1695.49 620.74V620.74C1695.5 617.443 1698.18 614.775 1701.5 614.775L1740.99 614.775" stroke="#141F7B" stroke-width="5"/>
<path d="M1745.96 1098.2L1703.92 1098L1699.04 1098.04C1687.98 1098.13 1679.09 1107.18 1679.2 1118.24L1679.66 1163.58L1680.33 1230.05C1680.45 1241.07 1689.46 1249.93 1700.49 1249.84L1749 1249.46" stroke="#141F7B" stroke-width="5"/>
<line x1="1630" y1="1174.5" x2="1748" y2="1174.5" stroke="#141F7B" stroke-width="5"/>
<path d="M1763.5 1105C1767.46 1105 1771 1102.04 1771 1098C1771 1093.96 1767.46 1091 1763.5 1091C1759.54 1091 1756 1093.96 1756 1098C1756 1102.04 1759.54 1105 1763.5 1105Z" stroke="#141F7B" stroke-width="4"/>
<path d="M1556.5 808.5C1568.03 808.5 1577.5 799.386 1577.5 788C1577.5 776.614 1568.03 767.5 1556.5 767.5C1544.97 767.5 1535.5 776.614 1535.5 788C1535.5 799.386 1544.97 808.5 1556.5 808.5Z" stroke="#141F7B" stroke-width="5"/>
<path d="M1764.5 1262C1768.46 1262 1772 1259.04 1772 1255C1772 1250.96 1768.46 1248 1764.5 1248C1760.54 1248 1757 1250.96 1757 1255C1757 1259.04 1760.54 1262 1764.5 1262Z" stroke="#141F7B" stroke-width="4"/>
<path d="M1764.5 1183C1768.46 1183 1772 1180.04 1772 1176C1772 1171.96 1768.46 1169 1764.5 1169C1760.54 1169 1757 1171.96 1757 1176C1757 1180.04 1760.54 1183 1764.5 1183Z" stroke="#141F7B" stroke-width="4"/>
<path d="M1824.68 873.598C1768.7 872.994 1752.63 856.832 1733 818.392L1747.79 813.95V769.532L1738.32 764.455C1750.05 732.559 1765.89 708.368 1824.68 701V719.402C1887.52 713.894 1917.08 736.826 1927 798.086H1907.48C1909.96 853.468 1896.67 875.108 1824.68 892V873.598Z" fill="#04A579" stroke="#04A579" stroke-width="3"/>
<path d="M1867 1181L1969 1181C1985.57 1181 1999 1167.57 1999 1151L1999 779.368L1999 625C1999 608.431 1985.57 595 1969 595L1861 595" stroke="#141F7B" stroke-width="5"/>
<path d="M1811 984V1085" stroke="#141F7B" stroke-width="5"/>
<path d="M1515 395V563" stroke="#141F7B" stroke-width="5"/>
<path d="M1641 359H1810" stroke="#141F7B" stroke-width="5"/>
<path d="M1627 772.298L1695.75 751L1763 772.298V806.156L1695.75 828L1627 806.156V772.298Z" fill="#FEFDF6" stroke="#1B267F" stroke-width="5"/>
<path d="M1209.33 764H1369L1339.24 787.762L1369 812H1209.33L1179 787.762L1209.33 764Z" fill="#1B267F" stroke="#1B267F" stroke-width="3"/>
<path d="M1563 778L1550 788.165L1563 798" stroke="#141F7B" stroke-width="5"/>
<rect x="1761.5" y="566.648" width="101" height="55.5624" rx="5.5" fill="#FEFDF6" stroke="#18227D" stroke-width="5"/>
<rect x="1740.5" y="583.527" width="101" height="55.5624" rx="5.5" fill="#FEFDF6" stroke="#18227D" stroke-width="5"/>
<rect x="1751.5" y="601.396" width="101" height="55.5624" rx="5.5" fill="#FEFDF6" stroke="#18227D" stroke-width="5"/>
<rect x="1761" y="620" width="38" height="14" fill="#E7470A"/>
<line x1="1738" y1="594.5" x2="1841" y2="594.5" stroke="#141F7B"/>
<line x1="1761" y1="576.5" x2="1863" y2="576.5" stroke="#141F7B"/>
<line x1="1751" y1="611.5" x2="1854" y2="611.5" stroke="#141F7B"/>
<ellipse cx="1847" cy="572.09" rx="1" ry="0.992827" fill="#141F7B"/>
<ellipse cx="1857" cy="572.09" rx="1" ry="0.992827" fill="#141F7B"/>
<ellipse cx="1852" cy="572.09" rx="1" ry="0.992827" fill="#141F7B"/>
<ellipse cx="1826" cy="588.969" rx="1" ry="0.992827" fill="#141F7B"/>
<ellipse cx="1836" cy="588.969" rx="1" ry="0.992827" fill="#141F7B"/>
<ellipse cx="1831" cy="588.969" rx="1" ry="0.992827" fill="#141F7B"/>
<ellipse cx="1837" cy="606.839" rx="1" ry="0.992827" fill="#141F7B"/>
<ellipse cx="1847" cy="606.839" rx="1" ry="0.992827" fill="#141F7B"/>
<ellipse cx="1842" cy="606.839" rx="1" ry="0.992827" fill="#141F7B"/>
<line x1="1761" y1="642.5" x2="1799" y2="642.5" stroke="#141F7B"/>
<line y1="-0.5" x2="38.7631" y2="-0.5" transform="matrix(0.722336 0.691542 -0.696721 0.717342 1808 620.738)" stroke="#141F7B"/>
<line y1="-0.5" x2="38.7631" y2="-0.5" transform="matrix(-0.722336 0.691542 -0.696721 -0.717342 1836 620.738)" stroke="#141F7B"/>
<line x1="1761" y1="647.5" x2="1799" y2="647.5" stroke="#141F7B"/>
<rect x="1808.5" y="620.5" width="28" height="28" stroke="#141F7B"/>
<rect x="1821" y="633" width="3" height="3" fill="#141F7B"/>
<path d="M998.675 583H929C912.431 583 899 596.431 899 613V671.85V758C899 774.569 912.431 788 929 788H1183" stroke="#141F7B" stroke-width="5"/>
<path d="M1463.24 1174.28V1178.82C1463.24 1180.28 1463.9 1181 1465.23 1181C1466.26 1181 1466.93 1180.52 1467.26 1179.55C1467.35 1179.24 1467.46 1179.03 1467.58 1178.93C1467.73 1178.82 1467.95 1178.76 1468.26 1178.76H1473.77C1473.93 1178.76 1474.06 1178.83 1474.17 1178.95C1474.3 1179.06 1474.36 1179.2 1474.36 1179.36C1474.36 1180.92 1473.91 1182.24 1473.01 1183.3C1471.35 1185.28 1468.77 1186.27 1465.26 1186.27C1462.51 1186.27 1460.31 1185.67 1458.67 1184.46C1457.03 1183.24 1456.22 1181.36 1456.22 1178.84V1174.25C1456.22 1171.79 1457.05 1169.93 1458.73 1168.69C1460.4 1167.45 1462.58 1166.83 1465.26 1166.83C1468.77 1166.83 1471.35 1167.82 1473.01 1169.8C1473.91 1170.86 1474.36 1172.18 1474.36 1173.74C1474.36 1173.9 1474.3 1174.05 1474.17 1174.17C1474.06 1174.28 1473.93 1174.34 1473.77 1174.34H1468.26C1467.97 1174.34 1467.75 1174.28 1467.61 1174.17C1467.48 1174.07 1467.37 1173.86 1467.26 1173.55C1466.92 1172.58 1466.24 1172.09 1465.23 1172.09C1463.9 1172.09 1463.24 1172.82 1463.24 1174.28ZM1482.84 1167.1H1488.7C1489.35 1167.1 1489.75 1167.4 1489.91 1167.99L1495.93 1185.22C1495.95 1185.27 1495.96 1185.36 1495.96 1185.49C1495.96 1185.59 1495.9 1185.71 1495.77 1185.84C1495.66 1185.95 1495.53 1186 1495.37 1186H1490.37C1489.83 1186 1489.48 1185.77 1489.32 1185.32L1488.67 1183.54H1482.87L1482.22 1185.32C1482.06 1185.77 1481.7 1186 1481.16 1186H1476.17C1476.01 1186 1475.86 1185.95 1475.74 1185.84C1475.63 1185.71 1475.58 1185.59 1475.58 1185.49C1475.58 1185.36 1475.58 1185.27 1475.6 1185.22L1481.62 1167.99C1481.79 1167.4 1482.19 1167.1 1482.84 1167.1ZM1484.24 1178.28H1487.29L1485.75 1173.26L1484.24 1178.28ZM1497.91 1167.1H1513.73C1513.93 1167.1 1514.1 1167.17 1514.24 1167.32C1514.39 1167.46 1514.46 1167.63 1514.46 1167.83V1172.18C1514.46 1172.37 1514.39 1172.54 1514.24 1172.69C1514.1 1172.83 1513.93 1172.9 1513.73 1172.9H1509.25V1185.27C1509.25 1185.47 1509.18 1185.64 1509.03 1185.78C1508.89 1185.93 1508.72 1186 1508.52 1186H1503.12C1502.92 1186 1502.75 1185.93 1502.61 1185.78C1502.46 1185.64 1502.39 1185.47 1502.39 1185.27V1172.9H1497.91C1497.71 1172.9 1497.54 1172.83 1497.4 1172.69C1497.25 1172.54 1497.18 1172.37 1497.18 1172.18V1167.83C1497.18 1167.63 1497.25 1167.46 1497.4 1167.32C1497.54 1167.17 1497.71 1167.1 1497.91 1167.1ZM1523.51 1180.73H1531.83C1532.02 1180.73 1532.2 1180.81 1532.34 1180.95C1532.48 1181.09 1532.56 1181.27 1532.56 1181.46V1185.27C1532.56 1185.47 1532.48 1185.64 1532.34 1185.78C1532.2 1185.93 1532.02 1186 1531.83 1186H1517.76C1517.56 1186 1517.39 1185.93 1517.25 1185.78C1517.1 1185.64 1517.03 1185.47 1517.03 1185.27V1167.83C1517.03 1167.63 1517.1 1167.46 1517.25 1167.32C1517.39 1167.17 1517.56 1167.1 1517.76 1167.1H1531.61C1531.81 1167.1 1531.98 1167.17 1532.12 1167.32C1532.27 1167.46 1532.34 1167.63 1532.34 1167.83V1171.64C1532.34 1171.83 1532.27 1172 1532.12 1172.15C1531.98 1172.29 1531.81 1172.37 1531.61 1172.37H1523.51V1174.07H1531.02C1531.21 1174.07 1531.39 1174.14 1531.53 1174.28C1531.67 1174.43 1531.75 1174.6 1531.75 1174.79V1178.3C1531.75 1178.5 1531.67 1178.67 1531.53 1178.82C1531.39 1178.96 1531.21 1179.03 1531.02 1179.03H1523.51V1180.73ZM1545.5 1174.61H1552.92C1553.12 1174.61 1553.29 1174.68 1553.43 1174.82C1553.58 1174.97 1553.65 1175.14 1553.65 1175.33V1178.84C1553.65 1181.22 1552.8 1183.06 1551.11 1184.35C1549.42 1185.63 1547.16 1186.27 1544.34 1186.27C1541.53 1186.27 1539.31 1185.65 1537.69 1184.41C1536.07 1183.15 1535.26 1181.27 1535.26 1178.76V1174.23C1535.26 1171.83 1536.09 1170.01 1537.75 1168.75C1539.4 1167.47 1541.61 1166.83 1544.36 1166.83C1547.13 1166.83 1549.38 1167.41 1551.09 1168.58C1552.8 1169.74 1553.65 1171.16 1553.65 1172.85C1553.65 1173.01 1553.59 1173.16 1553.46 1173.28C1553.35 1173.39 1553.22 1173.44 1553.06 1173.44H1547.09C1546.73 1173.44 1546.47 1173.35 1546.31 1173.15C1545.95 1172.68 1545.68 1172.41 1545.5 1172.34C1545.08 1172.18 1544.7 1172.09 1544.36 1172.09C1542.98 1172.09 1542.28 1172.77 1542.28 1174.12V1178.71C1542.28 1180.24 1543.02 1181 1544.5 1181C1546.01 1181 1546.77 1180.36 1546.77 1179.06H1545.5C1545.3 1179.06 1545.13 1178.99 1544.98 1178.84C1544.84 1178.7 1544.77 1178.53 1544.77 1178.33V1175.33C1544.77 1175.14 1544.84 1174.97 1544.98 1174.82C1545.13 1174.68 1545.3 1174.61 1545.5 1174.61ZM1558.55 1168.83C1560.21 1167.5 1562.39 1166.83 1565.11 1166.83C1567.83 1166.83 1570.01 1167.5 1571.65 1168.85C1573.3 1170.19 1574.13 1172.07 1574.13 1174.5V1178.71C1574.13 1181.18 1573.31 1183.06 1571.67 1184.35C1570.05 1185.63 1567.87 1186.27 1565.11 1186.27C1562.36 1186.27 1560.16 1185.63 1558.52 1184.35C1556.9 1183.06 1556.09 1181.18 1556.09 1178.71V1174.5C1556.09 1172.05 1556.91 1170.16 1558.55 1168.83ZM1563.65 1180.46C1564.01 1180.82 1564.5 1181 1565.11 1181C1565.72 1181 1566.21 1180.82 1566.57 1180.46C1566.93 1180.1 1567.11 1179.56 1567.11 1178.82V1174.28C1567.11 1173.56 1566.93 1173.02 1566.57 1172.66C1566.21 1172.28 1565.72 1172.09 1565.11 1172.09C1564.5 1172.09 1564.01 1172.28 1563.65 1172.66C1563.29 1173.02 1563.11 1173.56 1563.11 1174.28V1178.82C1563.11 1179.56 1563.29 1180.1 1563.65 1180.46ZM1594.48 1185.11C1594.54 1185.22 1594.56 1185.33 1594.56 1185.46C1594.56 1185.59 1594.5 1185.71 1594.37 1185.84C1594.27 1185.95 1594.13 1186 1593.97 1186H1588.43C1587.88 1186 1587.49 1185.76 1587.27 1185.27L1584.95 1180.11H1583.84V1185.27C1583.84 1185.47 1583.77 1185.64 1583.63 1185.78C1583.48 1185.93 1583.31 1186 1583.12 1186H1577.82C1577.63 1186 1577.45 1185.93 1577.31 1185.78C1577.17 1185.64 1577.09 1185.47 1577.09 1185.27V1167.83C1577.09 1167.63 1577.17 1167.46 1577.31 1167.32C1577.45 1167.17 1577.63 1167.1 1577.82 1167.1H1585.82C1588.41 1167.1 1590.43 1167.68 1591.89 1168.85C1593.35 1170.01 1594.08 1171.67 1594.08 1173.85C1594.08 1176.01 1593.11 1177.71 1591.16 1178.95L1594.48 1185.11ZM1583.84 1172.12V1174.98H1585.82C1586.21 1174.98 1586.52 1174.86 1586.73 1174.61C1586.95 1174.34 1587.06 1174 1587.06 1173.61C1587.06 1173.21 1586.95 1172.87 1586.73 1172.58C1586.54 1172.27 1586.23 1172.12 1585.82 1172.12H1583.84ZM1607.8 1186H1602.51C1602.31 1186 1602.14 1185.93 1601.99 1185.78C1601.85 1185.64 1601.78 1185.47 1601.78 1185.27V1179.95L1595.7 1167.94C1595.67 1167.86 1595.65 1167.77 1595.65 1167.64C1595.65 1167.51 1595.7 1167.4 1595.81 1167.29C1595.94 1167.16 1596.08 1167.1 1596.24 1167.1H1601.32C1601.86 1167.1 1602.24 1167.32 1602.45 1167.77L1605.15 1173.2L1607.85 1167.77C1608.07 1167.32 1608.45 1167.1 1608.99 1167.1H1614.06C1614.22 1167.1 1614.36 1167.16 1614.47 1167.29C1614.59 1167.4 1614.66 1167.51 1614.66 1167.64C1614.66 1167.77 1614.64 1167.86 1614.6 1167.94L1608.53 1179.95V1185.27C1608.53 1185.47 1608.46 1185.64 1608.31 1185.78C1608.17 1185.93 1608 1186 1607.8 1186Z" fill="#FEFDF6"/>
<path d="M1226.18 785C1226.18 783.3 1226.88 781.917 1228.28 780.85C1229.69 779.783 1231.54 779.25 1233.83 779.25C1236.13 779.25 1238 779.808 1239.45 780.925C1240.92 782.042 1241.65 783.208 1241.65 784.425C1241.65 784.575 1241.59 784.708 1241.48 784.825C1241.38 784.925 1241.26 784.975 1241.13 784.975H1236.13C1235.74 784.975 1235.39 784.833 1235.08 784.55C1234.76 784.267 1234.33 784.125 1233.8 784.125C1233 784.125 1232.6 784.358 1232.6 784.825C1232.6 785.075 1232.79 785.283 1233.18 785.45C1233.58 785.617 1234.31 785.767 1235.38 785.9C1237.86 786.217 1239.63 786.8 1240.68 787.65C1241.74 788.483 1242.28 789.758 1242.28 791.475C1242.28 793.175 1241.49 794.567 1239.93 795.65C1238.38 796.717 1236.34 797.25 1233.83 797.25C1231.31 797.25 1229.33 796.733 1227.9 795.7C1226.47 794.667 1225.75 793.408 1225.75 791.925C1225.75 791.775 1225.8 791.65 1225.9 791.55C1226.02 791.433 1226.15 791.375 1226.3 791.375H1231.05C1231.4 791.375 1231.78 791.542 1232.2 791.875C1232.63 792.208 1233.23 792.375 1233.98 792.375C1235.23 792.375 1235.85 792.142 1235.85 791.675C1235.85 791.375 1235.63 791.15 1235.18 791C1234.73 790.833 1233.88 790.667 1232.63 790.5C1228.33 789.933 1226.18 788.1 1226.18 785ZM1255.62 779.5H1260.52C1260.7 779.5 1260.86 779.567 1260.99 779.7C1261.13 779.833 1261.19 779.992 1261.19 780.175V796.325C1261.19 796.508 1261.13 796.667 1260.99 796.8C1260.86 796.933 1260.7 797 1260.52 797H1255.62C1255.43 797 1255.28 796.933 1255.14 796.8C1255.01 796.667 1254.94 796.508 1254.94 796.325V790.925H1250.89V796.325C1250.89 796.508 1250.83 796.667 1250.69 796.8C1250.56 796.933 1250.4 797 1250.22 797H1245.32C1245.13 797 1244.98 796.942 1244.84 796.825C1244.71 796.692 1244.64 796.525 1244.64 796.325V780.175C1244.64 779.992 1244.71 779.833 1244.84 779.7C1244.98 779.567 1245.13 779.5 1245.32 779.5H1250.22C1250.4 779.5 1250.56 779.567 1250.69 779.7C1250.83 779.833 1250.89 779.992 1250.89 780.175V785.425H1254.94V780.175C1254.94 779.992 1255.01 779.833 1255.14 779.7C1255.28 779.567 1255.43 779.5 1255.62 779.5ZM1269.92 779.5H1275.34C1275.94 779.5 1276.32 779.775 1276.47 780.325L1282.04 796.275C1282.06 796.325 1282.07 796.408 1282.07 796.525C1282.07 796.625 1282.01 796.733 1281.89 796.85C1281.79 796.95 1281.67 797 1281.52 797H1276.89C1276.39 797 1276.07 796.792 1275.92 796.375L1275.32 794.725H1269.94L1269.34 796.375C1269.19 796.792 1268.87 797 1268.37 797H1263.74C1263.59 797 1263.46 796.95 1263.34 796.85C1263.24 796.733 1263.19 796.625 1263.19 796.525C1263.19 796.408 1263.2 796.325 1263.22 796.275L1268.79 780.325C1268.94 779.775 1269.32 779.5 1269.92 779.5ZM1271.22 789.85H1274.04L1272.62 785.2L1271.22 789.85ZM1300.17 796.175C1300.22 796.275 1300.25 796.383 1300.25 796.5C1300.25 796.617 1300.19 796.733 1300.07 796.85C1299.97 796.95 1299.85 797 1299.7 797H1294.57C1294.05 797 1293.7 796.775 1293.5 796.325L1291.35 791.55H1290.32V796.325C1290.32 796.508 1290.25 796.667 1290.12 796.8C1289.99 796.933 1289.83 797 1289.65 797H1284.75C1284.56 797 1284.4 796.933 1284.27 796.8C1284.14 796.667 1284.07 796.508 1284.07 796.325V780.175C1284.07 779.992 1284.14 779.833 1284.27 779.7C1284.4 779.567 1284.56 779.5 1284.75 779.5H1292.15C1294.55 779.5 1296.42 780.042 1297.77 781.125C1299.12 782.192 1299.8 783.733 1299.8 785.75C1299.8 787.75 1298.9 789.325 1297.1 790.475L1300.17 796.175ZM1290.32 784.15V786.8H1292.15C1292.51 786.8 1292.8 786.683 1293 786.45C1293.2 786.2 1293.3 785.892 1293.3 785.525C1293.3 785.158 1293.2 784.842 1293 784.575C1292.81 784.292 1292.53 784.15 1292.15 784.15H1290.32ZM1308.63 792.125H1316.33C1316.51 792.125 1316.67 792.192 1316.8 792.325C1316.93 792.458 1317 792.617 1317 792.8V796.325C1317 796.508 1316.93 796.667 1316.8 796.8C1316.67 796.933 1316.51 797 1316.33 797H1303.3C1303.12 797 1302.96 796.933 1302.83 796.8C1302.69 796.667 1302.63 796.508 1302.63 796.325V780.175C1302.63 779.992 1302.69 779.833 1302.83 779.7C1302.96 779.567 1303.12 779.5 1303.3 779.5H1316.13C1316.31 779.5 1316.47 779.567 1316.6 779.7C1316.73 779.833 1316.8 779.992 1316.8 780.175V783.7C1316.8 783.883 1316.73 784.042 1316.6 784.175C1316.47 784.308 1316.31 784.375 1316.13 784.375H1308.63V785.95H1315.58C1315.76 785.95 1315.92 786.017 1316.05 786.15C1316.18 786.283 1316.25 786.442 1316.25 786.625V789.875C1316.25 790.058 1316.18 790.217 1316.05 790.35C1315.92 790.483 1315.76 790.55 1315.58 790.55H1308.63V792.125Z" fill="#FEFDF6"/>
<path d="M1431.31 1166.93C1431.31 1167.75 1431.03 1168.55 1430.53 1169.13C1430.03 1169.71 1429.36 1170.04 1428.65 1170.04C1427.95 1170.04 1427.27 1169.71 1426.78 1169.13C1426.28 1168.55 1426 1167.75 1426 1166.93C1426 1166.1 1426.28 1165.31 1426.78 1164.73C1427.27 1164.14 1427.95 1163.81 1428.65 1163.81C1429.36 1163.81 1430.03 1164.14 1430.53 1164.73C1431.03 1165.31 1431.31 1166.1 1431.31 1166.93ZM1431.31 1175.23C1431.31 1176.06 1431.03 1176.85 1430.53 1177.43C1430.03 1178.02 1429.36 1178.35 1428.65 1178.35C1427.95 1178.35 1427.27 1178.02 1426.78 1177.43C1426.28 1176.85 1426 1176.06 1426 1175.23C1426 1174.41 1426.28 1173.61 1426.78 1173.03C1427.27 1172.45 1427.95 1172.12 1428.65 1172.12C1429.36 1172.12 1430.03 1172.45 1430.53 1173.03C1431.03 1173.61 1431.31 1174.41 1431.31 1175.23ZM1431.31 1183.54C1431.31 1184.36 1431.03 1185.15 1430.53 1185.74C1430.03 1186.32 1429.36 1186.65 1428.65 1186.65C1427.95 1186.65 1427.27 1186.32 1426.78 1185.74C1426.28 1185.15 1426 1184.36 1426 1183.54C1426 1182.71 1426.28 1181.92 1426.78 1181.33C1427.27 1180.75 1427.95 1180.42 1428.65 1180.42C1429.36 1180.42 1430.03 1180.75 1430.53 1181.33C1431.03 1181.92 1431.31 1182.71 1431.31 1183.54Z" fill="#FEFDF6"/>
<path fill-rule="evenodd" clip-rule="evenodd" d="M1433.08 1166.93C1433.08 1166.38 1433.26 1165.85 1433.6 1165.46C1433.93 1165.07 1434.38 1164.85 1434.85 1164.85H1447.23C1447.7 1164.85 1448.15 1165.07 1448.48 1165.46C1448.81 1165.85 1449 1166.38 1449 1166.93C1449 1167.48 1448.81 1168.01 1448.48 1168.4C1448.15 1168.78 1447.7 1169 1447.23 1169H1434.85C1434.38 1169 1433.93 1168.78 1433.6 1168.4C1433.26 1168.01 1433.08 1167.48 1433.08 1166.93ZM1433.08 1175.23C1433.08 1174.68 1433.26 1174.15 1433.6 1173.76C1433.93 1173.37 1434.38 1173.16 1434.85 1173.16H1447.23C1447.7 1173.16 1448.15 1173.37 1448.48 1173.76C1448.81 1174.15 1449 1174.68 1449 1175.23C1449 1175.78 1448.81 1176.31 1448.48 1176.7C1448.15 1177.09 1447.7 1177.31 1447.23 1177.31H1434.85C1434.38 1177.31 1433.93 1177.09 1433.6 1176.7C1433.26 1176.31 1433.08 1175.78 1433.08 1175.23ZM1433.08 1183.53C1433.08 1182.98 1433.26 1182.46 1433.6 1182.07C1433.93 1181.68 1434.38 1181.46 1434.85 1181.46H1447.23C1447.7 1181.46 1448.15 1181.68 1448.48 1182.07C1448.81 1182.46 1449 1182.98 1449 1183.53C1449 1184.09 1448.81 1184.61 1448.48 1185C1448.15 1185.39 1447.7 1185.61 1447.23 1185.61H1434.85C1434.38 1185.61 1433.93 1185.39 1433.6 1185C1433.26 1184.61 1433.08 1184.09 1433.08 1183.53Z" fill="#FEFDF6"/>
<path d="M997 571.688L1025.81 555.211L1054 571.688V597.881L1025.81 614.781L997 597.881V571.688Z" fill="#FEFDF6" stroke="#1B267F" stroke-width="5"/>
<path d="M1132.5 614.302C1149.6 614.302 1163.5 600.531 1163.5 583.507C1163.5 566.482 1149.6 552.711 1132.5 552.711C1115.4 552.711 1101.5 566.482 1101.5 583.507C1101.5 600.531 1115.4 614.302 1132.5 614.302Z" stroke="#141F7B" stroke-width="5"/>
<rect x="1207.5" y="552.711" width="62" height="61.5911" stroke="#141F7B" stroke-width="5"/>
<rect x="-3.54824" width="55" height="55" transform="matrix(0.709647 -0.704557 0.709647 0.704557 1325.97 580.815)" stroke="#141F7B" stroke-width="5"/>
<line x1="1054" y1="582.004" x2="1100" y2="582.004" stroke="#141F7B" stroke-width="4"/>
<line x1="1164" y1="582.996" x2="1210" y2="582.996" stroke="#141F7B" stroke-width="4"/>
<line x1="1273" y1="583" x2="1320" y2="583" stroke="#141F7B" stroke-width="4"/>
<line x1="1403" y1="582.996" x2="1494" y2="582.996" stroke="#141F7B" stroke-width="4"/>
<line x1="1884" y1="360.604" x2="1926" y2="360.604" stroke="#141F7B" stroke-width="4"/>
<line x1="2001" y1="360.604" x2="2044" y2="360.604" stroke="#141F7B" stroke-width="4"/>
<path d="M1515.5 605.367C1527.08 605.367 1536.5 596.042 1536.5 584.5C1536.5 572.958 1527.08 563.633 1515.5 563.633C1503.92 563.633 1494.5 572.958 1494.5 584.5C1494.5 596.042 1503.92 605.367 1515.5 605.367Z" stroke="#141F7B" stroke-width="5"/>
<path d="M1505.3 578.064L1514.29 591.467L1542.94 566.974" stroke="#141F7B" stroke-width="5"/>
<path d="M1526.83 570.547L1531.38 566.666L1534.82 570.643L1530.27 574.524L1526.83 570.547Z" fill="#FEFDF6"/>
<rect width="10.3342" height="5.58725" transform="matrix(0.760681 -0.649126 0.654523 0.756042 1529.78 581.516)" fill="#FEFDF6"/>
<path d="M1645 359L1566.25 411.828V306.172L1645 359Z" fill="#E84F14"/>
<path d="M1494 360L1415.25 412.828V307.172L1494 360Z" fill="#E84F14"/>
<path d="M1532 360L1453.25 412.828V307.172L1532 360Z" fill="#E84F14"/>
<path d="M1570 360L1491.25 412.828V307.172L1570 360Z" fill="#E84F14"/>
<path d="M1608 360L1529.25 412.828V307.172L1608 360Z" fill="#E84F14"/>
<path d="M1480.65 351.5H1484.6C1484.78 351.5 1484.94 351.567 1485.08 351.7C1485.21 351.833 1485.28 351.992 1485.28 352.175V368.325C1485.28 368.508 1485.21 368.667 1485.08 368.8C1484.94 368.933 1484.78 369 1484.6 369H1480.08C1479.89 369 1479.73 368.933 1479.6 368.8C1479.47 368.667 1479.4 368.508 1479.4 368.325V361.475L1477.75 364.175C1477.48 364.592 1477.18 364.8 1476.83 364.8H1475.08C1474.73 364.8 1474.42 364.592 1474.15 364.175L1472.5 361.475V368.325C1472.5 368.508 1472.43 368.667 1472.3 368.8C1472.17 368.933 1472.01 369 1471.83 369H1467.3C1467.12 369 1466.96 368.933 1466.83 368.8C1466.69 368.667 1466.63 368.508 1466.63 368.325V352.175C1466.63 351.992 1466.69 351.833 1466.83 351.7C1466.96 351.567 1467.12 351.5 1467.3 351.5H1471.25C1471.72 351.5 1472.08 351.725 1472.33 352.175L1475.95 358.175L1479.58 352.175C1479.83 351.725 1480.18 351.5 1480.65 351.5ZM1490.3 353.1C1491.83 351.867 1493.86 351.25 1496.37 351.25C1498.89 351.25 1500.91 351.875 1502.42 353.125C1503.96 354.358 1504.72 356.1 1504.72 358.35V362.25C1504.72 364.533 1503.97 366.275 1502.45 367.475C1500.95 368.658 1498.92 369.25 1496.37 369.25C1493.82 369.25 1491.79 368.658 1490.27 367.475C1488.77 366.275 1488.02 364.533 1488.02 362.25V358.35C1488.02 356.083 1488.78 354.333 1490.3 353.1ZM1495.02 363.875C1495.36 364.208 1495.81 364.375 1496.37 364.375C1496.94 364.375 1497.39 364.208 1497.72 363.875C1498.06 363.542 1498.22 363.033 1498.22 362.35V358.15C1498.22 357.483 1498.06 356.983 1497.72 356.65C1497.39 356.3 1496.94 356.125 1496.37 356.125C1495.81 356.125 1495.36 356.3 1495.02 356.65C1494.69 356.983 1494.52 357.483 1494.52 358.15V362.35C1494.52 363.033 1494.69 363.542 1495.02 363.875ZM1508.14 351.5H1515.34C1517.78 351.5 1519.78 352.108 1521.34 353.325C1522.93 354.525 1523.72 356.208 1523.72 358.375V362.1C1523.72 364.367 1522.95 366.083 1521.42 367.25C1519.89 368.417 1517.87 369 1515.37 369H1508.14C1507.96 369 1507.8 368.933 1507.67 368.8C1507.54 368.667 1507.47 368.508 1507.47 368.325V352.175C1507.47 351.992 1507.54 351.833 1507.67 351.7C1507.8 351.567 1507.96 351.5 1508.14 351.5ZM1513.72 356.375V364.125H1515.34C1515.91 364.125 1516.36 363.958 1516.69 363.625C1517.04 363.275 1517.22 362.767 1517.22 362.1V358.375C1517.22 357.042 1516.59 356.375 1515.34 356.375H1513.72ZM1532.24 369H1527.14C1526.96 369 1526.8 368.933 1526.66 368.8C1526.53 368.667 1526.46 368.508 1526.46 368.325V352.175C1526.46 351.992 1526.53 351.833 1526.66 351.7C1526.8 351.567 1526.96 351.5 1527.14 351.5H1532.24C1532.42 351.5 1532.58 351.567 1532.71 351.7C1532.85 351.833 1532.91 351.992 1532.91 352.175V368.325C1532.91 368.508 1532.85 368.667 1532.71 368.8C1532.58 368.933 1532.42 369 1532.24 369ZM1536.83 351.5H1549.43C1549.61 351.5 1549.77 351.567 1549.91 351.7C1550.04 351.833 1550.11 351.992 1550.11 352.175V355.975C1550.11 356.158 1550.04 356.317 1549.91 356.45C1549.77 356.583 1549.61 356.65 1549.43 356.65H1542.28V358.5H1548.93C1549.11 358.5 1549.27 358.567 1549.41 358.7C1549.54 358.833 1549.61 358.992 1549.61 359.175V362.95C1549.61 363.133 1549.54 363.292 1549.41 363.425C1549.27 363.558 1549.11 363.625 1548.93 363.625H1542.28V368.325C1542.28 368.508 1542.21 368.667 1542.08 368.8C1541.95 368.933 1541.79 369 1541.61 369H1536.83C1536.65 369 1536.49 368.933 1536.36 368.8C1536.22 368.667 1536.16 368.508 1536.16 368.325V352.175C1536.16 351.992 1536.22 351.833 1536.36 351.7C1536.49 351.567 1536.65 351.5 1536.83 351.5ZM1562.61 369H1557.71C1557.53 369 1557.37 368.933 1557.23 368.8C1557.1 368.667 1557.03 368.508 1557.03 368.325V363.4L1551.41 352.275C1551.38 352.208 1551.36 352.117 1551.36 352C1551.36 351.883 1551.41 351.775 1551.51 351.675C1551.63 351.558 1551.76 351.5 1551.91 351.5H1556.61C1557.11 351.5 1557.46 351.708 1557.66 352.125L1560.16 357.15L1562.66 352.125C1562.86 351.708 1563.21 351.5 1563.71 351.5H1568.41C1568.56 351.5 1568.68 351.558 1568.78 351.675C1568.9 351.775 1568.96 351.883 1568.96 352C1568.96 352.117 1568.94 352.208 1568.91 352.275L1563.28 363.4V368.325C1563.28 368.508 1563.22 368.667 1563.08 368.8C1562.95 368.933 1562.79 369 1562.61 369Z" fill="#FEFDF6"/>
<path d="M1300.5 1165.8L1258 1185.16L1300.5 1202.54L1341.5 1185.16L1300.5 1165.8Z" stroke="#1B267F" stroke-width="3"/>
<path d="M1300.5 1153.89L1258 1173.25L1300.5 1190.62L1341.5 1173.25L1300.5 1153.89Z" fill="#FCFBEC" stroke="#1B267F" stroke-width="3"/>
<path d="M1300.5 1143.96L1258 1163.32L1300.5 1180.69L1341.5 1163.32L1300.5 1143.96Z" fill="#FCFBEC" stroke="#1B267F" stroke-width="3"/>
<path d="M1168.5 1166.79L1126 1186.15L1168.5 1203.53L1209.5 1186.15L1168.5 1166.79Z" fill="#FEFDF6" stroke="#1B267F" stroke-width="3"/>
<path d="M1168.5 1155.87L1126 1175.23L1168.5 1192.61L1209.5 1175.23L1168.5 1155.87Z" fill="#FEFDF6" stroke="#1B267F" stroke-width="3"/>
<path d="M1168.5 1144.95L1126 1164.31L1168.5 1181.69L1209.5 1164.31L1168.5 1144.95Z" fill="#FEFDF6" stroke="#1B267F" stroke-width="3"/>
<path d="M1862.08 329.751C1862.08 329.751 1864.17 331.819 1866.25 335.956C1866.25 335.956 1872.87 325.614 1878.75 323.546M1841.31 309.088C1830.9 308.653 1822.86 309.841 1822.86 309.841C1817.78 310.205 1808.05 313.026 1808.05 329.54C1808.05 345.905 1807.94 366.084 1808.05 374.13C1808.05 379.045 1811.11 390.512 1821.72 391.124C1834.62 391.869 1857.85 392.03 1868.5 391.124C1871.35 390.963 1880.85 388.741 1882.05 378.482C1883.3 367.851 1883.05 360.467 1883.05 358.708" stroke="#141F7B" stroke-width="5" stroke-linecap="round" stroke-linejoin="round"/>
<path d="M1828.75 354.573H1845.42M1828.75 371.12H1862.08M1891.33 329.752C1891.33 341.174 1882 350.436 1870.48 350.436C1867.74 350.439 1865.03 349.906 1862.5 348.868C1859.97 347.829 1857.67 346.306 1855.73 344.385C1853.8 342.464 1852.26 340.183 1851.21 337.672C1850.16 335.162 1849.62 332.47 1849.62 329.752C1849.62 318.326 1858.96 309.068 1870.48 309.068C1873.22 309.066 1875.93 309.599 1878.46 310.637C1880.99 311.675 1883.29 313.198 1885.22 315.119C1887.16 317.04 1888.7 319.321 1889.75 321.832C1890.79 324.343 1891.33 327.034 1891.33 329.752Z" stroke="#141F7B" stroke-width="5" stroke-linecap="round" stroke-linejoin="round"/>
<path d="M1981.08 329.749C1981.08 329.749 1983.17 331.817 1985.25 335.954C1985.25 335.954 1991.87 325.612 1997.75 323.544M1960.31 309.086C1949.9 308.651 1941.86 309.839 1941.86 309.839C1936.78 310.203 1927.05 313.024 1927.05 329.538C1927.05 345.903 1926.94 366.082 1927.05 374.128C1927.05 379.043 1930.11 390.51 1940.72 391.122C1953.62 391.867 1976.85 392.028 1987.5 391.122C1990.35 390.961 1999.85 388.739 2001.05 378.48C2002.3 367.849 2002.05 360.465 2002.05 358.706" stroke="#141F7B" stroke-width="5" stroke-linecap="round" stroke-linejoin="round"/>
<path d="M1947.75 354.571H1964.42M1947.75 371.118H1981.08M2010.33 329.75C2010.33 341.172 2001 350.434 1989.48 350.434C1986.74 350.437 1984.03 349.904 1981.5 348.866C1978.97 347.827 1976.67 346.304 1974.73 344.383C1972.8 342.462 1971.26 340.181 1970.21 337.67C1969.16 335.16 1968.62 332.468 1968.62 329.75C1968.62 318.325 1977.96 309.066 1989.48 309.066C1992.22 309.064 1994.93 309.597 1997.46 310.635C1999.99 311.673 2002.29 313.196 2004.22 315.117C2006.16 317.038 2007.7 319.319 2008.75 321.83C2009.79 324.341 2010.33 327.032 2010.33 329.75Z" stroke="#141F7B" stroke-width="5" stroke-linecap="round" stroke-linejoin="round"/>
<path d="M2098.08 329.749C2098.08 329.749 2100.17 331.817 2102.25 335.954C2102.25 335.954 2108.87 325.612 2114.75 323.544M2077.31 309.086C2066.9 308.651 2058.86 309.839 2058.86 309.839C2053.78 310.203 2044.05 313.024 2044.05 329.538C2044.05 345.903 2043.94 366.082 2044.05 374.128C2044.05 379.043 2047.11 390.51 2057.72 391.122C2070.62 391.867 2093.85 392.028 2104.5 391.122C2107.35 390.961 2116.85 388.739 2118.05 378.48C2119.3 367.849 2119.05 360.465 2119.05 358.706" stroke="#141F7B" stroke-width="5" stroke-linecap="round" stroke-linejoin="round"/>
<path d="M2064.75 354.571H2081.42M2064.75 371.118H2098.08M2127.33 329.75C2127.33 341.172 2118 350.434 2106.48 350.434C2103.74 350.437 2101.03 349.904 2098.5 348.866C2095.97 347.827 2093.67 346.304 2091.73 344.383C2089.8 342.462 2088.26 340.181 2087.21 337.67C2086.16 335.16 2085.62 332.468 2085.62 329.75C2085.62 318.325 2094.96 309.066 2106.48 309.066C2109.22 309.064 2111.93 309.597 2114.46 310.635C2116.99 311.673 2119.29 313.196 2121.22 315.117C2123.16 317.038 2124.7 319.319 2125.75 321.83C2126.79 324.341 2127.33 327.032 2127.33 329.75Z" stroke="#141F7B" stroke-width="5" stroke-linecap="round" stroke-linejoin="round"/>
<path d="M1643.25 781.6H1648.02C1648.55 781.6 1648.88 781.842 1649.01 782.326L1653.92 796.362C1653.93 796.406 1653.94 796.479 1653.94 796.582C1653.94 796.67 1653.89 796.765 1653.79 796.868C1653.7 796.956 1653.59 797 1653.46 797H1649.39C1648.95 797 1648.66 796.817 1648.53 796.45L1648 794.998H1643.27L1642.74 796.45C1642.61 796.817 1642.32 797 1641.88 797H1637.81C1637.68 797 1637.56 796.956 1637.46 796.868C1637.37 796.765 1637.33 796.67 1637.33 796.582C1637.33 796.479 1637.34 796.406 1637.35 796.362L1642.26 782.326C1642.39 781.842 1642.72 781.6 1643.25 781.6ZM1644.39 790.708H1646.88L1645.62 786.616L1644.39 790.708ZM1664.99 781.6H1668.97C1669.13 781.6 1669.27 781.659 1669.39 781.776C1669.5 781.893 1669.56 782.033 1669.56 782.194V796.406C1669.56 796.567 1669.5 796.707 1669.39 796.824C1669.27 796.941 1669.13 797 1668.97 797H1665.49C1665.11 797 1664.81 796.831 1664.59 796.494L1660.87 790.884V796.406C1660.87 796.567 1660.81 796.707 1660.7 796.824C1660.58 796.941 1660.44 797 1660.28 797H1656.3C1656.14 797 1656 796.941 1655.88 796.824C1655.76 796.707 1655.7 796.567 1655.7 796.406V782.194C1655.7 782.033 1655.76 781.893 1655.88 781.776C1656 781.659 1656.14 781.6 1656.3 781.6H1659.77C1660.18 781.6 1660.48 781.769 1660.68 782.106L1664.39 788.2V782.194C1664.39 782.033 1664.45 781.893 1664.57 781.776C1664.69 781.659 1664.83 781.6 1664.99 781.6ZM1677.24 781.6H1682.01C1682.54 781.6 1682.87 781.842 1683 782.326L1687.91 796.362C1687.92 796.406 1687.93 796.479 1687.93 796.582C1687.93 796.67 1687.88 796.765 1687.77 796.868C1687.69 796.956 1687.58 797 1687.44 797H1683.37C1682.93 797 1682.65 796.817 1682.52 796.45L1681.99 794.998H1677.26L1676.73 796.45C1676.6 796.817 1676.31 797 1675.87 797H1671.8C1671.67 797 1671.55 796.956 1671.45 796.868C1671.36 796.765 1671.32 796.67 1671.32 796.582C1671.32 796.479 1671.33 796.406 1671.34 796.362L1676.25 782.326C1676.38 781.842 1676.71 781.6 1677.24 781.6ZM1678.38 790.708H1680.87L1679.61 786.616L1678.38 790.708ZM1695.28 792.49H1701.37C1701.54 792.49 1701.67 792.549 1701.79 792.666C1701.91 792.783 1701.97 792.923 1701.97 793.084V796.406C1701.97 796.567 1701.91 796.707 1701.79 796.824C1701.67 796.941 1701.54 797 1701.37 797H1690.29C1690.12 797 1689.99 796.941 1689.87 796.824C1689.75 796.707 1689.69 796.567 1689.69 796.406V782.194C1689.69 782.033 1689.75 781.893 1689.87 781.776C1689.99 781.659 1690.12 781.6 1690.29 781.6H1694.69C1694.85 781.6 1694.99 781.659 1695.1 781.776C1695.22 781.893 1695.28 782.033 1695.28 782.194V792.49ZM1712.65 797H1708.34C1708.17 797 1708.03 796.941 1707.92 796.824C1707.8 796.707 1707.74 796.567 1707.74 796.406V792.072L1702.79 782.282C1702.76 782.223 1702.75 782.143 1702.75 782.04C1702.75 781.937 1702.79 781.842 1702.88 781.754C1702.98 781.651 1703.1 781.6 1703.23 781.6H1707.37C1707.81 781.6 1708.12 781.783 1708.29 782.15L1710.49 786.572L1712.69 782.15C1712.87 781.783 1713.18 781.6 1713.62 781.6H1717.75C1717.88 781.6 1717.99 781.651 1718.08 781.754C1718.18 781.842 1718.24 781.937 1718.24 782.04C1718.24 782.143 1718.22 782.223 1718.19 782.282L1713.24 792.072V796.406C1713.24 796.567 1713.18 796.707 1713.07 796.824C1712.95 796.941 1712.81 797 1712.65 797ZM1732.59 792.49C1732.75 792.49 1732.89 792.549 1733.01 792.666C1733.13 792.783 1733.19 792.923 1733.19 793.084V796.406C1733.19 796.567 1733.13 796.707 1733.01 796.824C1732.89 796.941 1732.75 797 1732.59 797H1720.03C1719.87 797 1719.73 796.941 1719.61 796.824C1719.5 796.707 1719.44 796.567 1719.44 796.406V793.238C1719.44 792.945 1719.55 792.688 1719.77 792.468L1725.93 786.066H1720.14C1719.98 786.066 1719.84 786.007 1719.72 785.89C1719.61 785.773 1719.55 785.633 1719.55 785.472V782.194C1719.55 782.033 1719.61 781.893 1719.72 781.776C1719.84 781.659 1719.98 781.6 1720.14 781.6H1732.31C1732.47 781.6 1732.61 781.659 1732.73 781.776C1732.84 781.893 1732.9 782.033 1732.9 782.194V785.318C1732.9 785.611 1732.81 785.853 1732.62 786.044L1726.79 792.49H1732.59ZM1740.88 792.71H1747.66C1747.82 792.71 1747.96 792.769 1748.08 792.886C1748.2 793.003 1748.25 793.143 1748.25 793.304V796.406C1748.25 796.567 1748.2 796.707 1748.08 796.824C1747.96 796.941 1747.82 797 1747.66 797H1736.2C1736.04 797 1735.9 796.941 1735.78 796.824C1735.66 796.707 1735.6 796.567 1735.6 796.406V782.194C1735.6 782.033 1735.66 781.893 1735.78 781.776C1735.9 781.659 1736.04 781.6 1736.2 781.6H1747.48C1747.65 781.6 1747.78 781.659 1747.9 781.776C1748.02 781.893 1748.08 782.033 1748.08 782.194V785.296C1748.08 785.457 1748.02 785.597 1747.9 785.714C1747.78 785.831 1747.65 785.89 1747.48 785.89H1740.88V787.276H1747C1747.16 787.276 1747.3 787.335 1747.42 787.452C1747.54 787.569 1747.59 787.709 1747.59 787.87V790.73C1747.59 790.891 1747.54 791.031 1747.42 791.148C1747.3 791.265 1747.16 791.324 1747 791.324H1740.88V792.71Z" fill="#15207B"/>
<line x1="948" y1="981.5" x2="2252" y2="981.5" stroke="#141F7B" stroke-width="5"/>
<path d="M949 981.447H938C926.954 981.447 918 990.402 918 1001.45V1143" stroke="#141F7B" stroke-width="5"/>
</svg>
