<svg width="2252" height="1230" viewBox="0 0 2252 1230" fill="none" xmlns="http://www.w3.org/2000/svg">
<path d="M0 0H2252V1230H0V0Z" fill="#FEFDF6"/>
<path d="M1787.67 932.407H1783.2V932.482C1783.2 933.092 1783.4 933.397 1783.79 933.397C1783.9 933.397 1784.03 933.317 1784.19 933.157C1784.35 932.997 1784.53 932.917 1784.72 932.917H1787.55C1787.77 932.917 1787.88 933.027 1787.88 933.247C1787.88 933.737 1787.51 934.247 1786.77 934.777C1786.04 935.307 1785.05 935.572 1783.79 935.572C1782.54 935.572 1781.51 935.247 1780.71 934.597C1779.92 933.937 1779.53 933.032 1779.53 931.882V931.162C1779.53 930.072 1779.93 929.187 1780.74 928.507C1781.55 927.817 1782.61 927.472 1783.92 927.472C1785.24 927.472 1786.26 927.857 1786.98 928.627C1787.71 929.397 1788.08 930.372 1788.08 931.552V932.002C1788.08 932.112 1788.04 932.207 1787.96 932.287C1787.88 932.367 1787.78 932.407 1787.67 932.407ZM1784.4 930.472C1784.4 929.872 1784.2 929.572 1783.8 929.572C1783.4 929.572 1783.2 929.872 1783.2 930.472V930.532H1784.4V930.472ZM1798.09 930.157C1797.93 930.157 1797.79 930.217 1797.67 930.337C1797.56 930.457 1797.5 930.637 1797.5 930.877V935.017C1797.5 935.127 1797.46 935.222 1797.38 935.302C1797.3 935.382 1797.21 935.422 1797.1 935.422H1794.46C1794.35 935.422 1794.25 935.382 1794.17 935.302C1794.09 935.222 1794.05 935.127 1794.05 935.017V930.982C1794.05 930.432 1793.85 930.157 1793.45 930.157C1793.28 930.157 1793.14 930.222 1793.02 930.352C1792.91 930.472 1792.85 930.642 1792.85 930.862V935.017C1792.85 935.127 1792.81 935.222 1792.73 935.302C1792.65 935.382 1792.56 935.422 1792.45 935.422H1789.75C1789.64 935.422 1789.54 935.382 1789.46 935.302C1789.38 935.222 1789.34 935.127 1789.34 935.017V928.027C1789.34 927.917 1789.38 927.822 1789.46 927.742C1789.54 927.662 1789.64 927.622 1789.75 927.622H1792.22C1792.33 927.622 1792.43 927.662 1792.51 927.742C1792.59 927.822 1792.63 927.917 1792.63 928.027V928.522C1792.83 928.262 1793.11 928.027 1793.48 927.817C1793.89 927.587 1794.35 927.472 1794.86 927.472C1795.96 927.472 1796.7 927.882 1797.08 928.702C1797.32 928.352 1797.65 928.062 1798.07 927.832C1798.49 927.592 1798.93 927.472 1799.38 927.472C1800.19 927.472 1800.85 927.757 1801.36 928.327C1801.88 928.897 1802.14 929.747 1802.14 930.877V935.017C1802.14 935.127 1802.1 935.222 1802.02 935.302C1801.94 935.382 1801.84 935.422 1801.73 935.422H1799.09C1798.98 935.422 1798.89 935.382 1798.81 935.302C1798.73 935.222 1798.69 935.127 1798.69 935.017V930.982C1798.69 930.432 1798.49 930.157 1798.09 930.157ZM1812.33 930.937V932.122C1812.33 933.242 1812.03 934.097 1811.43 934.687C1810.83 935.277 1810.09 935.572 1809.22 935.572C1808.36 935.572 1807.67 935.337 1807.15 934.867V937.867C1807.15 937.977 1807.11 938.072 1807.03 938.152C1806.95 938.232 1806.86 938.272 1806.75 938.272H1803.97C1803.86 938.272 1803.77 938.232 1803.69 938.152C1803.61 938.072 1803.57 937.977 1803.57 937.867V928.027C1803.57 927.917 1803.61 927.822 1803.69 927.742C1803.77 927.662 1803.86 927.622 1803.97 927.622H1806.52C1806.63 927.622 1806.73 927.662 1806.81 927.742C1806.89 927.822 1806.93 927.917 1806.93 928.027V928.477C1807.45 927.807 1808.18 927.472 1809.13 927.472C1810.08 927.472 1810.85 927.757 1811.44 928.327C1812.03 928.887 1812.33 929.757 1812.33 930.937ZM1807.15 931.027V932.137C1807.18 932.637 1807.43 932.887 1807.9 932.887C1808.4 932.887 1808.65 932.597 1808.65 932.017V931.027C1808.65 930.447 1808.4 930.157 1807.9 930.157C1807.4 930.157 1807.15 930.447 1807.15 931.027ZM1816.69 935.422H1814.01C1813.9 935.422 1813.8 935.382 1813.72 935.302C1813.64 935.222 1813.6 935.127 1813.6 935.017V925.177C1813.6 925.067 1813.64 924.972 1813.72 924.892C1813.8 924.812 1813.9 924.772 1814.01 924.772H1816.69C1816.8 924.772 1816.9 924.812 1816.98 924.892C1817.06 924.972 1817.1 925.067 1817.1 925.177V935.017C1817.1 935.127 1817.06 935.222 1816.98 935.302C1816.9 935.382 1816.8 935.422 1816.69 935.422ZM1818.37 932.032V931.012C1818.37 929.872 1818.78 928.997 1819.59 928.387C1820.4 927.777 1821.44 927.472 1822.72 927.472C1824 927.472 1825.05 927.777 1825.86 928.387C1826.67 928.997 1827.07 929.872 1827.07 931.012V932.032C1827.07 933.182 1826.68 934.062 1825.9 934.672C1825.12 935.272 1824.06 935.572 1822.72 935.572C1821.38 935.572 1820.32 935.272 1819.54 934.672C1818.76 934.062 1818.37 933.182 1818.37 932.032ZM1823.4 932.152V930.892C1823.4 930.512 1823.35 930.247 1823.25 930.097C1823.15 929.947 1822.97 929.872 1822.72 929.872C1822.47 929.872 1822.3 929.947 1822.2 930.097C1822.1 930.247 1822.05 930.512 1822.05 930.892V932.152C1822.05 932.552 1822.1 932.822 1822.2 932.962C1822.3 933.102 1822.47 933.172 1822.72 933.172C1822.97 933.172 1823.15 933.097 1823.25 932.947C1823.35 932.797 1823.4 932.532 1823.4 932.152ZM1828.2 927.622H1830.74C1830.97 927.622 1831.13 927.742 1831.22 927.982L1832.45 931.402L1833.72 927.982C1833.82 927.742 1833.99 927.622 1834.23 927.622H1836.74C1836.83 927.622 1836.91 927.657 1836.98 927.727C1837.05 927.787 1837.08 927.852 1837.08 927.922C1837.08 927.992 1837.08 928.047 1837.07 928.087L1832.84 937.912C1832.74 938.152 1832.56 938.272 1832.31 938.272H1829.85C1829.76 938.272 1829.68 938.242 1829.61 938.182C1829.55 938.122 1829.52 938.047 1829.52 937.957C1829.52 937.877 1829.53 937.827 1829.54 937.807L1830.74 934.927L1827.84 928.087C1827.83 928.057 1827.83 928.022 1827.83 927.982C1827.87 927.742 1827.99 927.622 1828.2 927.622Z" fill="#15207B"/>
<path d="M1788.51 1081.84V1083.03C1788.51 1084.15 1788.21 1085 1787.61 1085.59C1787.01 1086.18 1786.28 1086.48 1785.41 1086.48C1784.55 1086.48 1783.86 1086.24 1783.34 1085.77V1088.77C1783.34 1088.88 1783.3 1088.98 1783.22 1089.06C1783.14 1089.14 1783.04 1089.18 1782.93 1089.18H1780.16C1780.05 1089.18 1779.95 1089.14 1779.87 1089.06C1779.79 1088.98 1779.75 1088.88 1779.75 1088.77V1078.93C1779.75 1078.82 1779.79 1078.73 1779.87 1078.65C1779.95 1078.57 1780.05 1078.53 1780.16 1078.53H1782.71C1782.82 1078.53 1782.91 1078.57 1782.99 1078.65C1783.07 1078.73 1783.11 1078.82 1783.11 1078.93V1079.38C1783.63 1078.71 1784.37 1078.38 1785.32 1078.38C1786.27 1078.38 1787.04 1078.66 1787.63 1079.23C1788.22 1079.79 1788.51 1080.66 1788.51 1081.84ZM1783.34 1081.93V1083.04C1783.37 1083.54 1783.62 1083.79 1784.09 1083.79C1784.59 1083.79 1784.84 1083.5 1784.84 1082.92V1081.93C1784.84 1081.35 1784.59 1081.06 1784.09 1081.06C1783.59 1081.06 1783.34 1081.35 1783.34 1081.93ZM1793.07 1078.93V1079.46C1793.77 1078.84 1794.55 1078.53 1795.41 1078.53H1796.13C1796.24 1078.53 1796.33 1078.57 1796.41 1078.65C1796.49 1078.73 1796.53 1078.82 1796.53 1078.93V1081.27C1796.53 1081.38 1796.49 1081.48 1796.41 1081.56C1796.33 1081.64 1796.24 1081.68 1796.13 1081.68H1794.19C1793.92 1081.68 1793.71 1081.74 1793.55 1081.87C1793.4 1081.99 1793.31 1082.16 1793.29 1082.37V1085.92C1793.29 1086.03 1793.25 1086.13 1793.17 1086.21C1793.09 1086.29 1793 1086.33 1792.89 1086.33H1790.04C1789.93 1086.33 1789.83 1086.29 1789.75 1086.21C1789.67 1086.13 1789.63 1086.03 1789.63 1085.92V1078.93C1789.63 1078.82 1789.67 1078.73 1789.75 1078.65C1789.83 1078.57 1789.93 1078.53 1790.04 1078.53H1792.66C1792.77 1078.53 1792.87 1078.57 1792.95 1078.65C1793.03 1078.73 1793.07 1078.82 1793.07 1078.93ZM1797.51 1082.94V1081.92C1797.51 1080.78 1797.92 1079.9 1798.73 1079.29C1799.54 1078.68 1800.58 1078.38 1801.86 1078.38C1803.14 1078.38 1804.19 1078.68 1805 1079.29C1805.81 1079.9 1806.21 1080.78 1806.21 1081.92V1082.94C1806.21 1084.09 1805.82 1084.97 1805.04 1085.58C1804.26 1086.18 1803.2 1086.48 1801.86 1086.48C1800.52 1086.48 1799.46 1086.18 1798.68 1085.58C1797.9 1084.97 1797.51 1084.09 1797.51 1082.94ZM1802.54 1083.06V1081.8C1802.54 1081.42 1802.49 1081.15 1802.39 1081C1802.29 1080.85 1802.11 1080.78 1801.86 1080.78C1801.61 1080.78 1801.44 1080.85 1801.34 1081C1801.24 1081.15 1801.19 1081.42 1801.19 1081.8V1083.06C1801.19 1083.46 1801.24 1083.73 1801.34 1083.87C1801.44 1084.01 1801.61 1084.08 1801.86 1084.08C1802.11 1084.08 1802.29 1084 1802.39 1083.85C1802.49 1083.7 1802.54 1083.44 1802.54 1083.06ZM1816.25 1081.84V1083.03C1816.25 1084.15 1815.95 1085 1815.35 1085.59C1814.75 1086.18 1814.02 1086.48 1813.15 1086.48C1812.29 1086.48 1811.6 1086.24 1811.08 1085.77V1088.77C1811.08 1088.88 1811.04 1088.98 1810.96 1089.06C1810.88 1089.14 1810.78 1089.18 1810.67 1089.18H1807.9C1807.79 1089.18 1807.69 1089.14 1807.61 1089.06C1807.53 1088.98 1807.49 1088.88 1807.49 1088.77V1078.93C1807.49 1078.82 1807.53 1078.73 1807.61 1078.65C1807.69 1078.57 1807.79 1078.53 1807.9 1078.53H1810.45C1810.56 1078.53 1810.65 1078.57 1810.73 1078.65C1810.81 1078.73 1810.85 1078.82 1810.85 1078.93V1079.38C1811.37 1078.71 1812.11 1078.38 1813.06 1078.38C1814.01 1078.38 1814.78 1078.66 1815.37 1079.23C1815.96 1079.79 1816.25 1080.66 1816.25 1081.84ZM1811.08 1081.93V1083.04C1811.11 1083.54 1811.36 1083.79 1811.83 1083.79C1812.33 1083.79 1812.58 1083.5 1812.58 1082.92V1081.93C1812.58 1081.35 1812.33 1081.06 1811.83 1081.06C1811.33 1081.06 1811.08 1081.35 1811.08 1081.93ZM1825.45 1083.31H1820.98V1083.39C1820.98 1084 1821.17 1084.3 1821.56 1084.3C1821.67 1084.3 1821.81 1084.22 1821.97 1084.06C1822.13 1083.9 1822.3 1083.82 1822.49 1083.82H1825.33C1825.55 1083.82 1825.66 1083.93 1825.66 1084.15C1825.66 1084.64 1825.29 1085.15 1824.55 1085.68C1823.82 1086.21 1822.82 1086.48 1821.56 1086.48C1820.31 1086.48 1819.29 1086.15 1818.49 1085.5C1817.7 1084.84 1817.3 1083.94 1817.3 1082.79V1082.07C1817.3 1080.98 1817.71 1080.09 1818.52 1079.41C1819.33 1078.72 1820.39 1078.38 1821.7 1078.38C1823.02 1078.38 1824.04 1078.76 1824.76 1079.53C1825.49 1080.3 1825.85 1081.28 1825.85 1082.46V1082.91C1825.85 1083.02 1825.81 1083.11 1825.73 1083.19C1825.65 1083.27 1825.56 1083.31 1825.45 1083.31ZM1822.18 1081.38C1822.18 1080.78 1821.98 1080.48 1821.58 1080.48C1821.18 1080.48 1820.98 1080.78 1820.98 1081.38V1081.44H1822.18V1081.38ZM1830.41 1078.93V1079.46C1831.11 1078.84 1831.89 1078.53 1832.75 1078.53H1833.47C1833.58 1078.53 1833.67 1078.57 1833.75 1078.65C1833.83 1078.73 1833.87 1078.82 1833.87 1078.93V1081.27C1833.87 1081.38 1833.83 1081.48 1833.75 1081.56C1833.67 1081.64 1833.58 1081.68 1833.47 1081.68H1831.53C1831.26 1081.68 1831.05 1081.74 1830.89 1081.87C1830.74 1081.99 1830.65 1082.16 1830.63 1082.37V1085.92C1830.63 1086.03 1830.59 1086.13 1830.51 1086.21C1830.43 1086.29 1830.34 1086.33 1830.23 1086.33H1827.38C1827.27 1086.33 1827.17 1086.29 1827.09 1086.21C1827.01 1086.13 1826.97 1086.03 1826.97 1085.92V1078.93C1826.97 1078.82 1827.01 1078.73 1827.09 1078.65C1827.17 1078.57 1827.27 1078.53 1827.38 1078.53H1830C1830.11 1078.53 1830.21 1078.57 1830.29 1078.65C1830.37 1078.73 1830.41 1078.82 1830.41 1078.93ZM1839.58 1081.15V1082.8C1839.58 1083.3 1839.79 1083.55 1840.22 1083.55H1841.59C1841.7 1083.55 1841.79 1083.59 1841.87 1083.67C1841.95 1083.75 1841.99 1083.85 1841.99 1083.96V1085.92C1841.99 1086.03 1841.95 1086.13 1841.87 1086.21C1841.79 1086.29 1841.7 1086.33 1841.59 1086.33H1839.89C1837.39 1086.33 1836.14 1085.25 1836.14 1083.1V1081.15H1834.96C1834.85 1081.15 1834.75 1081.11 1834.67 1081.03C1834.59 1080.95 1834.55 1080.86 1834.55 1080.75V1078.93C1834.55 1078.82 1834.59 1078.73 1834.67 1078.65C1834.75 1078.57 1834.85 1078.53 1834.96 1078.53H1836.14V1076.08C1836.14 1075.97 1836.18 1075.88 1836.26 1075.8C1836.34 1075.72 1836.44 1075.68 1836.55 1075.68H1839.17C1839.28 1075.68 1839.38 1075.72 1839.46 1075.8C1839.54 1075.88 1839.58 1075.97 1839.58 1076.08V1078.53H1841.47C1841.58 1078.53 1841.67 1078.57 1841.75 1078.65C1841.83 1078.73 1841.87 1078.82 1841.87 1078.93V1080.75C1841.87 1080.86 1841.83 1080.95 1841.75 1081.03C1841.67 1081.11 1841.58 1081.15 1841.47 1081.15H1839.58ZM1842.9 1078.53H1845.43C1845.66 1078.53 1845.82 1078.65 1845.91 1078.89L1847.14 1082.31L1848.42 1078.89C1848.52 1078.65 1848.69 1078.53 1848.93 1078.53H1851.43C1851.52 1078.53 1851.6 1078.56 1851.67 1078.63C1851.74 1078.69 1851.78 1078.76 1851.78 1078.83C1851.78 1078.9 1851.77 1078.95 1851.76 1078.99L1847.53 1088.82C1847.43 1089.06 1847.26 1089.18 1847.01 1089.18H1844.55C1844.46 1089.18 1844.38 1089.15 1844.31 1089.09C1844.25 1089.03 1844.22 1088.95 1844.22 1088.86C1844.22 1088.78 1844.22 1088.73 1844.23 1088.71L1845.43 1085.83L1842.54 1078.99C1842.53 1078.96 1842.52 1078.93 1842.52 1078.89C1842.56 1078.65 1842.69 1078.53 1842.9 1078.53Z" fill="#15207B"/>
<path d="M1787.51 1006.39V1007.57C1787.51 1008.69 1787.21 1009.55 1786.61 1010.14C1786.01 1010.73 1785.28 1011.02 1784.41 1011.02C1783.55 1011.02 1782.86 1010.79 1782.34 1010.32V1013.32C1782.34 1013.43 1782.3 1013.52 1782.22 1013.6C1782.14 1013.68 1782.04 1013.72 1781.93 1013.72H1779.16C1779.05 1013.72 1778.95 1013.68 1778.87 1013.6C1778.79 1013.52 1778.75 1013.43 1778.75 1013.32V1003.48C1778.75 1003.37 1778.79 1003.27 1778.87 1003.19C1778.95 1003.11 1779.05 1003.07 1779.16 1003.07H1781.71C1781.82 1003.07 1781.91 1003.11 1781.99 1003.19C1782.07 1003.27 1782.11 1003.37 1782.11 1003.48V1003.93C1782.63 1003.26 1783.37 1002.92 1784.32 1002.92C1785.27 1002.92 1786.04 1003.21 1786.63 1003.78C1787.22 1004.34 1787.51 1005.21 1787.51 1006.39ZM1782.34 1006.48V1007.59C1782.37 1008.09 1782.62 1008.34 1783.09 1008.34C1783.59 1008.34 1783.84 1008.05 1783.84 1007.47V1006.48C1783.84 1005.9 1783.59 1005.61 1783.09 1005.61C1782.59 1005.61 1782.34 1005.9 1782.34 1006.48ZM1788.71 1007.62V1003.48C1788.71 1003.37 1788.75 1003.27 1788.83 1003.19C1788.91 1003.11 1789 1003.07 1789.11 1003.07H1791.98C1792.09 1003.07 1792.18 1003.11 1792.26 1003.19C1792.34 1003.27 1792.38 1003.37 1792.38 1003.48V1007.51C1792.38 1008.06 1792.63 1008.34 1793.13 1008.34C1793.63 1008.34 1793.88 1008.06 1793.88 1007.51V1003.48C1793.88 1003.37 1793.92 1003.27 1794 1003.19C1794.08 1003.11 1794.18 1003.07 1794.29 1003.07H1797.14C1797.25 1003.07 1797.34 1003.11 1797.42 1003.19C1797.5 1003.27 1797.54 1003.37 1797.54 1003.48V1010.47C1797.54 1010.58 1797.5 1010.67 1797.42 1010.75C1797.34 1010.83 1797.25 1010.87 1797.14 1010.87H1794.51C1794.4 1010.87 1794.31 1010.83 1794.23 1010.75C1794.15 1010.67 1794.11 1010.58 1794.11 1010.47V1009.97C1793.64 1010.67 1792.81 1011.02 1791.62 1011.02C1790.8 1011.02 1790.11 1010.74 1789.55 1010.17C1788.99 1009.59 1788.71 1008.74 1788.71 1007.62ZM1802.32 1003.48V1004C1803.02 1003.38 1803.8 1003.07 1804.66 1003.07H1805.38C1805.49 1003.07 1805.59 1003.11 1805.67 1003.19C1805.75 1003.27 1805.79 1003.37 1805.79 1003.48V1005.82C1805.79 1005.93 1805.75 1006.02 1805.67 1006.1C1805.59 1006.18 1805.49 1006.22 1805.38 1006.22H1803.45C1803.18 1006.22 1802.96 1006.29 1802.8 1006.42C1802.65 1006.54 1802.57 1006.7 1802.55 1006.91V1010.47C1802.55 1010.58 1802.51 1010.67 1802.43 1010.75C1802.35 1010.83 1802.25 1010.87 1802.14 1010.87H1799.29C1799.18 1010.87 1799.09 1010.83 1799.01 1010.75C1798.93 1010.67 1798.89 1010.58 1798.89 1010.47V1003.48C1798.89 1003.37 1798.93 1003.27 1799.01 1003.19C1799.09 1003.11 1799.18 1003.07 1799.29 1003.07H1801.92C1802.03 1003.07 1802.12 1003.11 1802.2 1003.19C1802.28 1003.27 1802.32 1003.37 1802.32 1003.48ZM1810.44 1006.45V1007.5C1810.44 1007.84 1810.49 1008.08 1810.58 1008.23C1810.67 1008.38 1810.81 1008.46 1811 1008.46C1811.19 1008.46 1811.32 1008.43 1811.39 1008.37C1811.46 1008.3 1811.53 1008.17 1811.6 1007.99C1811.68 1007.8 1811.82 1007.71 1812.03 1007.71H1814.96C1815.07 1007.71 1815.16 1007.75 1815.24 1007.83C1815.32 1007.91 1815.36 1008.01 1815.36 1008.14C1815.36 1008.27 1815.32 1008.45 1815.23 1008.67C1815.14 1008.89 1814.98 1009.14 1814.76 1009.42C1814.54 1009.7 1814.27 1009.96 1813.95 1010.2C1813.63 1010.43 1813.21 1010.62 1812.69 1010.78C1812.17 1010.94 1811.6 1011.02 1810.97 1011.02C1809.72 1011.02 1808.7 1010.7 1807.92 1010.05C1807.15 1009.39 1806.77 1008.48 1806.77 1007.32V1006.63C1806.77 1005.47 1807.15 1004.56 1807.92 1003.91C1808.7 1003.25 1809.72 1002.92 1810.97 1002.92C1811.71 1002.92 1812.38 1003.04 1812.98 1003.27C1813.58 1003.49 1814.04 1003.76 1814.36 1004.09C1814.69 1004.41 1814.94 1004.73 1815.11 1005.04C1815.28 1005.35 1815.36 1005.59 1815.36 1005.76C1815.36 1005.92 1815.32 1006.04 1815.24 1006.12C1815.16 1006.2 1815.07 1006.24 1814.96 1006.24H1812.03C1811.84 1006.24 1811.7 1006.14 1811.6 1005.94C1811.46 1005.64 1811.27 1005.49 1811.04 1005.49C1810.64 1005.49 1810.44 1005.81 1810.44 1006.45ZM1820.29 1006.43V1010.47C1820.29 1010.58 1820.25 1010.67 1820.17 1010.75C1820.09 1010.83 1820 1010.87 1819.89 1010.87H1816.96C1816.85 1010.87 1816.76 1010.83 1816.68 1010.75C1816.6 1010.67 1816.56 1010.58 1816.56 1010.47V1000.63C1816.56 1000.52 1816.6 1000.42 1816.68 1000.34C1816.76 1000.26 1816.85 1000.22 1816.96 1000.22H1819.89C1820 1000.22 1820.09 1000.26 1820.17 1000.34C1820.25 1000.42 1820.29 1000.52 1820.29 1000.63V1003.85C1820.86 1003.23 1821.59 1002.92 1822.48 1002.92C1823.37 1002.92 1824.11 1003.21 1824.69 1003.79C1825.27 1004.37 1825.56 1005.22 1825.56 1006.33V1010.45C1825.56 1010.56 1825.52 1010.66 1825.44 1010.74C1825.36 1010.82 1825.26 1010.86 1825.15 1010.86H1822.21C1822.1 1010.86 1822.01 1010.82 1821.93 1010.74C1821.85 1010.66 1821.81 1010.56 1821.81 1010.45V1006.43C1821.81 1005.88 1821.55 1005.61 1821.04 1005.61C1820.54 1005.61 1820.29 1005.88 1820.29 1006.43ZM1826.76 1008.64C1826.76 1007.29 1827.86 1006.42 1830.05 1006.04L1831.64 1005.79C1831.64 1005.49 1831.61 1005.29 1831.56 1005.19C1831.51 1005.08 1831.39 1005.02 1831.2 1005.02C1831.02 1005.02 1830.84 1005.1 1830.66 1005.26C1830.48 1005.42 1830.31 1005.5 1830.15 1005.5H1827.6C1827.38 1005.5 1827.27 1005.4 1827.27 1005.19C1827.27 1004.97 1827.35 1004.74 1827.5 1004.5C1827.66 1004.25 1827.88 1004 1828.17 1003.76C1828.47 1003.52 1828.89 1003.32 1829.42 1003.16C1829.96 1003 1830.56 1002.92 1831.22 1002.92C1832.56 1002.92 1833.56 1003.2 1834.23 1003.76C1834.9 1004.32 1835.24 1005.12 1835.24 1006.16V1010.47C1835.24 1010.58 1835.2 1010.67 1835.12 1010.75C1835.04 1010.83 1834.94 1010.87 1834.83 1010.87H1832.21C1832.1 1010.87 1832 1010.83 1831.92 1010.75C1831.84 1010.67 1831.8 1010.58 1831.8 1010.47V1010.05C1831.33 1010.7 1830.65 1011.02 1829.75 1011.02C1828.85 1011.02 1828.12 1010.8 1827.57 1010.35C1827.03 1009.89 1826.76 1009.32 1826.76 1008.64ZM1830.71 1008.8C1831.36 1008.8 1831.68 1008.41 1831.68 1007.63L1830.8 1007.83C1830.36 1007.93 1830.14 1008.11 1830.14 1008.38C1830.14 1008.5 1830.19 1008.6 1830.29 1008.68C1830.39 1008.76 1830.53 1008.8 1830.71 1008.8ZM1840.81 1008.71C1840.81 1008.61 1840.79 1008.53 1840.74 1008.47C1840.61 1008.31 1840.13 1008.16 1839.3 1008.01C1838.47 1007.85 1837.79 1007.57 1837.27 1007.18C1836.76 1006.78 1836.51 1006.23 1836.51 1005.52C1836.51 1004.81 1836.85 1004.2 1837.53 1003.69C1838.21 1003.18 1839.12 1002.92 1840.27 1002.92C1841.43 1002.92 1842.38 1003.16 1843.12 1003.64C1843.86 1004.12 1844.23 1004.61 1844.23 1005.1C1844.23 1005.21 1844.2 1005.3 1844.13 1005.38C1844.07 1005.46 1843.99 1005.5 1843.9 1005.5H1841.38C1841.23 1005.5 1841.05 1005.42 1840.83 1005.26C1840.61 1005.1 1840.44 1005.02 1840.33 1005.02C1840.1 1005.02 1839.99 1005.1 1839.99 1005.26C1839.99 1005.36 1840.01 1005.44 1840.06 1005.5C1840.19 1005.65 1840.74 1005.8 1841.7 1005.94C1842.66 1006.08 1843.37 1006.39 1843.84 1006.87C1844.32 1007.34 1844.56 1007.86 1844.56 1008.44C1844.56 1009.25 1844.2 1009.89 1843.47 1010.35C1842.74 1010.81 1841.7 1011.04 1840.36 1011.04C1839.65 1011.04 1839.02 1010.96 1838.47 1010.8C1837.92 1010.64 1837.5 1010.44 1837.21 1010.2C1836.64 1009.73 1836.36 1009.29 1836.36 1008.88C1836.36 1008.77 1836.39 1008.67 1836.46 1008.59C1836.53 1008.51 1836.62 1008.47 1836.72 1008.47H1839.33C1839.47 1008.47 1839.65 1008.55 1839.87 1008.71C1840.1 1008.86 1840.31 1008.94 1840.51 1008.94C1840.71 1008.94 1840.81 1008.86 1840.81 1008.71ZM1853.63 1007.86H1849.16V1007.93C1849.16 1008.54 1849.35 1008.85 1849.74 1008.85C1849.85 1008.85 1849.99 1008.77 1850.15 1008.61C1850.31 1008.45 1850.48 1008.37 1850.67 1008.37H1853.51C1853.73 1008.37 1853.84 1008.48 1853.84 1008.7C1853.84 1009.19 1853.47 1009.7 1852.73 1010.23C1852 1010.76 1851 1011.02 1849.74 1011.02C1848.49 1011.02 1847.47 1010.7 1846.67 1010.05C1845.88 1009.39 1845.48 1008.48 1845.48 1007.33V1006.61C1845.48 1005.52 1845.89 1004.64 1846.7 1003.96C1847.51 1003.27 1848.57 1002.92 1849.88 1002.92C1851.2 1002.92 1852.22 1003.31 1852.94 1004.08C1853.67 1004.85 1854.03 1005.82 1854.03 1007V1007.45C1854.03 1007.56 1853.99 1007.66 1853.91 1007.74C1853.83 1007.82 1853.74 1007.86 1853.63 1007.86ZM1850.36 1005.92C1850.36 1005.32 1850.16 1005.02 1849.76 1005.02C1849.36 1005.02 1849.16 1005.32 1849.16 1005.92V1005.98H1850.36V1005.92Z" fill="#15207B"/>
<line y1="-2.5" x2="847.008" y2="-2.5" transform="matrix(0.99999 0.00456821 -0.00488199 0.999988 0 1000.74)" stroke="#141F7B" stroke-width="5"/>
<line x1="1054" y1="1004.05" x2="1429" y2="1004.05" stroke="#141F7B" stroke-width="5"/>
<line x1="1576" y1="629.689" x2="1627" y2="629.689" stroke="#141F7B" stroke-width="5"/>
<line x1="1334" y1="629.689" x2="1537" y2="629.689" stroke="#141F7B" stroke-width="5"/>
<rect x="844.5" y="972.125" width="208" height="66.9091" rx="33.4545" stroke="#141F7B" stroke-width="5"/>
<rect x="1745.5" y="915.053" width="122" height="31.1179" rx="15.5589" stroke="#141F7B" stroke-width="5"/>
<rect x="1746.5" y="1065.96" width="122" height="31.1179" rx="15.5589" stroke="#141F7B" stroke-width="5"/>
<rect x="1746.5" y="990.504" width="122" height="31.1179" rx="15.5589" stroke="#141F7B" stroke-width="5"/>
<rect x="1402.5" y="973.125" width="229" height="64.9091" rx="32.4545" fill="#141F7B" stroke="#141F7B" stroke-width="3"/>
<path d="M914.44 994.433H919.928C920.133 994.433 920.311 994.508 920.46 994.657C920.609 994.807 920.684 994.984 920.684 995.189V1006.45C920.684 1009.06 919.872 1011.03 918.248 1012.35C916.624 1013.66 914.412 1014.31 911.612 1014.31C908.831 1014.31 906.619 1013.66 904.976 1012.35C903.352 1011.05 902.54 1009.08 902.54 1006.45V995.189C902.54 994.984 902.615 994.807 902.764 994.657C902.913 994.508 903.091 994.433 903.296 994.433H908.784C908.989 994.433 909.167 994.508 909.316 994.657C909.465 994.807 909.54 994.984 909.54 995.189V1006.53C909.54 1007.97 910.231 1008.69 911.612 1008.69C912.993 1008.69 913.684 1007.97 913.684 1006.53V995.189C913.684 994.984 913.759 994.807 913.908 994.657C914.057 994.508 914.235 994.433 914.44 994.433ZM924.795 994.433H933.139C935.827 994.433 937.927 995.012 939.439 996.169C940.951 997.327 941.707 999.035 941.707 1001.29C941.707 1003.55 940.951 1005.22 939.439 1006.31C937.945 1007.39 935.845 1007.93 933.139 1007.93H931.319V1013.28C931.319 1013.48 931.244 1013.66 931.095 1013.81C930.945 1013.96 930.768 1014.03 930.563 1014.03H924.795C924.589 1014.03 924.412 1013.96 924.263 1013.81C924.113 1013.66 924.039 1013.48 924.039 1013.28V995.189C924.039 994.984 924.113 994.807 924.263 994.657C924.412 994.508 924.589 994.433 924.795 994.433ZM931.179 999.641V1002.75H933.139C933.475 1002.75 933.773 1002.63 934.035 1002.39C934.296 1002.12 934.427 1001.76 934.427 1001.29C934.427 1000.83 934.324 1000.43 934.119 1000.12C933.913 999.8 933.587 999.641 933.139 999.641H931.179ZM951.467 1008.29H959.223C959.428 1008.29 959.606 1008.37 959.755 1008.52C959.904 1008.67 959.979 1008.84 959.979 1009.05V1013.28C959.979 1013.48 959.904 1013.66 959.755 1013.81C959.606 1013.96 959.428 1014.03 959.223 1014.03H945.111C944.906 1014.03 944.728 1013.96 944.579 1013.81C944.43 1013.66 944.355 1013.48 944.355 1013.28V995.189C944.355 994.984 944.43 994.807 944.579 994.657C944.728 994.508 944.906 994.433 945.111 994.433H950.711C950.916 994.433 951.094 994.508 951.243 994.657C951.392 994.807 951.467 994.984 951.467 995.189V1008.29ZM964.499 996.225C966.217 994.844 968.485 994.153 971.303 994.153C974.122 994.153 976.381 994.853 978.079 996.253C979.797 997.635 980.655 999.585 980.655 1002.11V1006.47C980.655 1009.03 979.806 1010.98 978.107 1012.33C976.427 1013.65 974.159 1014.31 971.303 1014.31C968.447 1014.31 966.17 1013.65 964.471 1012.33C962.791 1010.98 961.951 1009.03 961.951 1006.47V1002.11C961.951 999.567 962.801 997.607 964.499 996.225ZM969.791 1008.29C970.165 1008.67 970.669 1008.85 971.303 1008.85C971.938 1008.85 972.442 1008.67 972.815 1008.29C973.189 1007.92 973.375 1007.35 973.375 1006.59V1001.88C973.375 1001.13 973.189 1000.57 972.815 1000.2C972.442 999.809 971.938 999.613 971.303 999.613C970.669 999.613 970.165 999.809 969.791 1000.2C969.418 1000.57 969.231 1001.13 969.231 1001.88V1006.59C969.231 1007.35 969.418 1007.92 969.791 1008.29ZM989.862 994.433H995.938C996.61 994.433 997.03 994.741 997.198 995.357L1003.44 1013.22C1003.46 1013.28 1003.47 1013.37 1003.47 1013.5C1003.47 1013.61 1003.4 1013.73 1003.27 1013.87C1003.16 1013.98 1003.02 1014.03 1002.85 1014.03H997.674C997.114 1014.03 996.75 1013.8 996.582 1013.33L995.91 1011.49H989.89L989.218 1013.33C989.05 1013.8 988.686 1014.03 988.126 1014.03H982.946C982.778 1014.03 982.629 1013.98 982.498 1013.87C982.386 1013.73 982.33 1013.61 982.33 1013.5C982.33 1013.37 982.339 1013.28 982.358 1013.22L988.602 995.357C988.77 994.741 989.19 994.433 989.862 994.433ZM991.318 1006.03H994.482L992.886 1000.82L991.318 1006.03ZM1006.47 994.433H1014.53C1017.26 994.433 1019.5 995.115 1021.25 996.477C1023.03 997.821 1023.91 999.707 1023.91 1002.13V1006.31C1023.91 1008.84 1023.06 1010.77 1021.34 1012.07C1019.62 1013.38 1017.36 1014.03 1014.56 1014.03H1006.47C1006.27 1014.03 1006.09 1013.96 1005.94 1013.81C1005.79 1013.66 1005.71 1013.48 1005.71 1013.28V995.189C1005.71 994.984 1005.79 994.807 1005.94 994.657C1006.09 994.508 1006.27 994.433 1006.47 994.433ZM1012.71 999.893V1008.57H1014.53C1015.17 1008.57 1015.67 1008.39 1016.05 1008.01C1016.44 1007.62 1016.63 1007.05 1016.63 1006.31V1002.13C1016.63 1000.64 1015.93 999.893 1014.53 999.893H1012.71Z" fill="#15207B"/>
<path d="M879.727 1010.04H888.727V1000.43H894.727L884.227 989.227L873.727 1000.43H879.727V1010.04ZM873.727 1013.24H894.727V1016.44H873.727V1013.24Z" fill="#15207B"/>
<path d="M1695.5 593.306L1695.49 468.461V468.461C1695.5 465.263 1698.16 462.691 1701.48 462.691L1740.99 462.691" stroke="#141F7B" stroke-width="5"/>
<path d="M1745.96 930.318L1703.92 930.127L1699.05 930.164C1687.99 930.249 1679.09 939.305 1679.21 950.372L1679.66 993.562L1680.33 1057.22C1680.44 1068.24 1689.46 1077.09 1700.48 1077.01L1749 1076.64" stroke="#141F7B" stroke-width="5"/>
<line x1="1630" y1="1004.05" x2="1748" y2="1004.05" stroke="#141F7B" stroke-width="5"/>
<path d="M1763.5 936.964C1767.39 936.964 1771 934.137 1771 930.128C1771 926.118 1767.39 923.291 1763.5 923.291C1759.61 923.291 1756 926.118 1756 930.128C1756 934.137 1759.61 936.964 1763.5 936.964Z" stroke="#141F7B" stroke-width="4"/>
<path d="M1556.5 650.168C1567.95 650.168 1577.5 641.393 1577.5 630.256C1577.5 619.118 1567.95 610.344 1556.5 610.344C1545.05 610.344 1535.5 619.118 1535.5 630.256C1535.5 641.393 1545.05 650.168 1556.5 650.168Z" stroke="#141F7B" stroke-width="5"/>
<path d="M1764.5 1088.84C1768.39 1088.84 1772 1086.01 1772 1082C1772 1077.99 1768.39 1075.16 1764.5 1075.16C1760.61 1075.16 1757 1077.99 1757 1082C1757 1086.01 1760.61 1088.84 1764.5 1088.84Z" stroke="#141F7B" stroke-width="4"/>
<path d="M1764.5 1012.42C1768.39 1012.42 1772 1009.59 1772 1005.58C1772 1001.57 1768.39 998.742 1764.5 998.742C1760.61 998.742 1757 1001.57 1757 1005.58C1757 1009.59 1760.61 1012.42 1764.5 1012.42Z" stroke="#141F7B" stroke-width="4"/>
<path d="M1824.68 713.057C1768.7 712.472 1752.63 696.838 1733 659.654L1747.79 655.358V612.39L1738.32 607.48C1750.05 576.626 1765.89 553.225 1824.68 546.098V563.898C1887.52 558.57 1917.08 580.754 1927 640.012H1907.48C1909.96 693.585 1896.67 714.517 1824.68 730.858V713.057Z" fill="#04A579" stroke="#04A579" stroke-width="3"/>
<path d="M1867 1010.42L1969 1010.42C1985.57 1010.42 1999 996.985 1999 980.416L1999 621.906L1999 473.561C1999 456.992 1985.57 443.561 1969 443.561L1861 443.561" stroke="#141F7B" stroke-width="5"/>
<path d="M1811 819.852V917.552" stroke="#141F7B" stroke-width="5"/>
<path d="M1515 250.096V412.607" stroke="#141F7B" stroke-width="5"/>
<path d="M1641 215.271H1810" stroke="#141F7B" stroke-width="5"/>
<path d="M1627 615.067L1695.75 594.465L1763 615.067V647.819L1695.75 668.949L1627 647.819V615.067Z" fill="#FEFDF6" stroke="#1B267F" stroke-width="5"/>
<path d="M1209.33 607.039H1369L1339.24 630.025L1369 653.471H1209.33L1179 630.025L1209.33 607.039Z" fill="#1B267F" stroke="#1B267F" stroke-width="3"/>
<path d="M1563 620.582L1550 630.415L1563 639.929" stroke="#141F7B" stroke-width="5"/>
<rect x="1761.5" y="416.219" width="101" height="53.5838" rx="5.5" fill="#FEFDF6" stroke="#18227D" stroke-width="5"/>
<rect x="1740.5" y="432.547" width="101" height="53.5838" rx="5.5" fill="#FEFDF6" stroke="#18227D" stroke-width="5"/>
<rect x="1751.5" y="449.832" width="101" height="53.5838" rx="5.5" fill="#FEFDF6" stroke="#18227D" stroke-width="5"/>
<rect x="1761" y="467.744" width="38" height="13.5426" fill="#E7470A"/>
<line x1="1738" y1="443.061" x2="1841" y2="443.061" stroke="#141F7B"/>
<line x1="1761" y1="425.648" x2="1863" y2="425.648" stroke="#141F7B"/>
<line x1="1751" y1="459.506" x2="1854" y2="459.506" stroke="#141F7B"/>
<ellipse cx="1847" cy="421.4" rx="1" ry="0.960391" fill="#141F7B"/>
<ellipse cx="1857" cy="421.4" rx="1" ry="0.960391" fill="#141F7B"/>
<ellipse cx="1852" cy="421.4" rx="1" ry="0.960391" fill="#141F7B"/>
<ellipse cx="1826" cy="437.726" rx="1" ry="0.960391" fill="#141F7B"/>
<ellipse cx="1836" cy="437.726" rx="1" ry="0.960391" fill="#141F7B"/>
<ellipse cx="1831" cy="437.726" rx="1" ry="0.960391" fill="#141F7B"/>
<ellipse cx="1837" cy="455.011" rx="1" ry="0.960391" fill="#141F7B"/>
<ellipse cx="1847" cy="455.011" rx="1" ry="0.960391" fill="#141F7B"/>
<ellipse cx="1842" cy="455.011" rx="1" ry="0.960391" fill="#141F7B"/>
<line x1="1761" y1="489.492" x2="1799" y2="489.492" stroke="#141F7B"/>
<line y1="-0.5" x2="38.1627" y2="-0.5" transform="matrix(0.7337 0.679473 -0.708536 0.705674 1808 468.459)" stroke="#141F7B"/>
<line y1="-0.5" x2="38.1627" y2="-0.5" transform="matrix(-0.7337 0.679473 -0.708536 -0.705674 1836 468.459)" stroke="#141F7B"/>
<line x1="1761" y1="494.33" x2="1799" y2="494.33" stroke="#141F7B"/>
<rect x="1808.5" y="468.244" width="28" height="27.0526" stroke="#141F7B"/>
<rect x="1821" y="480.32" width="3" height="2.90199" fill="#141F7B"/>
<path d="M998.675 431.953H929C912.431 431.953 899 445.385 899 461.953V517.9V600.256C899 616.824 912.431 630.256 929 630.256H1183" stroke="#141F7B" stroke-width="5"/>
<path d="M1463.24 1004.35V1008.89C1463.24 1010.35 1463.9 1011.08 1465.23 1011.08C1466.26 1011.08 1466.93 1010.59 1467.26 1009.62C1467.35 1009.31 1467.46 1009.1 1467.58 1009C1467.73 1008.89 1467.95 1008.83 1468.26 1008.83H1473.77C1473.93 1008.83 1474.06 1008.9 1474.17 1009.02C1474.3 1009.13 1474.36 1009.27 1474.36 1009.43C1474.36 1010.99 1473.91 1012.31 1473.01 1013.37C1471.35 1015.35 1468.77 1016.34 1465.26 1016.34C1462.51 1016.34 1460.31 1015.74 1458.67 1014.53C1457.03 1013.31 1456.22 1011.44 1456.22 1008.92V1004.33C1456.22 1001.86 1457.05 1000.01 1458.73 998.763C1460.4 997.521 1462.58 996.9 1465.26 996.9C1468.77 996.9 1471.35 997.89 1473.01 999.87C1473.91 1000.93 1474.36 1002.25 1474.36 1003.81C1474.36 1003.97 1474.3 1004.12 1474.17 1004.24C1474.06 1004.35 1473.93 1004.41 1473.77 1004.41H1468.26C1467.97 1004.41 1467.75 1004.35 1467.61 1004.24C1467.48 1004.14 1467.37 1003.93 1467.26 1003.62C1466.92 1002.65 1466.24 1002.17 1465.23 1002.17C1463.9 1002.17 1463.24 1002.89 1463.24 1004.35ZM1482.84 997.17H1488.7C1489.35 997.17 1489.75 997.467 1489.91 998.061L1495.93 1015.29C1495.95 1015.34 1495.96 1015.43 1495.96 1015.56C1495.96 1015.67 1495.9 1015.78 1495.77 1015.91C1495.66 1016.02 1495.53 1016.07 1495.37 1016.07H1490.37C1489.83 1016.07 1489.48 1015.85 1489.32 1015.4L1488.67 1013.61H1482.87L1482.22 1015.4C1482.06 1015.85 1481.7 1016.07 1481.16 1016.07H1476.17C1476.01 1016.07 1475.86 1016.02 1475.74 1015.91C1475.63 1015.78 1475.58 1015.67 1475.58 1015.56C1475.58 1015.43 1475.58 1015.34 1475.6 1015.29L1481.62 998.061C1481.79 997.467 1482.19 997.17 1482.84 997.17ZM1484.24 1008.35H1487.29L1485.75 1003.33L1484.24 1008.35ZM1497.91 997.17H1513.73C1513.93 997.17 1514.1 997.242 1514.24 997.386C1514.39 997.53 1514.46 997.701 1514.46 997.899V1002.25C1514.46 1002.44 1514.39 1002.62 1514.24 1002.76C1514.1 1002.9 1513.93 1002.98 1513.73 1002.98H1509.25V1015.34C1509.25 1015.54 1509.18 1015.71 1509.03 1015.85C1508.89 1016 1508.72 1016.07 1508.52 1016.07H1503.12C1502.92 1016.07 1502.75 1016 1502.61 1015.85C1502.46 1015.71 1502.39 1015.54 1502.39 1015.34V1002.98H1497.91C1497.71 1002.98 1497.54 1002.9 1497.4 1002.76C1497.25 1002.62 1497.18 1002.44 1497.18 1002.25V997.899C1497.18 997.701 1497.25 997.53 1497.4 997.386C1497.54 997.242 1497.71 997.17 1497.91 997.17ZM1523.51 1010.81H1531.83C1532.02 1010.81 1532.2 1010.88 1532.34 1011.02C1532.48 1011.17 1532.56 1011.34 1532.56 1011.53V1015.34C1532.56 1015.54 1532.48 1015.71 1532.34 1015.85C1532.2 1016 1532.02 1016.07 1531.83 1016.07H1517.76C1517.56 1016.07 1517.39 1016 1517.25 1015.85C1517.1 1015.71 1517.03 1015.54 1517.03 1015.34V997.899C1517.03 997.701 1517.1 997.53 1517.25 997.386C1517.39 997.242 1517.56 997.17 1517.76 997.17H1531.61C1531.81 997.17 1531.98 997.242 1532.12 997.386C1532.27 997.53 1532.34 997.701 1532.34 997.899V1001.71C1532.34 1001.9 1532.27 1002.08 1532.12 1002.22C1531.98 1002.36 1531.81 1002.44 1531.61 1002.44H1523.51V1004.14H1531.02C1531.21 1004.14 1531.39 1004.21 1531.53 1004.35C1531.67 1004.5 1531.75 1004.67 1531.75 1004.87V1008.38C1531.75 1008.57 1531.67 1008.74 1531.53 1008.89C1531.39 1009.03 1531.21 1009.1 1531.02 1009.1H1523.51V1010.81ZM1545.5 1004.68H1552.92C1553.12 1004.68 1553.29 1004.75 1553.43 1004.89C1553.58 1005.04 1553.65 1005.21 1553.65 1005.41V1008.92C1553.65 1011.29 1552.8 1013.13 1551.11 1014.42C1549.42 1015.7 1547.16 1016.34 1544.34 1016.34C1541.53 1016.34 1539.31 1015.72 1537.69 1014.48C1536.07 1013.22 1535.26 1011.34 1535.26 1008.83V1004.3C1535.26 1001.9 1536.09 1000.08 1537.75 998.817C1539.4 997.539 1541.61 996.9 1544.36 996.9C1547.13 996.9 1549.38 997.485 1551.09 998.655C1552.8 999.807 1553.65 1001.23 1553.65 1002.92C1553.65 1003.08 1553.59 1003.23 1553.46 1003.35C1553.35 1003.46 1553.22 1003.52 1553.06 1003.52H1547.09C1546.73 1003.52 1546.47 1003.42 1546.31 1003.22C1545.95 1002.75 1545.68 1002.48 1545.5 1002.41C1545.08 1002.25 1544.7 1002.17 1544.36 1002.17C1542.98 1002.17 1542.28 1002.84 1542.28 1004.19V1008.78C1542.28 1010.31 1543.02 1011.08 1544.5 1011.08C1546.01 1011.08 1546.77 1010.43 1546.77 1009.13H1545.5C1545.3 1009.13 1545.13 1009.06 1544.98 1008.92C1544.84 1008.77 1544.77 1008.6 1544.77 1008.4V1005.41C1544.77 1005.21 1544.84 1005.04 1544.98 1004.89C1545.13 1004.75 1545.3 1004.68 1545.5 1004.68ZM1558.55 998.898C1560.21 997.566 1562.39 996.9 1565.11 996.9C1567.83 996.9 1570.01 997.575 1571.65 998.925C1573.3 1000.26 1574.13 1002.14 1574.13 1004.57V1008.78C1574.13 1011.25 1573.31 1013.13 1571.67 1014.42C1570.05 1015.7 1567.87 1016.34 1565.11 1016.34C1562.36 1016.34 1560.16 1015.7 1558.52 1014.42C1556.9 1013.13 1556.09 1011.25 1556.09 1008.78V1004.57C1556.09 1002.12 1556.91 1000.23 1558.55 998.898ZM1563.65 1010.54C1564.01 1010.9 1564.5 1011.08 1565.11 1011.08C1565.72 1011.08 1566.21 1010.9 1566.57 1010.54C1566.93 1010.18 1567.11 1009.63 1567.11 1008.89V1004.35C1567.11 1003.63 1566.93 1003.09 1566.57 1002.73C1566.21 1002.35 1565.72 1002.17 1565.11 1002.17C1564.5 1002.17 1564.01 1002.35 1563.65 1002.73C1563.29 1003.09 1563.11 1003.63 1563.11 1004.35V1008.89C1563.11 1009.63 1563.29 1010.18 1563.65 1010.54ZM1594.48 1015.18C1594.54 1015.29 1594.56 1015.4 1594.56 1015.53C1594.56 1015.66 1594.5 1015.78 1594.37 1015.91C1594.27 1016.02 1594.13 1016.07 1593.97 1016.07H1588.43C1587.88 1016.07 1587.49 1015.83 1587.27 1015.34L1584.95 1010.18H1583.84V1015.34C1583.84 1015.54 1583.77 1015.71 1583.63 1015.85C1583.48 1016 1583.31 1016.07 1583.12 1016.07H1577.82C1577.63 1016.07 1577.45 1016 1577.31 1015.85C1577.17 1015.71 1577.09 1015.54 1577.09 1015.34V997.899C1577.09 997.701 1577.17 997.53 1577.31 997.386C1577.45 997.242 1577.63 997.17 1577.82 997.17H1585.82C1588.41 997.17 1590.43 997.755 1591.89 998.925C1593.35 1000.08 1594.08 1001.74 1594.08 1003.92C1594.08 1006.08 1593.11 1007.78 1591.16 1009.02L1594.48 1015.18ZM1583.84 1002.19V1005.05H1585.82C1586.21 1005.05 1586.52 1004.93 1586.73 1004.68C1586.95 1004.41 1587.06 1004.07 1587.06 1003.68C1587.06 1003.28 1586.95 1002.94 1586.73 1002.65C1586.54 1002.35 1586.23 1002.19 1585.82 1002.19H1583.84ZM1607.8 1016.07H1602.51C1602.31 1016.07 1602.14 1016 1601.99 1015.85C1601.85 1015.71 1601.78 1015.54 1601.78 1015.34V1010.02L1595.7 998.007C1595.67 997.935 1595.65 997.836 1595.65 997.71C1595.65 997.584 1595.7 997.467 1595.81 997.359C1595.94 997.233 1596.08 997.17 1596.24 997.17H1601.32C1601.86 997.17 1602.24 997.395 1602.45 997.845L1605.15 1003.27L1607.85 997.845C1608.07 997.395 1608.45 997.17 1608.99 997.17H1614.06C1614.22 997.17 1614.36 997.233 1614.47 997.359C1614.59 997.467 1614.66 997.584 1614.66 997.71C1614.66 997.836 1614.64 997.935 1614.6 998.007L1608.53 1010.02V1015.34C1608.53 1015.54 1608.46 1015.71 1608.31 1015.85C1608.17 1016 1608 1016.07 1607.8 1016.07Z" fill="#FEFDF6"/>
<path d="M1226.18 627.713C1226.18 626.013 1226.88 624.63 1228.28 623.563C1229.69 622.496 1231.54 621.963 1233.83 621.963C1236.13 621.963 1238 622.521 1239.45 623.638C1240.92 624.755 1241.65 625.921 1241.65 627.138C1241.65 627.288 1241.59 627.421 1241.48 627.538C1241.38 627.638 1241.26 627.688 1241.13 627.688H1236.13C1235.74 627.688 1235.39 627.546 1235.08 627.263C1234.76 626.98 1234.33 626.838 1233.8 626.838C1233 626.838 1232.6 627.071 1232.6 627.538C1232.6 627.788 1232.79 627.996 1233.18 628.163C1233.58 628.33 1234.31 628.48 1235.38 628.613C1237.86 628.93 1239.63 629.513 1240.68 630.363C1241.74 631.196 1242.28 632.471 1242.28 634.188C1242.28 635.888 1241.49 637.28 1239.93 638.363C1238.38 639.43 1236.34 639.963 1233.83 639.963C1231.31 639.963 1229.33 639.446 1227.9 638.413C1226.47 637.38 1225.75 636.121 1225.75 634.638C1225.75 634.488 1225.8 634.363 1225.9 634.263C1226.02 634.146 1226.15 634.088 1226.3 634.088H1231.05C1231.4 634.088 1231.78 634.255 1232.2 634.588C1232.63 634.921 1233.23 635.088 1233.98 635.088C1235.23 635.088 1235.85 634.855 1235.85 634.388C1235.85 634.088 1235.63 633.863 1235.18 633.713C1234.73 633.546 1233.88 633.38 1232.63 633.213C1228.33 632.646 1226.18 630.813 1226.18 627.713ZM1255.62 622.213H1260.52C1260.7 622.213 1260.86 622.28 1260.99 622.413C1261.13 622.546 1261.19 622.705 1261.19 622.888V639.038C1261.19 639.221 1261.13 639.38 1260.99 639.513C1260.86 639.646 1260.7 639.713 1260.52 639.713H1255.62C1255.43 639.713 1255.28 639.646 1255.14 639.513C1255.01 639.38 1254.94 639.221 1254.94 639.038V633.638H1250.89V639.038C1250.89 639.221 1250.83 639.38 1250.69 639.513C1250.56 639.646 1250.4 639.713 1250.22 639.713H1245.32C1245.13 639.713 1244.98 639.655 1244.84 639.538C1244.71 639.405 1244.64 639.238 1244.64 639.038V622.888C1244.64 622.705 1244.71 622.546 1244.84 622.413C1244.98 622.28 1245.13 622.213 1245.32 622.213H1250.22C1250.4 622.213 1250.56 622.28 1250.69 622.413C1250.83 622.546 1250.89 622.705 1250.89 622.888V628.138H1254.94V622.888C1254.94 622.705 1255.01 622.546 1255.14 622.413C1255.28 622.28 1255.43 622.213 1255.62 622.213ZM1269.92 622.213H1275.34C1275.94 622.213 1276.32 622.488 1276.47 623.038L1282.04 638.988C1282.06 639.038 1282.07 639.121 1282.07 639.238C1282.07 639.338 1282.01 639.446 1281.89 639.563C1281.79 639.663 1281.67 639.713 1281.52 639.713H1276.89C1276.39 639.713 1276.07 639.505 1275.92 639.088L1275.32 637.438H1269.94L1269.34 639.088C1269.19 639.505 1268.87 639.713 1268.37 639.713H1263.74C1263.59 639.713 1263.46 639.663 1263.34 639.563C1263.24 639.446 1263.19 639.338 1263.19 639.238C1263.19 639.121 1263.2 639.038 1263.22 638.988L1268.79 623.038C1268.94 622.488 1269.32 622.213 1269.92 622.213ZM1271.22 632.563H1274.04L1272.62 627.913L1271.22 632.563ZM1300.17 638.888C1300.22 638.988 1300.25 639.096 1300.25 639.213C1300.25 639.33 1300.19 639.446 1300.07 639.563C1299.97 639.663 1299.85 639.713 1299.7 639.713H1294.57C1294.05 639.713 1293.7 639.488 1293.5 639.038L1291.35 634.263H1290.32V639.038C1290.32 639.221 1290.25 639.38 1290.12 639.513C1289.99 639.646 1289.83 639.713 1289.65 639.713H1284.75C1284.56 639.713 1284.4 639.646 1284.27 639.513C1284.14 639.38 1284.07 639.221 1284.07 639.038V622.888C1284.07 622.705 1284.14 622.546 1284.27 622.413C1284.4 622.28 1284.56 622.213 1284.75 622.213H1292.15C1294.55 622.213 1296.42 622.755 1297.77 623.838C1299.12 624.905 1299.8 626.446 1299.8 628.463C1299.8 630.463 1298.9 632.038 1297.1 633.188L1300.17 638.888ZM1290.32 626.863V629.513H1292.15C1292.51 629.513 1292.8 629.396 1293 629.163C1293.2 628.913 1293.3 628.605 1293.3 628.238C1293.3 627.871 1293.2 627.555 1293 627.288C1292.81 627.005 1292.53 626.863 1292.15 626.863H1290.32ZM1308.63 634.838H1316.33C1316.51 634.838 1316.67 634.905 1316.8 635.038C1316.93 635.171 1317 635.33 1317 635.513V639.038C1317 639.221 1316.93 639.38 1316.8 639.513C1316.67 639.646 1316.51 639.713 1316.33 639.713H1303.3C1303.12 639.713 1302.96 639.646 1302.83 639.513C1302.69 639.38 1302.63 639.221 1302.63 639.038V622.888C1302.63 622.705 1302.69 622.546 1302.83 622.413C1302.96 622.28 1303.12 622.213 1303.3 622.213H1316.13C1316.31 622.213 1316.47 622.28 1316.6 622.413C1316.73 622.546 1316.8 622.705 1316.8 622.888V626.413C1316.8 626.596 1316.73 626.755 1316.6 626.888C1316.47 627.021 1316.31 627.088 1316.13 627.088H1308.63V628.663H1315.58C1315.76 628.663 1315.92 628.73 1316.05 628.863C1316.18 628.996 1316.25 629.155 1316.25 629.338V632.588C1316.25 632.771 1316.18 632.93 1316.05 633.063C1315.92 633.196 1315.76 633.263 1315.58 633.263H1308.63V634.838Z" fill="#FEFDF6"/>
<path d="M1431.31 996.803C1431.31 997.602 1431.03 998.368 1430.53 998.933C1430.03 999.498 1429.36 999.815 1428.65 999.815C1427.95 999.815 1427.27 999.498 1426.78 998.933C1426.28 998.368 1426 997.602 1426 996.803C1426 996.004 1426.28 995.238 1426.78 994.673C1427.27 994.108 1427.95 993.791 1428.65 993.791C1429.36 993.791 1430.03 994.108 1430.53 994.673C1431.03 995.238 1431.31 996.004 1431.31 996.803ZM1431.31 1004.84C1431.31 1005.63 1431.03 1006.4 1430.53 1006.97C1430.03 1007.53 1429.36 1007.85 1428.65 1007.85C1427.95 1007.85 1427.27 1007.53 1426.78 1006.97C1426.28 1006.4 1426 1005.63 1426 1004.84C1426 1004.04 1426.28 1003.27 1426.78 1002.71C1427.27 1002.14 1427.95 1001.82 1428.65 1001.82C1429.36 1001.82 1430.03 1002.14 1430.53 1002.71C1431.03 1003.27 1431.31 1004.04 1431.31 1004.84ZM1431.31 1012.87C1431.31 1013.67 1431.03 1014.43 1430.53 1015C1430.03 1015.56 1429.36 1015.88 1428.65 1015.88C1427.95 1015.88 1427.27 1015.56 1426.78 1015C1426.28 1014.43 1426 1013.67 1426 1012.87C1426 1012.07 1426.28 1011.3 1426.78 1010.74C1427.27 1010.17 1427.95 1009.86 1428.65 1009.86C1429.36 1009.86 1430.03 1010.17 1430.53 1010.74C1431.03 1011.3 1431.31 1012.07 1431.31 1012.87Z" fill="#FEFDF6"/>
<path fill-rule="evenodd" clip-rule="evenodd" d="M1433.08 996.803C1433.08 996.27 1433.26 995.76 1433.6 995.383C1433.93 995.006 1434.38 994.795 1434.85 994.795H1447.23C1447.7 994.795 1448.15 995.006 1448.48 995.383C1448.81 995.76 1449 996.27 1449 996.803C1449 997.336 1448.81 997.846 1448.48 998.223C1448.15 998.6 1447.7 998.811 1447.23 998.811H1434.85C1434.38 998.811 1433.93 998.6 1433.6 998.223C1433.26 997.846 1433.08 997.336 1433.08 996.803ZM1433.08 1004.84C1433.08 1004.3 1433.26 1003.79 1433.6 1003.42C1433.93 1003.04 1434.38 1002.83 1434.85 1002.83H1447.23C1447.7 1002.83 1448.15 1003.04 1448.48 1003.42C1448.81 1003.79 1449 1004.3 1449 1004.84C1449 1005.37 1448.81 1005.88 1448.48 1006.26C1448.15 1006.63 1447.7 1006.84 1447.23 1006.84H1434.85C1434.38 1006.84 1433.93 1006.63 1433.6 1006.26C1433.26 1005.88 1433.08 1005.37 1433.08 1004.84ZM1433.08 1012.87C1433.08 1012.34 1433.26 1011.82 1433.6 1011.45C1433.93 1011.07 1434.38 1010.86 1434.85 1010.86H1447.23C1447.7 1010.86 1448.15 1011.07 1448.48 1011.45C1448.81 1011.82 1449 1012.34 1449 1012.87C1449 1013.4 1448.81 1013.91 1448.48 1014.29C1448.15 1014.66 1447.7 1014.88 1447.23 1014.88H1434.85C1434.38 1014.88 1433.93 1014.66 1433.6 1014.29C1433.26 1013.91 1433.08 1013.4 1433.08 1012.87Z" fill="#FEFDF6"/>
<path d="M997 421.009L1025.81 405.07L1054 421.009V446.347L1025.81 462.694L997 446.347V421.009Z" fill="#FEFDF6" stroke="#1B267F" stroke-width="5"/>
<path d="M1132.5 462.313C1149.52 462.313 1163.5 449.033 1163.5 432.441C1163.5 415.85 1149.52 402.57 1132.5 402.57C1115.48 402.57 1101.5 415.85 1101.5 432.441C1101.5 449.033 1115.48 462.313 1132.5 462.313Z" stroke="#141F7B" stroke-width="5"/>
<rect x="1207.5" y="402.57" width="62" height="59.7423" stroke="#141F7B" stroke-width="5"/>
<rect x="-3.60623" width="54.1959" height="54.1959" transform="matrix(0.721247 -0.692678 0.721247 0.692678 1325.99 429.758)" stroke="#141F7B" stroke-width="5"/>
<line x1="1054" y1="430.924" x2="1100" y2="430.924" stroke="#141F7B" stroke-width="4"/>
<line x1="1164" y1="431.883" x2="1210" y2="431.883" stroke="#141F7B" stroke-width="4"/>
<line x1="1273" y1="431.887" x2="1320" y2="431.887" stroke="#141F7B" stroke-width="4"/>
<line x1="1403" y1="431.883" x2="1494" y2="431.883" stroke="#141F7B" stroke-width="4"/>
<line x1="1884" y1="216.756" x2="1926" y2="216.756" stroke="#141F7B" stroke-width="4"/>
<line x1="2001" y1="216.756" x2="2044" y2="216.756" stroke="#141F7B" stroke-width="4"/>
<path d="M1515.5 453.671C1527 453.671 1536.5 444.691 1536.5 433.404C1536.5 422.116 1527 413.137 1515.5 413.137C1504 413.137 1494.5 422.116 1494.5 433.404C1494.5 444.691 1504 453.671 1515.5 453.671Z" stroke="#141F7B" stroke-width="5"/>
<path d="M1505.3 427.179L1514.29 440.144L1542.94 416.45" stroke="#141F7B" stroke-width="5"/>
<path d="M1526.83 419.906L1531.38 416.152L1534.82 419.999L1530.27 423.753L1526.83 419.906Z" fill="#FEFDF6"/>
<rect width="10.1933" height="5.48365" transform="matrix(0.771196 -0.636598 0.666888 0.745158 1529.78 430.518)" fill="#FEFDF6"/>
<path d="M1645 215.271L1566.25 266.372V164.169L1645 215.271Z" fill="#E84F14"/>
<path d="M1494 216.24L1415.25 267.341V165.138L1494 216.24Z" fill="#E84F14"/>
<path d="M1532 216.24L1453.25 267.341V165.138L1532 216.24Z" fill="#E84F14"/>
<path d="M1570 216.24L1491.25 267.341V165.138L1570 216.24Z" fill="#E84F14"/>
<path d="M1608 216.24L1529.25 267.341V165.138L1608 216.24Z" fill="#E84F14"/>
<path d="M1480.65 208.195H1484.6C1484.78 208.195 1484.94 208.262 1485.08 208.395C1485.21 208.529 1485.28 208.687 1485.28 208.87V225.02C1485.28 225.204 1485.21 225.362 1485.08 225.495C1484.94 225.629 1484.78 225.695 1484.6 225.695H1480.08C1479.89 225.695 1479.73 225.629 1479.6 225.495C1479.47 225.362 1479.4 225.204 1479.4 225.02V218.17L1477.75 220.87C1477.48 221.287 1477.18 221.495 1476.83 221.495H1475.08C1474.73 221.495 1474.42 221.287 1474.15 220.87L1472.5 218.17V225.02C1472.5 225.204 1472.43 225.362 1472.3 225.495C1472.17 225.629 1472.01 225.695 1471.83 225.695H1467.3C1467.12 225.695 1466.96 225.629 1466.83 225.495C1466.69 225.362 1466.63 225.204 1466.63 225.02V208.87C1466.63 208.687 1466.69 208.529 1466.83 208.395C1466.96 208.262 1467.12 208.195 1467.3 208.195H1471.25C1471.72 208.195 1472.08 208.42 1472.33 208.87L1475.95 214.87L1479.58 208.87C1479.83 208.42 1480.18 208.195 1480.65 208.195ZM1490.3 209.795C1491.83 208.562 1493.86 207.945 1496.37 207.945C1498.89 207.945 1500.91 208.57 1502.42 209.82C1503.96 211.054 1504.72 212.795 1504.72 215.045V218.945C1504.72 221.229 1503.97 222.97 1502.45 224.17C1500.95 225.354 1498.92 225.945 1496.37 225.945C1493.82 225.945 1491.79 225.354 1490.27 224.17C1488.77 222.97 1488.02 221.229 1488.02 218.945V215.045C1488.02 212.779 1488.78 211.029 1490.3 209.795ZM1495.02 220.57C1495.36 220.904 1495.81 221.07 1496.37 221.07C1496.94 221.07 1497.39 220.904 1497.72 220.57C1498.06 220.237 1498.22 219.729 1498.22 219.045V214.845C1498.22 214.179 1498.06 213.679 1497.72 213.345C1497.39 212.995 1496.94 212.82 1496.37 212.82C1495.81 212.82 1495.36 212.995 1495.02 213.345C1494.69 213.679 1494.52 214.179 1494.52 214.845V219.045C1494.52 219.729 1494.69 220.237 1495.02 220.57ZM1508.14 208.195H1515.34C1517.78 208.195 1519.78 208.804 1521.34 210.02C1522.93 211.22 1523.72 212.904 1523.72 215.07V218.795C1523.72 221.062 1522.95 222.779 1521.42 223.945C1519.89 225.112 1517.87 225.695 1515.37 225.695H1508.14C1507.96 225.695 1507.8 225.629 1507.67 225.495C1507.54 225.362 1507.47 225.204 1507.47 225.02V208.87C1507.47 208.687 1507.54 208.529 1507.67 208.395C1507.8 208.262 1507.96 208.195 1508.14 208.195ZM1513.72 213.07V220.82H1515.34C1515.91 220.82 1516.36 220.654 1516.69 220.32C1517.04 219.97 1517.22 219.462 1517.22 218.795V215.07C1517.22 213.737 1516.59 213.07 1515.34 213.07H1513.72ZM1532.24 225.695H1527.14C1526.96 225.695 1526.8 225.629 1526.66 225.495C1526.53 225.362 1526.46 225.204 1526.46 225.02V208.87C1526.46 208.687 1526.53 208.529 1526.66 208.395C1526.8 208.262 1526.96 208.195 1527.14 208.195H1532.24C1532.42 208.195 1532.58 208.262 1532.71 208.395C1532.85 208.529 1532.91 208.687 1532.91 208.87V225.02C1532.91 225.204 1532.85 225.362 1532.71 225.495C1532.58 225.629 1532.42 225.695 1532.24 225.695ZM1536.83 208.195H1549.43C1549.61 208.195 1549.77 208.262 1549.91 208.395C1550.04 208.529 1550.11 208.687 1550.11 208.87V212.67C1550.11 212.854 1550.04 213.012 1549.91 213.145C1549.77 213.279 1549.61 213.345 1549.43 213.345H1542.28V215.195H1548.93C1549.11 215.195 1549.27 215.262 1549.41 215.395C1549.54 215.529 1549.61 215.687 1549.61 215.87V219.645C1549.61 219.829 1549.54 219.987 1549.41 220.12C1549.27 220.254 1549.11 220.32 1548.93 220.32H1542.28V225.02C1542.28 225.204 1542.21 225.362 1542.08 225.495C1541.95 225.629 1541.79 225.695 1541.61 225.695H1536.83C1536.65 225.695 1536.49 225.629 1536.36 225.495C1536.22 225.362 1536.16 225.204 1536.16 225.02V208.87C1536.16 208.687 1536.22 208.529 1536.36 208.395C1536.49 208.262 1536.65 208.195 1536.83 208.195ZM1562.61 225.695H1557.71C1557.53 225.695 1557.37 225.629 1557.23 225.495C1557.1 225.362 1557.03 225.204 1557.03 225.02V220.095L1551.41 208.97C1551.38 208.904 1551.36 208.812 1551.36 208.695C1551.36 208.579 1551.41 208.47 1551.51 208.37C1551.63 208.254 1551.76 208.195 1551.91 208.195H1556.61C1557.11 208.195 1557.46 208.404 1557.66 208.82L1560.16 213.845L1562.66 208.82C1562.86 208.404 1563.21 208.195 1563.71 208.195H1568.41C1568.56 208.195 1568.68 208.254 1568.78 208.37C1568.9 208.47 1568.96 208.579 1568.96 208.695C1568.96 208.812 1568.94 208.904 1568.91 208.97L1563.28 220.095V225.02C1563.28 225.204 1563.22 225.362 1563.08 225.495C1562.95 225.629 1562.79 225.695 1562.61 225.695Z" fill="#FEFDF6"/>
<path d="M1300.5 995.713L1258 1014.44L1300.5 1031.25L1341.5 1014.44L1300.5 995.713Z" stroke="#1B267F" stroke-width="3"/>
<path d="M1300.5 984.188L1258 1002.92L1300.5 1019.72L1341.5 1002.92L1300.5 984.188Z" fill="#FCFBEC" stroke="#1B267F" stroke-width="3"/>
<path d="M1300.5 974.584L1258 993.312L1300.5 1010.12L1341.5 993.312L1300.5 974.584Z" fill="#FCFBEC" stroke="#1B267F" stroke-width="3"/>
<path d="M1168.5 996.674L1126 1015.4L1168.5 1032.21L1209.5 1015.4L1168.5 996.674Z" fill="#FEFDF6" stroke="#1B267F" stroke-width="3"/>
<path d="M1168.5 986.109L1126 1004.84L1168.5 1021.64L1209.5 1004.84L1168.5 986.109Z" fill="#FEFDF6" stroke="#1B267F" stroke-width="3"/>
<path d="M1168.5 975.545L1126 994.273L1168.5 1011.08L1209.5 994.273L1168.5 975.545Z" fill="#FEFDF6" stroke="#1B267F" stroke-width="3"/>
<path d="M1862.08 186.979C1862.08 186.979 1864.17 188.98 1866.25 192.981C1866.25 192.981 1872.87 182.977 1878.75 180.977M1841.31 166.991C1830.9 166.571 1822.86 167.719 1822.86 167.719C1817.78 168.071 1808.05 170.8 1808.05 186.775C1808.05 202.605 1807.94 222.125 1808.05 229.908C1808.05 234.662 1811.11 245.755 1821.72 246.347C1834.62 247.067 1857.85 247.224 1868.5 246.347C1871.35 246.191 1880.85 244.042 1882.05 234.118C1883.3 223.834 1883.05 216.691 1883.05 214.99" stroke="#141F7B" stroke-width="5" stroke-linecap="round" stroke-linejoin="round"/>
<path d="M1828.75 210.991H1845.42M1828.75 226.997H1862.08M1891.33 186.981C1891.33 198.029 1882 206.989 1870.48 206.989C1867.74 206.992 1865.03 206.476 1862.5 205.472C1859.97 204.467 1857.67 202.994 1855.73 201.136C1853.8 199.278 1852.26 197.071 1851.21 194.642C1850.16 192.213 1849.62 189.61 1849.62 186.981C1849.62 175.928 1858.96 166.973 1870.48 166.973C1873.22 166.97 1875.93 167.486 1878.46 168.49C1880.99 169.494 1883.29 170.968 1885.22 172.826C1887.16 174.684 1888.7 176.891 1889.75 179.319C1890.79 181.748 1891.33 184.352 1891.33 186.981Z" stroke="#141F7B" stroke-width="5" stroke-linecap="round" stroke-linejoin="round"/>
<path d="M1981.08 186.977C1981.08 186.977 1983.17 188.978 1985.25 192.979C1985.25 192.979 1991.87 182.975 1997.75 180.975M1960.31 166.989C1949.9 166.569 1941.86 167.717 1941.86 167.717C1936.78 168.069 1927.05 170.798 1927.05 186.773C1927.05 202.603 1926.94 222.123 1927.05 229.907C1927.05 234.66 1930.11 245.753 1940.72 246.345C1953.62 247.065 1976.85 247.222 1987.5 246.345C1990.35 246.189 1999.85 244.04 2001.05 234.116C2002.3 223.832 2002.05 216.689 2002.05 214.988" stroke="#141F7B" stroke-width="5" stroke-linecap="round" stroke-linejoin="round"/>
<path d="M1947.75 210.989H1964.42M1947.75 226.995H1981.08M2010.33 186.979C2010.33 198.027 2001 206.987 1989.48 206.987C1986.74 206.99 1984.03 206.474 1981.5 205.47C1978.97 204.465 1976.67 202.992 1974.73 201.134C1972.8 199.276 1971.26 197.069 1970.21 194.64C1969.16 192.211 1968.62 189.608 1968.62 186.979C1968.62 175.926 1977.96 166.971 1989.48 166.971C1992.22 166.968 1994.93 167.484 1997.46 168.488C1999.99 169.492 2002.29 170.966 2004.22 172.824C2006.16 174.682 2007.7 176.889 2008.75 179.317C2009.79 181.746 2010.33 184.35 2010.33 186.979Z" stroke="#141F7B" stroke-width="5" stroke-linecap="round" stroke-linejoin="round"/>
<path d="M2098.08 186.977C2098.08 186.977 2100.17 188.978 2102.25 192.979C2102.25 192.979 2108.87 182.975 2114.75 180.975M2077.31 166.989C2066.9 166.569 2058.86 167.717 2058.86 167.717C2053.78 168.069 2044.05 170.798 2044.05 186.773C2044.05 202.603 2043.94 222.123 2044.05 229.907C2044.05 234.66 2047.11 245.753 2057.72 246.345C2070.62 247.065 2093.85 247.222 2104.5 246.345C2107.35 246.189 2116.85 244.04 2118.05 234.116C2119.3 223.832 2119.05 216.689 2119.05 214.988" stroke="#141F7B" stroke-width="5" stroke-linecap="round" stroke-linejoin="round"/>
<path d="M2064.75 210.989H2081.42M2064.75 226.995H2098.08M2127.33 186.979C2127.33 198.027 2118 206.987 2106.48 206.987C2103.74 206.99 2101.03 206.474 2098.5 205.47C2095.97 204.465 2093.67 202.992 2091.73 201.134C2089.8 199.276 2088.26 197.069 2087.21 194.64C2086.16 192.211 2085.62 189.608 2085.62 186.979C2085.62 175.926 2094.96 166.971 2106.48 166.971C2109.22 166.968 2111.93 167.484 2114.46 168.488C2116.99 169.492 2119.29 170.966 2121.22 172.824C2123.16 174.682 2124.7 176.889 2125.75 179.317C2126.79 181.746 2127.33 184.35 2127.33 186.979Z" stroke="#141F7B" stroke-width="5" stroke-linecap="round" stroke-linejoin="round"/>
<path d="M1643.25 624.215H1648.02C1648.55 624.215 1648.88 624.457 1649.01 624.941L1653.92 638.977C1653.93 639.021 1653.94 639.095 1653.94 639.197C1653.94 639.285 1653.89 639.381 1653.79 639.483C1653.7 639.571 1653.59 639.615 1653.46 639.615H1649.39C1648.95 639.615 1648.66 639.432 1648.53 639.065L1648 637.613H1643.27L1642.74 639.065C1642.61 639.432 1642.32 639.615 1641.88 639.615H1637.81C1637.68 639.615 1637.56 639.571 1637.46 639.483C1637.37 639.381 1637.33 639.285 1637.33 639.197C1637.33 639.095 1637.34 639.021 1637.35 638.977L1642.26 624.941C1642.39 624.457 1642.72 624.215 1643.25 624.215ZM1644.39 633.323H1646.88L1645.62 629.231L1644.39 633.323ZM1664.99 624.215H1668.97C1669.13 624.215 1669.27 624.274 1669.39 624.391C1669.5 624.509 1669.56 624.648 1669.56 624.809V639.021C1669.56 639.183 1669.5 639.322 1669.39 639.439C1669.27 639.557 1669.13 639.615 1668.97 639.615H1665.49C1665.11 639.615 1664.81 639.447 1664.59 639.109L1660.87 633.499V639.021C1660.87 639.183 1660.81 639.322 1660.7 639.439C1660.58 639.557 1660.44 639.615 1660.28 639.615H1656.3C1656.14 639.615 1656 639.557 1655.88 639.439C1655.76 639.322 1655.7 639.183 1655.7 639.021V624.809C1655.7 624.648 1655.76 624.509 1655.88 624.391C1656 624.274 1656.14 624.215 1656.3 624.215H1659.77C1660.18 624.215 1660.48 624.384 1660.68 624.721L1664.39 630.815V624.809C1664.39 624.648 1664.45 624.509 1664.57 624.391C1664.69 624.274 1664.83 624.215 1664.99 624.215ZM1677.24 624.215H1682.01C1682.54 624.215 1682.87 624.457 1683 624.941L1687.91 638.977C1687.92 639.021 1687.93 639.095 1687.93 639.197C1687.93 639.285 1687.88 639.381 1687.77 639.483C1687.69 639.571 1687.58 639.615 1687.44 639.615H1683.37C1682.93 639.615 1682.65 639.432 1682.52 639.065L1681.99 637.613H1677.26L1676.73 639.065C1676.6 639.432 1676.31 639.615 1675.87 639.615H1671.8C1671.67 639.615 1671.55 639.571 1671.45 639.483C1671.36 639.381 1671.32 639.285 1671.32 639.197C1671.32 639.095 1671.33 639.021 1671.34 638.977L1676.25 624.941C1676.38 624.457 1676.71 624.215 1677.24 624.215ZM1678.38 633.323H1680.87L1679.61 629.231L1678.38 633.323ZM1695.28 635.105H1701.37C1701.54 635.105 1701.67 635.164 1701.79 635.281C1701.91 635.399 1701.97 635.538 1701.97 635.699V639.021C1701.97 639.183 1701.91 639.322 1701.79 639.439C1701.67 639.557 1701.54 639.615 1701.37 639.615H1690.29C1690.12 639.615 1689.99 639.557 1689.87 639.439C1689.75 639.322 1689.69 639.183 1689.69 639.021V624.809C1689.69 624.648 1689.75 624.509 1689.87 624.391C1689.99 624.274 1690.12 624.215 1690.29 624.215H1694.69C1694.85 624.215 1694.99 624.274 1695.1 624.391C1695.22 624.509 1695.28 624.648 1695.28 624.809V635.105ZM1712.65 639.615H1708.34C1708.17 639.615 1708.03 639.557 1707.92 639.439C1707.8 639.322 1707.74 639.183 1707.74 639.021V634.687L1702.79 624.897C1702.76 624.839 1702.75 624.758 1702.75 624.655C1702.75 624.553 1702.79 624.457 1702.88 624.369C1702.98 624.267 1703.1 624.215 1703.23 624.215H1707.37C1707.81 624.215 1708.12 624.399 1708.29 624.765L1710.49 629.187L1712.69 624.765C1712.87 624.399 1713.18 624.215 1713.62 624.215H1717.75C1717.88 624.215 1717.99 624.267 1718.08 624.369C1718.18 624.457 1718.24 624.553 1718.24 624.655C1718.24 624.758 1718.22 624.839 1718.19 624.897L1713.24 634.687V639.021C1713.24 639.183 1713.18 639.322 1713.07 639.439C1712.95 639.557 1712.81 639.615 1712.65 639.615ZM1732.59 635.105C1732.75 635.105 1732.89 635.164 1733.01 635.281C1733.13 635.399 1733.19 635.538 1733.19 635.699V639.021C1733.19 639.183 1733.13 639.322 1733.01 639.439C1732.89 639.557 1732.75 639.615 1732.59 639.615H1720.03C1719.87 639.615 1719.73 639.557 1719.61 639.439C1719.5 639.322 1719.44 639.183 1719.44 639.021V635.853C1719.44 635.56 1719.55 635.303 1719.77 635.083L1725.93 628.681H1720.14C1719.98 628.681 1719.84 628.623 1719.72 628.505C1719.61 628.388 1719.55 628.249 1719.55 628.087V624.809C1719.55 624.648 1719.61 624.509 1719.72 624.391C1719.84 624.274 1719.98 624.215 1720.14 624.215H1732.31C1732.47 624.215 1732.61 624.274 1732.73 624.391C1732.84 624.509 1732.9 624.648 1732.9 624.809V627.933C1732.9 628.227 1732.81 628.469 1732.62 628.659L1726.79 635.105H1732.59ZM1740.88 635.325H1747.66C1747.82 635.325 1747.96 635.384 1748.08 635.501C1748.2 635.619 1748.25 635.758 1748.25 635.919V639.021C1748.25 639.183 1748.2 639.322 1748.08 639.439C1747.96 639.557 1747.82 639.615 1747.66 639.615H1736.2C1736.04 639.615 1735.9 639.557 1735.78 639.439C1735.66 639.322 1735.6 639.183 1735.6 639.021V624.809C1735.6 624.648 1735.66 624.509 1735.78 624.391C1735.9 624.274 1736.04 624.215 1736.2 624.215H1747.48C1747.65 624.215 1747.78 624.274 1747.9 624.391C1748.02 624.509 1748.08 624.648 1748.08 624.809V627.911C1748.08 628.073 1748.02 628.212 1747.9 628.329C1747.78 628.447 1747.65 628.505 1747.48 628.505H1740.88V629.891H1747C1747.16 629.891 1747.3 629.95 1747.42 630.067C1747.54 630.185 1747.59 630.324 1747.59 630.485V633.345C1747.59 633.507 1747.54 633.646 1747.42 633.763C1747.3 633.881 1747.16 633.939 1747 633.939H1740.88V635.325Z" fill="#15207B"/>
<line x1="948" y1="817.352" x2="2252" y2="817.352" stroke="#141F7B" stroke-width="5"/>
<path d="M949 817.383H938C926.954 817.383 918 826.337 918 837.383V973.658" stroke="#141F7B" stroke-width="5"/>
</svg>
