<svg width="2252" height="1092" viewBox="0 0 2252 1092" fill="none" xmlns="http://www.w3.org/2000/svg">
<path d="M0 0H2252V1092H0V0Z" fill="#FEFDF6"/>
<path d="M1787.67 864.407H1783.2V864.482C1783.2 865.092 1783.4 865.397 1783.79 865.397C1783.9 865.397 1784.03 865.317 1784.19 865.157C1784.35 864.997 1784.53 864.917 1784.72 864.917H1787.55C1787.77 864.917 1787.88 865.027 1787.88 865.247C1787.88 865.737 1787.51 866.247 1786.77 866.777C1786.04 867.307 1785.05 867.572 1783.79 867.572C1782.54 867.572 1781.51 867.247 1780.71 866.597C1779.92 865.937 1779.53 865.032 1779.53 863.882V863.162C1779.53 862.072 1779.93 861.187 1780.74 860.507C1781.55 859.817 1782.61 859.472 1783.92 859.472C1785.24 859.472 1786.26 859.857 1786.98 860.627C1787.71 861.397 1788.08 862.372 1788.08 863.552V864.002C1788.08 864.112 1788.04 864.207 1787.96 864.287C1787.88 864.367 1787.78 864.407 1787.67 864.407ZM1784.4 862.472C1784.4 861.872 1784.2 861.572 1783.8 861.572C1783.4 861.572 1783.2 861.872 1783.2 862.472V862.532H1784.4V862.472ZM1798.09 862.157C1797.93 862.157 1797.79 862.217 1797.67 862.337C1797.56 862.457 1797.5 862.637 1797.5 862.877V867.017C1797.5 867.127 1797.46 867.222 1797.38 867.302C1797.3 867.382 1797.21 867.422 1797.1 867.422H1794.46C1794.35 867.422 1794.25 867.382 1794.17 867.302C1794.09 867.222 1794.05 867.127 1794.05 867.017V862.982C1794.05 862.432 1793.85 862.157 1793.45 862.157C1793.28 862.157 1793.14 862.222 1793.02 862.352C1792.91 862.472 1792.85 862.642 1792.85 862.862V867.017C1792.85 867.127 1792.81 867.222 1792.73 867.302C1792.65 867.382 1792.56 867.422 1792.45 867.422H1789.75C1789.64 867.422 1789.54 867.382 1789.46 867.302C1789.38 867.222 1789.34 867.127 1789.34 867.017V860.027C1789.34 859.917 1789.38 859.822 1789.46 859.742C1789.54 859.662 1789.64 859.622 1789.75 859.622H1792.22C1792.33 859.622 1792.43 859.662 1792.51 859.742C1792.59 859.822 1792.63 859.917 1792.63 860.027V860.522C1792.83 860.262 1793.11 860.027 1793.48 859.817C1793.89 859.587 1794.35 859.472 1794.86 859.472C1795.96 859.472 1796.7 859.882 1797.08 860.702C1797.32 860.352 1797.65 860.062 1798.07 859.832C1798.49 859.592 1798.93 859.472 1799.38 859.472C1800.19 859.472 1800.85 859.757 1801.36 860.327C1801.88 860.897 1802.14 861.747 1802.14 862.877V867.017C1802.14 867.127 1802.1 867.222 1802.02 867.302C1801.94 867.382 1801.84 867.422 1801.73 867.422H1799.09C1798.98 867.422 1798.89 867.382 1798.81 867.302C1798.73 867.222 1798.69 867.127 1798.69 867.017V862.982C1798.69 862.432 1798.49 862.157 1798.09 862.157ZM1812.33 862.937V864.122C1812.33 865.242 1812.03 866.097 1811.43 866.687C1810.83 867.277 1810.09 867.572 1809.22 867.572C1808.36 867.572 1807.67 867.337 1807.15 866.867V869.867C1807.15 869.977 1807.11 870.072 1807.03 870.152C1806.95 870.232 1806.86 870.272 1806.75 870.272H1803.97C1803.86 870.272 1803.77 870.232 1803.69 870.152C1803.61 870.072 1803.57 869.977 1803.57 869.867V860.027C1803.57 859.917 1803.61 859.822 1803.69 859.742C1803.77 859.662 1803.86 859.622 1803.97 859.622H1806.52C1806.63 859.622 1806.73 859.662 1806.81 859.742C1806.89 859.822 1806.93 859.917 1806.93 860.027V860.477C1807.45 859.807 1808.18 859.472 1809.13 859.472C1810.08 859.472 1810.85 859.757 1811.44 860.327C1812.03 860.887 1812.33 861.757 1812.33 862.937ZM1807.15 863.027V864.137C1807.18 864.637 1807.43 864.887 1807.9 864.887C1808.4 864.887 1808.65 864.597 1808.65 864.017V863.027C1808.65 862.447 1808.4 862.157 1807.9 862.157C1807.4 862.157 1807.15 862.447 1807.15 863.027ZM1816.69 867.422H1814.01C1813.9 867.422 1813.8 867.382 1813.72 867.302C1813.64 867.222 1813.6 867.127 1813.6 867.017V857.177C1813.6 857.067 1813.64 856.972 1813.72 856.892C1813.8 856.812 1813.9 856.772 1814.01 856.772H1816.69C1816.8 856.772 1816.9 856.812 1816.98 856.892C1817.06 856.972 1817.1 857.067 1817.1 857.177V867.017C1817.1 867.127 1817.06 867.222 1816.98 867.302C1816.9 867.382 1816.8 867.422 1816.69 867.422ZM1818.37 864.032V863.012C1818.37 861.872 1818.78 860.997 1819.59 860.387C1820.4 859.777 1821.44 859.472 1822.72 859.472C1824 859.472 1825.05 859.777 1825.86 860.387C1826.67 860.997 1827.07 861.872 1827.07 863.012V864.032C1827.07 865.182 1826.68 866.062 1825.9 866.672C1825.12 867.272 1824.06 867.572 1822.72 867.572C1821.38 867.572 1820.32 867.272 1819.54 866.672C1818.76 866.062 1818.37 865.182 1818.37 864.032ZM1823.4 864.152V862.892C1823.4 862.512 1823.35 862.247 1823.25 862.097C1823.15 861.947 1822.97 861.872 1822.72 861.872C1822.47 861.872 1822.3 861.947 1822.2 862.097C1822.1 862.247 1822.05 862.512 1822.05 862.892V864.152C1822.05 864.552 1822.1 864.822 1822.2 864.962C1822.3 865.102 1822.47 865.172 1822.72 865.172C1822.97 865.172 1823.15 865.097 1823.25 864.947C1823.35 864.797 1823.4 864.532 1823.4 864.152ZM1828.2 859.622H1830.74C1830.97 859.622 1831.13 859.742 1831.22 859.982L1832.45 863.402L1833.72 859.982C1833.82 859.742 1833.99 859.622 1834.23 859.622H1836.74C1836.83 859.622 1836.91 859.657 1836.98 859.727C1837.05 859.787 1837.08 859.852 1837.08 859.922C1837.08 859.992 1837.08 860.047 1837.07 860.087L1832.84 869.912C1832.74 870.152 1832.56 870.272 1832.31 870.272H1829.85C1829.76 870.272 1829.68 870.242 1829.61 870.182C1829.55 870.122 1829.52 870.047 1829.52 869.957C1829.52 869.877 1829.53 869.827 1829.54 869.807L1830.74 866.927L1827.84 860.087C1827.83 860.057 1827.83 860.022 1827.83 859.982C1827.87 859.742 1827.99 859.622 1828.2 859.622Z" fill="#15207B"/>
<path d="M1788.51 1013.84V1015.03C1788.51 1016.15 1788.21 1017 1787.61 1017.59C1787.01 1018.18 1786.28 1018.48 1785.41 1018.48C1784.55 1018.48 1783.86 1018.24 1783.34 1017.77V1020.77C1783.34 1020.88 1783.3 1020.98 1783.22 1021.06C1783.14 1021.14 1783.04 1021.18 1782.93 1021.18H1780.16C1780.05 1021.18 1779.95 1021.14 1779.87 1021.06C1779.79 1020.98 1779.75 1020.88 1779.75 1020.77V1010.93C1779.75 1010.82 1779.79 1010.73 1779.87 1010.65C1779.95 1010.57 1780.05 1010.53 1780.16 1010.53H1782.71C1782.82 1010.53 1782.91 1010.57 1782.99 1010.65C1783.07 1010.73 1783.11 1010.82 1783.11 1010.93V1011.38C1783.63 1010.71 1784.37 1010.38 1785.32 1010.38C1786.27 1010.38 1787.04 1010.66 1787.63 1011.23C1788.22 1011.79 1788.51 1012.66 1788.51 1013.84ZM1783.34 1013.93V1015.04C1783.37 1015.54 1783.62 1015.79 1784.09 1015.79C1784.59 1015.79 1784.84 1015.5 1784.84 1014.92V1013.93C1784.84 1013.35 1784.59 1013.06 1784.09 1013.06C1783.59 1013.06 1783.34 1013.35 1783.34 1013.93ZM1793.07 1010.93V1011.46C1793.77 1010.84 1794.55 1010.53 1795.41 1010.53H1796.13C1796.24 1010.53 1796.33 1010.57 1796.41 1010.65C1796.49 1010.73 1796.53 1010.82 1796.53 1010.93V1013.27C1796.53 1013.38 1796.49 1013.48 1796.41 1013.56C1796.33 1013.64 1796.24 1013.68 1796.13 1013.68H1794.19C1793.92 1013.68 1793.71 1013.74 1793.55 1013.87C1793.4 1013.99 1793.31 1014.16 1793.29 1014.37V1017.92C1793.29 1018.03 1793.25 1018.13 1793.17 1018.21C1793.09 1018.29 1793 1018.33 1792.89 1018.33H1790.04C1789.93 1018.33 1789.83 1018.29 1789.75 1018.21C1789.67 1018.13 1789.63 1018.03 1789.63 1017.92V1010.93C1789.63 1010.82 1789.67 1010.73 1789.75 1010.65C1789.83 1010.57 1789.93 1010.53 1790.04 1010.53H1792.66C1792.77 1010.53 1792.87 1010.57 1792.95 1010.65C1793.03 1010.73 1793.07 1010.82 1793.07 1010.93ZM1797.51 1014.94V1013.92C1797.51 1012.78 1797.92 1011.9 1798.73 1011.29C1799.54 1010.68 1800.58 1010.38 1801.86 1010.38C1803.14 1010.38 1804.19 1010.68 1805 1011.29C1805.81 1011.9 1806.21 1012.78 1806.21 1013.92V1014.94C1806.21 1016.09 1805.82 1016.97 1805.04 1017.58C1804.26 1018.18 1803.2 1018.48 1801.86 1018.48C1800.52 1018.48 1799.46 1018.18 1798.68 1017.58C1797.9 1016.97 1797.51 1016.09 1797.51 1014.94ZM1802.54 1015.06V1013.8C1802.54 1013.42 1802.49 1013.15 1802.39 1013C1802.29 1012.85 1802.11 1012.78 1801.86 1012.78C1801.61 1012.78 1801.44 1012.85 1801.34 1013C1801.24 1013.15 1801.19 1013.42 1801.19 1013.8V1015.06C1801.19 1015.46 1801.24 1015.73 1801.34 1015.87C1801.44 1016.01 1801.61 1016.08 1801.86 1016.08C1802.11 1016.08 1802.29 1016 1802.39 1015.85C1802.49 1015.7 1802.54 1015.44 1802.54 1015.06ZM1816.25 1013.84V1015.03C1816.25 1016.15 1815.95 1017 1815.35 1017.59C1814.75 1018.18 1814.02 1018.48 1813.15 1018.48C1812.29 1018.48 1811.6 1018.24 1811.08 1017.77V1020.77C1811.08 1020.88 1811.04 1020.98 1810.96 1021.06C1810.88 1021.14 1810.78 1021.18 1810.67 1021.18H1807.9C1807.79 1021.18 1807.69 1021.14 1807.61 1021.06C1807.53 1020.98 1807.49 1020.88 1807.49 1020.77V1010.93C1807.49 1010.82 1807.53 1010.73 1807.61 1010.65C1807.69 1010.57 1807.79 1010.53 1807.9 1010.53H1810.45C1810.56 1010.53 1810.65 1010.57 1810.73 1010.65C1810.81 1010.73 1810.85 1010.82 1810.85 1010.93V1011.38C1811.37 1010.71 1812.11 1010.38 1813.06 1010.38C1814.01 1010.38 1814.78 1010.66 1815.37 1011.23C1815.96 1011.79 1816.25 1012.66 1816.25 1013.84ZM1811.08 1013.93V1015.04C1811.11 1015.54 1811.36 1015.79 1811.83 1015.79C1812.33 1015.79 1812.58 1015.5 1812.58 1014.92V1013.93C1812.58 1013.35 1812.33 1013.06 1811.83 1013.06C1811.33 1013.06 1811.08 1013.35 1811.08 1013.93ZM1825.45 1015.31H1820.98V1015.39C1820.98 1016 1821.17 1016.3 1821.56 1016.3C1821.67 1016.3 1821.81 1016.22 1821.97 1016.06C1822.13 1015.9 1822.3 1015.82 1822.49 1015.82H1825.33C1825.55 1015.82 1825.66 1015.93 1825.66 1016.15C1825.66 1016.64 1825.29 1017.15 1824.55 1017.68C1823.82 1018.21 1822.82 1018.48 1821.56 1018.48C1820.31 1018.48 1819.29 1018.15 1818.49 1017.5C1817.7 1016.84 1817.3 1015.94 1817.3 1014.79V1014.07C1817.3 1012.98 1817.71 1012.09 1818.52 1011.41C1819.33 1010.72 1820.39 1010.38 1821.7 1010.38C1823.02 1010.38 1824.04 1010.76 1824.76 1011.53C1825.49 1012.3 1825.85 1013.28 1825.85 1014.46V1014.91C1825.85 1015.02 1825.81 1015.11 1825.73 1015.19C1825.65 1015.27 1825.56 1015.31 1825.45 1015.31ZM1822.18 1013.38C1822.18 1012.78 1821.98 1012.48 1821.58 1012.48C1821.18 1012.48 1820.98 1012.78 1820.98 1013.38V1013.44H1822.18V1013.38ZM1830.41 1010.93V1011.46C1831.11 1010.84 1831.89 1010.53 1832.75 1010.53H1833.47C1833.58 1010.53 1833.67 1010.57 1833.75 1010.65C1833.83 1010.73 1833.87 1010.82 1833.87 1010.93V1013.27C1833.87 1013.38 1833.83 1013.48 1833.75 1013.56C1833.67 1013.64 1833.58 1013.68 1833.47 1013.68H1831.53C1831.26 1013.68 1831.05 1013.74 1830.89 1013.87C1830.74 1013.99 1830.65 1014.16 1830.63 1014.37V1017.92C1830.63 1018.03 1830.59 1018.13 1830.51 1018.21C1830.43 1018.29 1830.34 1018.33 1830.23 1018.33H1827.38C1827.27 1018.33 1827.17 1018.29 1827.09 1018.21C1827.01 1018.13 1826.97 1018.03 1826.97 1017.92V1010.93C1826.97 1010.82 1827.01 1010.73 1827.09 1010.65C1827.17 1010.57 1827.27 1010.53 1827.38 1010.53H1830C1830.11 1010.53 1830.21 1010.57 1830.29 1010.65C1830.37 1010.73 1830.41 1010.82 1830.41 1010.93ZM1839.58 1013.15V1014.8C1839.58 1015.3 1839.79 1015.55 1840.22 1015.55H1841.59C1841.7 1015.55 1841.79 1015.59 1841.87 1015.67C1841.95 1015.75 1841.99 1015.85 1841.99 1015.96V1017.92C1841.99 1018.03 1841.95 1018.13 1841.87 1018.21C1841.79 1018.29 1841.7 1018.33 1841.59 1018.33H1839.89C1837.39 1018.33 1836.14 1017.25 1836.14 1015.1V1013.15H1834.96C1834.85 1013.15 1834.75 1013.11 1834.67 1013.03C1834.59 1012.95 1834.55 1012.86 1834.55 1012.75V1010.93C1834.55 1010.82 1834.59 1010.73 1834.67 1010.65C1834.75 1010.57 1834.85 1010.53 1834.96 1010.53H1836.14V1008.08C1836.14 1007.97 1836.18 1007.88 1836.26 1007.8C1836.34 1007.72 1836.44 1007.68 1836.55 1007.68H1839.17C1839.28 1007.68 1839.38 1007.72 1839.46 1007.8C1839.54 1007.88 1839.58 1007.97 1839.58 1008.08V1010.53H1841.47C1841.58 1010.53 1841.67 1010.57 1841.75 1010.65C1841.83 1010.73 1841.87 1010.82 1841.87 1010.93V1012.75C1841.87 1012.86 1841.83 1012.95 1841.75 1013.03C1841.67 1013.11 1841.58 1013.15 1841.47 1013.15H1839.58ZM1842.9 1010.53H1845.43C1845.66 1010.53 1845.82 1010.65 1845.91 1010.89L1847.14 1014.31L1848.42 1010.89C1848.52 1010.65 1848.69 1010.53 1848.93 1010.53H1851.43C1851.52 1010.53 1851.6 1010.56 1851.67 1010.63C1851.74 1010.69 1851.78 1010.76 1851.78 1010.83C1851.78 1010.9 1851.77 1010.95 1851.76 1010.99L1847.53 1020.82C1847.43 1021.06 1847.26 1021.18 1847.01 1021.18H1844.55C1844.46 1021.18 1844.38 1021.15 1844.31 1021.09C1844.25 1021.03 1844.22 1020.95 1844.22 1020.86C1844.22 1020.78 1844.22 1020.73 1844.23 1020.71L1845.43 1017.83L1842.54 1010.99C1842.53 1010.96 1842.52 1010.93 1842.52 1010.89C1842.56 1010.65 1842.69 1010.53 1842.9 1010.53Z" fill="#15207B"/>
<path d="M1787.51 938.388V939.573C1787.51 940.693 1787.21 941.548 1786.61 942.138C1786.01 942.728 1785.28 943.023 1784.41 943.023C1783.55 943.023 1782.86 942.788 1782.34 942.318V945.318C1782.34 945.428 1782.3 945.523 1782.22 945.603C1782.14 945.683 1782.04 945.723 1781.93 945.723H1779.16C1779.05 945.723 1778.95 945.683 1778.87 945.603C1778.79 945.523 1778.75 945.428 1778.75 945.318V935.478C1778.75 935.368 1778.79 935.273 1778.87 935.193C1778.95 935.113 1779.05 935.073 1779.16 935.073H1781.71C1781.82 935.073 1781.91 935.113 1781.99 935.193C1782.07 935.273 1782.11 935.368 1782.11 935.478V935.928C1782.63 935.258 1783.37 934.923 1784.32 934.923C1785.27 934.923 1786.04 935.208 1786.63 935.778C1787.22 936.338 1787.51 937.208 1787.51 938.388ZM1782.34 938.478V939.588C1782.37 940.088 1782.62 940.338 1783.09 940.338C1783.59 940.338 1783.84 940.048 1783.84 939.468V938.478C1783.84 937.898 1783.59 937.608 1783.09 937.608C1782.59 937.608 1782.34 937.898 1782.34 938.478ZM1788.71 939.618V935.478C1788.71 935.368 1788.75 935.273 1788.83 935.193C1788.91 935.113 1789 935.073 1789.11 935.073H1791.98C1792.09 935.073 1792.18 935.113 1792.26 935.193C1792.34 935.273 1792.38 935.368 1792.38 935.478V939.513C1792.38 940.063 1792.63 940.338 1793.13 940.338C1793.63 940.338 1793.88 940.063 1793.88 939.513V935.478C1793.88 935.368 1793.92 935.273 1794 935.193C1794.08 935.113 1794.18 935.073 1794.29 935.073H1797.14C1797.25 935.073 1797.34 935.113 1797.42 935.193C1797.5 935.273 1797.54 935.368 1797.54 935.478V942.468C1797.54 942.578 1797.5 942.673 1797.42 942.753C1797.34 942.833 1797.25 942.873 1797.14 942.873H1794.51C1794.4 942.873 1794.31 942.833 1794.23 942.753C1794.15 942.673 1794.11 942.578 1794.11 942.468V941.973C1793.64 942.673 1792.81 943.023 1791.62 943.023C1790.8 943.023 1790.11 942.738 1789.55 942.168C1788.99 941.588 1788.71 940.738 1788.71 939.618ZM1802.32 935.478V936.003C1803.02 935.383 1803.8 935.073 1804.66 935.073H1805.38C1805.49 935.073 1805.59 935.113 1805.67 935.193C1805.75 935.273 1805.79 935.368 1805.79 935.478V937.818C1805.79 937.928 1805.75 938.023 1805.67 938.103C1805.59 938.183 1805.49 938.223 1805.38 938.223H1803.45C1803.18 938.223 1802.96 938.288 1802.8 938.418C1802.65 938.538 1802.57 938.703 1802.55 938.913V942.468C1802.55 942.578 1802.51 942.673 1802.43 942.753C1802.35 942.833 1802.25 942.873 1802.14 942.873H1799.29C1799.18 942.873 1799.09 942.833 1799.01 942.753C1798.93 942.673 1798.89 942.578 1798.89 942.468V935.478C1798.89 935.368 1798.93 935.273 1799.01 935.193C1799.09 935.113 1799.18 935.073 1799.29 935.073H1801.92C1802.03 935.073 1802.12 935.113 1802.2 935.193C1802.28 935.273 1802.32 935.368 1802.32 935.478ZM1810.44 938.448V939.498C1810.44 939.838 1810.49 940.083 1810.58 940.233C1810.67 940.383 1810.81 940.458 1811 940.458C1811.19 940.458 1811.32 940.428 1811.39 940.368C1811.46 940.298 1811.53 940.173 1811.6 939.993C1811.68 939.803 1811.82 939.708 1812.03 939.708H1814.96C1815.07 939.708 1815.16 939.748 1815.24 939.828C1815.32 939.908 1815.36 940.013 1815.36 940.143C1815.36 940.273 1815.32 940.448 1815.23 940.668C1815.14 940.888 1814.98 941.138 1814.76 941.418C1814.54 941.698 1814.27 941.958 1813.95 942.198C1813.63 942.428 1813.21 942.623 1812.69 942.783C1812.17 942.943 1811.6 943.023 1810.97 943.023C1809.72 943.023 1808.7 942.698 1807.92 942.048C1807.15 941.388 1806.77 940.478 1806.77 939.318V938.628C1806.77 937.468 1807.15 936.563 1807.92 935.913C1808.7 935.253 1809.72 934.923 1810.97 934.923C1811.71 934.923 1812.38 935.038 1812.98 935.268C1813.58 935.488 1814.04 935.763 1814.36 936.093C1814.69 936.413 1814.94 936.728 1815.11 937.038C1815.28 937.348 1815.36 937.588 1815.36 937.758C1815.36 937.918 1815.32 938.038 1815.24 938.118C1815.16 938.198 1815.07 938.238 1814.96 938.238H1812.03C1811.84 938.238 1811.7 938.138 1811.6 937.938C1811.46 937.638 1811.27 937.488 1811.04 937.488C1810.64 937.488 1810.44 937.808 1810.44 938.448ZM1820.29 938.433V942.468C1820.29 942.578 1820.25 942.673 1820.17 942.753C1820.09 942.833 1820 942.873 1819.89 942.873H1816.96C1816.85 942.873 1816.76 942.833 1816.68 942.753C1816.6 942.673 1816.56 942.578 1816.56 942.468V932.628C1816.56 932.518 1816.6 932.423 1816.68 932.343C1816.76 932.263 1816.85 932.223 1816.96 932.223H1819.89C1820 932.223 1820.09 932.263 1820.17 932.343C1820.25 932.423 1820.29 932.518 1820.29 932.628V935.853C1820.86 935.233 1821.59 934.923 1822.48 934.923C1823.37 934.923 1824.11 935.213 1824.69 935.793C1825.27 936.373 1825.56 937.218 1825.56 938.328V942.453C1825.56 942.563 1825.52 942.658 1825.44 942.738C1825.36 942.818 1825.26 942.858 1825.15 942.858H1822.21C1822.1 942.858 1822.01 942.818 1821.93 942.738C1821.85 942.658 1821.81 942.563 1821.81 942.453V938.433C1821.81 937.883 1821.55 937.608 1821.04 937.608C1820.54 937.608 1820.29 937.883 1820.29 938.433ZM1826.76 940.638C1826.76 939.288 1827.86 938.423 1830.05 938.043L1831.64 937.788C1831.64 937.488 1831.61 937.288 1831.56 937.188C1831.51 937.078 1831.39 937.023 1831.2 937.023C1831.02 937.023 1830.84 937.103 1830.66 937.263C1830.48 937.423 1830.31 937.503 1830.15 937.503H1827.6C1827.38 937.503 1827.27 937.398 1827.27 937.188C1827.27 936.968 1827.35 936.738 1827.5 936.498C1827.66 936.248 1827.88 936.003 1828.17 935.763C1828.47 935.523 1828.89 935.323 1829.42 935.163C1829.96 935.003 1830.56 934.923 1831.22 934.923C1832.56 934.923 1833.56 935.203 1834.23 935.763C1834.9 936.323 1835.24 937.123 1835.24 938.163V942.468C1835.24 942.578 1835.2 942.673 1835.12 942.753C1835.04 942.833 1834.94 942.873 1834.83 942.873H1832.21C1832.1 942.873 1832 942.833 1831.92 942.753C1831.84 942.673 1831.8 942.578 1831.8 942.468V942.048C1831.33 942.698 1830.65 943.023 1829.75 943.023C1828.85 943.023 1828.12 942.798 1827.57 942.348C1827.03 941.888 1826.76 941.318 1826.76 940.638ZM1830.71 940.803C1831.36 940.803 1831.68 940.413 1831.68 939.633L1830.8 939.828C1830.36 939.928 1830.14 940.113 1830.14 940.383C1830.14 940.503 1830.19 940.603 1830.29 940.683C1830.39 940.763 1830.53 940.803 1830.71 940.803ZM1840.81 940.713C1840.81 940.613 1840.79 940.533 1840.74 940.473C1840.61 940.313 1840.13 940.158 1839.3 940.008C1838.47 939.848 1837.79 939.573 1837.27 939.183C1836.76 938.783 1836.51 938.228 1836.51 937.518C1836.51 936.808 1836.85 936.198 1837.53 935.688C1838.21 935.178 1839.12 934.923 1840.27 934.923C1841.43 934.923 1842.38 935.163 1843.12 935.643C1843.86 936.123 1844.23 936.608 1844.23 937.098C1844.23 937.208 1844.2 937.303 1844.13 937.383C1844.07 937.463 1843.99 937.503 1843.9 937.503H1841.38C1841.23 937.503 1841.05 937.423 1840.83 937.263C1840.61 937.103 1840.44 937.023 1840.33 937.023C1840.1 937.023 1839.99 937.103 1839.99 937.263C1839.99 937.363 1840.01 937.443 1840.06 937.503C1840.19 937.653 1840.74 937.798 1841.7 937.938C1842.66 938.078 1843.37 938.388 1843.84 938.868C1844.32 939.338 1844.56 939.863 1844.56 940.443C1844.56 941.253 1844.2 941.888 1843.47 942.348C1842.74 942.808 1841.7 943.038 1840.36 943.038C1839.65 943.038 1839.02 942.958 1838.47 942.798C1837.92 942.638 1837.5 942.438 1837.21 942.198C1836.64 941.728 1836.36 941.288 1836.36 940.878C1836.36 940.768 1836.39 940.673 1836.46 940.593C1836.53 940.513 1836.62 940.473 1836.72 940.473H1839.33C1839.47 940.473 1839.65 940.553 1839.87 940.713C1840.1 940.863 1840.31 940.938 1840.51 940.938C1840.71 940.938 1840.81 940.863 1840.81 940.713ZM1853.63 939.858H1849.16V939.933C1849.16 940.543 1849.35 940.848 1849.74 940.848C1849.85 940.848 1849.99 940.768 1850.15 940.608C1850.31 940.448 1850.48 940.368 1850.67 940.368H1853.51C1853.73 940.368 1853.84 940.478 1853.84 940.698C1853.84 941.188 1853.47 941.698 1852.73 942.228C1852 942.758 1851 943.023 1849.74 943.023C1848.49 943.023 1847.47 942.698 1846.67 942.048C1845.88 941.388 1845.48 940.483 1845.48 939.333V938.613C1845.48 937.523 1845.89 936.638 1846.7 935.958C1847.51 935.268 1848.57 934.923 1849.88 934.923C1851.2 934.923 1852.22 935.308 1852.94 936.078C1853.67 936.848 1854.03 937.823 1854.03 939.003V939.453C1854.03 939.563 1853.99 939.658 1853.91 939.738C1853.83 939.818 1853.74 939.858 1853.63 939.858ZM1850.36 937.923C1850.36 937.323 1850.16 937.023 1849.76 937.023C1849.36 937.023 1849.16 937.323 1849.16 937.923V937.983H1850.36V937.923Z" fill="#15207B"/>
<line y1="-2.5" x2="847.008" y2="-2.5" transform="matrix(0.99999 0.00456821 -0.00488199 0.999988 0 932.742)" stroke="#141F7B" stroke-width="5"/>
<line x1="1054" y1="936.047" x2="1429" y2="936.047" stroke="#141F7B" stroke-width="5"/>
<line x1="1576" y1="561.689" x2="1627" y2="561.689" stroke="#141F7B" stroke-width="5"/>
<line x1="1334" y1="561.689" x2="1537" y2="561.689" stroke="#141F7B" stroke-width="5"/>
<rect x="844.5" y="904.125" width="208" height="66.9091" rx="33.4545" stroke="#141F7B" stroke-width="5"/>
<rect x="1745.5" y="847.053" width="122" height="31.1179" rx="15.5589" stroke="#141F7B" stroke-width="5"/>
<rect x="1746.5" y="997.955" width="122" height="31.1179" rx="15.5589" stroke="#141F7B" stroke-width="5"/>
<rect x="1746.5" y="922.504" width="122" height="31.1179" rx="15.5589" stroke="#141F7B" stroke-width="5"/>
<rect x="1402.5" y="905.125" width="229" height="64.9091" rx="32.4545" fill="#141F7B" stroke="#141F7B" stroke-width="3"/>
<path d="M914.44 926.433H919.928C920.133 926.433 920.311 926.508 920.46 926.657C920.609 926.807 920.684 926.984 920.684 927.189V938.445C920.684 941.059 919.872 943.028 918.248 944.353C916.624 945.66 914.412 946.313 911.612 946.313C908.831 946.313 906.619 945.66 904.976 944.353C903.352 943.047 902.54 941.077 902.54 938.445V927.189C902.54 926.984 902.615 926.807 902.764 926.657C902.913 926.508 903.091 926.433 903.296 926.433H908.784C908.989 926.433 909.167 926.508 909.316 926.657C909.465 926.807 909.54 926.984 909.54 927.189V938.529C909.54 939.967 910.231 940.685 911.612 940.685C912.993 940.685 913.684 939.967 913.684 938.529V927.189C913.684 926.984 913.759 926.807 913.908 926.657C914.057 926.508 914.235 926.433 914.44 926.433ZM924.795 926.433H933.139C935.827 926.433 937.927 927.012 939.439 928.169C940.951 929.327 941.707 931.035 941.707 933.293C941.707 935.552 940.951 937.223 939.439 938.305C937.945 939.388 935.845 939.929 933.139 939.929H931.319V945.277C931.319 945.483 931.244 945.66 931.095 945.809C930.945 945.959 930.768 946.033 930.563 946.033H924.795C924.589 946.033 924.412 945.959 924.263 945.809C924.113 945.66 924.039 945.483 924.039 945.277V927.189C924.039 926.984 924.113 926.807 924.263 926.657C924.412 926.508 924.589 926.433 924.795 926.433ZM931.179 931.641V934.749H933.139C933.475 934.749 933.773 934.628 934.035 934.385C934.296 934.124 934.427 933.76 934.427 933.293C934.427 932.827 934.324 932.435 934.119 932.117C933.913 931.8 933.587 931.641 933.139 931.641H931.179ZM951.467 940.293H959.223C959.428 940.293 959.606 940.368 959.755 940.517C959.904 940.667 959.979 940.844 959.979 941.049V945.277C959.979 945.483 959.904 945.66 959.755 945.809C959.606 945.959 959.428 946.033 959.223 946.033H945.111C944.906 946.033 944.728 945.959 944.579 945.809C944.43 945.66 944.355 945.483 944.355 945.277V927.189C944.355 926.984 944.43 926.807 944.579 926.657C944.728 926.508 944.906 926.433 945.111 926.433H950.711C950.916 926.433 951.094 926.508 951.243 926.657C951.392 926.807 951.467 926.984 951.467 927.189V940.293ZM964.499 928.225C966.217 926.844 968.485 926.153 971.303 926.153C974.122 926.153 976.381 926.853 978.079 928.253C979.797 929.635 980.655 931.585 980.655 934.105V938.473C980.655 941.031 979.806 942.981 978.107 944.325C976.427 945.651 974.159 946.313 971.303 946.313C968.447 946.313 966.17 945.651 964.471 944.325C962.791 942.981 961.951 941.031 961.951 938.473V934.105C961.951 931.567 962.801 929.607 964.499 928.225ZM969.791 940.293C970.165 940.667 970.669 940.853 971.303 940.853C971.938 940.853 972.442 940.667 972.815 940.293C973.189 939.92 973.375 939.351 973.375 938.585V933.881C973.375 933.135 973.189 932.575 972.815 932.201C972.442 931.809 971.938 931.613 971.303 931.613C970.669 931.613 970.165 931.809 969.791 932.201C969.418 932.575 969.231 933.135 969.231 933.881V938.585C969.231 939.351 969.418 939.92 969.791 940.293ZM989.862 926.433H995.938C996.61 926.433 997.03 926.741 997.198 927.357L1003.44 945.221C1003.46 945.277 1003.47 945.371 1003.47 945.501C1003.47 945.613 1003.4 945.735 1003.27 945.865C1003.16 945.977 1003.02 946.033 1002.85 946.033H997.674C997.114 946.033 996.75 945.8 996.582 945.333L995.91 943.485H989.89L989.218 945.333C989.05 945.8 988.686 946.033 988.126 946.033H982.946C982.778 946.033 982.629 945.977 982.498 945.865C982.386 945.735 982.33 945.613 982.33 945.501C982.33 945.371 982.339 945.277 982.358 945.221L988.602 927.357C988.77 926.741 989.19 926.433 989.862 926.433ZM991.318 938.025H994.482L992.886 932.817L991.318 938.025ZM1006.47 926.433H1014.53C1017.26 926.433 1019.5 927.115 1021.25 928.477C1023.03 929.821 1023.91 931.707 1023.91 934.133V938.305C1023.91 940.844 1023.06 942.767 1021.34 944.073C1019.62 945.38 1017.36 946.033 1014.56 946.033H1006.47C1006.27 946.033 1006.09 945.959 1005.94 945.809C1005.79 945.66 1005.71 945.483 1005.71 945.277V927.189C1005.71 926.984 1005.79 926.807 1005.94 926.657C1006.09 926.508 1006.27 926.433 1006.47 926.433ZM1012.71 931.893V940.573H1014.53C1015.17 940.573 1015.67 940.387 1016.05 940.013C1016.44 939.621 1016.63 939.052 1016.63 938.305V934.133C1016.63 932.64 1015.93 931.893 1014.53 931.893H1012.71Z" fill="#15207B"/>
<path d="M879.727 942.035H888.727V932.431H894.727L884.227 921.227L873.727 932.431H879.727V942.035ZM873.727 945.236H894.727V948.438H873.727V945.236Z" fill="#15207B"/>
<path d="M1695.5 525.306L1695.49 400.461V400.461C1695.5 397.263 1698.16 394.691 1701.48 394.691L1740.99 394.691" stroke="#141F7B" stroke-width="5"/>
<path d="M1745.96 862.318L1703.92 862.127L1699.05 862.164C1687.99 862.249 1679.09 871.305 1679.21 882.372L1679.66 925.562L1680.33 989.219C1680.44 1000.24 1689.46 1009.09 1700.48 1009.01L1749 1008.64" stroke="#141F7B" stroke-width="5"/>
<line x1="1630" y1="936.047" x2="1748" y2="936.047" stroke="#141F7B" stroke-width="5"/>
<path d="M1763.5 868.964C1767.39 868.964 1771 866.137 1771 862.128C1771 858.118 1767.39 855.291 1763.5 855.291C1759.61 855.291 1756 858.118 1756 862.128C1756 866.137 1759.61 868.964 1763.5 868.964Z" stroke="#141F7B" stroke-width="4"/>
<path d="M1556.5 582.168C1567.95 582.168 1577.5 573.393 1577.5 562.256C1577.5 551.118 1567.95 542.344 1556.5 542.344C1545.05 542.344 1535.5 551.118 1535.5 562.256C1535.5 573.393 1545.05 582.168 1556.5 582.168Z" stroke="#141F7B" stroke-width="5"/>
<path d="M1764.5 1020.84C1768.39 1020.84 1772 1018.01 1772 1014C1772 1009.99 1768.39 1007.16 1764.5 1007.16C1760.61 1007.16 1757 1009.99 1757 1014C1757 1018.01 1760.61 1020.84 1764.5 1020.84Z" stroke="#141F7B" stroke-width="4"/>
<path d="M1764.5 944.415C1768.39 944.415 1772 941.588 1772 937.579C1772 933.569 1768.39 930.742 1764.5 930.742C1760.61 930.742 1757 933.569 1757 937.579C1757 941.588 1760.61 944.415 1764.5 944.415Z" stroke="#141F7B" stroke-width="4"/>
<path d="M1824.68 645.057C1768.7 644.472 1752.63 628.838 1733 591.654L1747.79 587.358V544.39L1738.32 539.48C1750.05 508.626 1765.89 485.225 1824.68 478.098V495.898C1887.52 490.57 1917.08 512.754 1927 572.012H1907.48C1909.96 625.585 1896.67 646.517 1824.68 662.858V645.057Z" fill="#04A579" stroke="#04A579" stroke-width="3"/>
<path d="M1867 942.416L1969 942.416C1985.57 942.416 1999 928.985 1999 912.416L1999 553.906L1999 405.561C1999 388.992 1985.57 375.561 1969 375.561L1861 375.561" stroke="#141F7B" stroke-width="5"/>
<path d="M1811 751.852V849.552" stroke="#141F7B" stroke-width="5"/>
<path d="M1515 182V388" stroke="#141F7B" stroke-width="5"/>
<path d="M1641 147.271H1810" stroke="#141F7B" stroke-width="5"/>
<path d="M1627 547.067L1695.75 526.465L1763 547.067V579.819L1695.75 600.949L1627 579.819V547.067Z" fill="#FEFDF6" stroke="#1B267F" stroke-width="5"/>
<path d="M1209.33 539.039H1369L1339.24 562.025L1369 585.471H1209.33L1179 562.025L1209.33 539.039Z" fill="#1B267F" stroke="#1B267F" stroke-width="3"/>
<path d="M1563 552.582L1550 562.415L1563 571.929" stroke="#141F7B" stroke-width="5"/>
<rect x="1761.5" y="348.219" width="101" height="53.5838" rx="5.5" fill="#FEFDF6" stroke="#18227D" stroke-width="5"/>
<rect x="1740.5" y="364.547" width="101" height="53.5838" rx="5.5" fill="#FEFDF6" stroke="#18227D" stroke-width="5"/>
<rect x="1751.5" y="381.832" width="101" height="53.5838" rx="5.5" fill="#FEFDF6" stroke="#18227D" stroke-width="5"/>
<rect x="1761" y="399.744" width="38" height="13.5426" fill="#E7470A"/>
<line x1="1738" y1="375.061" x2="1841" y2="375.061" stroke="#141F7B"/>
<line x1="1761" y1="357.648" x2="1863" y2="357.648" stroke="#141F7B"/>
<line x1="1751" y1="391.506" x2="1854" y2="391.506" stroke="#141F7B"/>
<ellipse cx="1847" cy="353.4" rx="1" ry="0.960391" fill="#141F7B"/>
<ellipse cx="1857" cy="353.4" rx="1" ry="0.960391" fill="#141F7B"/>
<ellipse cx="1852" cy="353.4" rx="1" ry="0.960391" fill="#141F7B"/>
<ellipse cx="1826" cy="369.726" rx="1" ry="0.960391" fill="#141F7B"/>
<ellipse cx="1836" cy="369.726" rx="1" ry="0.960391" fill="#141F7B"/>
<ellipse cx="1831" cy="369.726" rx="1" ry="0.960391" fill="#141F7B"/>
<ellipse cx="1837" cy="387.011" rx="1" ry="0.960391" fill="#141F7B"/>
<ellipse cx="1847" cy="387.011" rx="1" ry="0.960391" fill="#141F7B"/>
<ellipse cx="1842" cy="387.011" rx="1" ry="0.960391" fill="#141F7B"/>
<line x1="1761" y1="421.492" x2="1799" y2="421.492" stroke="#141F7B"/>
<line y1="-0.5" x2="38.1627" y2="-0.5" transform="matrix(0.7337 0.679473 -0.708536 0.705674 1808 400.459)" stroke="#141F7B"/>
<line y1="-0.5" x2="38.1627" y2="-0.5" transform="matrix(-0.7337 0.679473 -0.708536 -0.705674 1836 400.459)" stroke="#141F7B"/>
<line x1="1761" y1="426.33" x2="1799" y2="426.33" stroke="#141F7B"/>
<rect x="1808.5" y="400.244" width="28" height="27.0526" stroke="#141F7B"/>
<rect x="1821" y="412.32" width="3" height="2.90199" fill="#141F7B"/>
<path d="M998.675 404H929C912.431 404 899 417.431 899 434V472.479V532C899 548.569 912.431 562 929 562H1183" stroke="#141F7B" stroke-width="5"/>
<path d="M1463.24 936.352V940.888C1463.24 942.346 1463.9 943.075 1465.23 943.075C1466.26 943.075 1466.93 942.589 1467.26 941.617C1467.35 941.311 1467.46 941.104 1467.58 940.996C1467.73 940.888 1467.95 940.834 1468.26 940.834H1473.77C1473.93 940.834 1474.06 940.897 1474.17 941.023C1474.3 941.131 1474.36 941.266 1474.36 941.428C1474.36 942.994 1473.91 944.308 1473.01 945.37C1471.35 947.35 1468.77 948.34 1465.26 948.34C1462.51 948.34 1460.31 947.737 1458.67 946.531C1457.03 945.307 1456.22 943.435 1456.22 940.915V936.325C1456.22 933.859 1457.05 932.005 1458.73 930.763C1460.4 929.521 1462.58 928.9 1465.26 928.9C1468.77 928.9 1471.35 929.89 1473.01 931.87C1473.91 932.932 1474.36 934.246 1474.36 935.812C1474.36 935.974 1474.3 936.118 1474.17 936.244C1474.06 936.352 1473.93 936.406 1473.77 936.406H1468.26C1467.97 936.406 1467.75 936.352 1467.61 936.244C1467.48 936.136 1467.37 935.929 1467.26 935.623C1466.92 934.651 1466.24 934.165 1465.23 934.165C1463.9 934.165 1463.24 934.894 1463.24 936.352ZM1482.84 929.17H1488.7C1489.35 929.17 1489.75 929.467 1489.91 930.061L1495.93 947.287C1495.95 947.341 1495.96 947.431 1495.96 947.557C1495.96 947.665 1495.9 947.782 1495.77 947.908C1495.66 948.016 1495.53 948.07 1495.37 948.07H1490.37C1489.83 948.07 1489.48 947.845 1489.32 947.395L1488.67 945.613H1482.87L1482.22 947.395C1482.06 947.845 1481.7 948.07 1481.16 948.07H1476.17C1476.01 948.07 1475.86 948.016 1475.74 947.908C1475.63 947.782 1475.58 947.665 1475.58 947.557C1475.58 947.431 1475.58 947.341 1475.6 947.287L1481.62 930.061C1481.79 929.467 1482.19 929.17 1482.84 929.17ZM1484.24 940.348H1487.29L1485.75 935.326L1484.24 940.348ZM1497.91 929.17H1513.73C1513.93 929.17 1514.1 929.242 1514.24 929.386C1514.39 929.53 1514.46 929.701 1514.46 929.899V934.246C1514.46 934.444 1514.39 934.615 1514.24 934.759C1514.1 934.903 1513.93 934.975 1513.73 934.975H1509.25V947.341C1509.25 947.539 1509.18 947.71 1509.03 947.854C1508.89 947.998 1508.72 948.07 1508.52 948.07H1503.12C1502.92 948.07 1502.75 947.998 1502.61 947.854C1502.46 947.71 1502.39 947.539 1502.39 947.341V934.975H1497.91C1497.71 934.975 1497.54 934.903 1497.4 934.759C1497.25 934.615 1497.18 934.444 1497.18 934.246V929.899C1497.18 929.701 1497.25 929.53 1497.4 929.386C1497.54 929.242 1497.71 929.17 1497.91 929.17ZM1523.51 942.805H1531.83C1532.02 942.805 1532.2 942.877 1532.34 943.021C1532.48 943.165 1532.56 943.336 1532.56 943.534V947.341C1532.56 947.539 1532.48 947.71 1532.34 947.854C1532.2 947.998 1532.02 948.07 1531.83 948.07H1517.76C1517.56 948.07 1517.39 947.998 1517.25 947.854C1517.1 947.71 1517.03 947.539 1517.03 947.341V929.899C1517.03 929.701 1517.1 929.53 1517.25 929.386C1517.39 929.242 1517.56 929.17 1517.76 929.17H1531.61C1531.81 929.17 1531.98 929.242 1532.12 929.386C1532.27 929.53 1532.34 929.701 1532.34 929.899V933.706C1532.34 933.904 1532.27 934.075 1532.12 934.219C1531.98 934.363 1531.81 934.435 1531.61 934.435H1523.51V936.136H1531.02C1531.21 936.136 1531.39 936.208 1531.53 936.352C1531.67 936.496 1531.75 936.667 1531.75 936.865V940.375C1531.75 940.573 1531.67 940.744 1531.53 940.888C1531.39 941.032 1531.21 941.104 1531.02 941.104H1523.51V942.805ZM1545.5 936.676H1552.92C1553.12 936.676 1553.29 936.748 1553.43 936.892C1553.58 937.036 1553.65 937.207 1553.65 937.405V940.915C1553.65 943.291 1552.8 945.127 1551.11 946.423C1549.42 947.701 1547.16 948.34 1544.34 948.34C1541.53 948.34 1539.31 947.719 1537.69 946.477C1536.07 945.217 1535.26 943.336 1535.26 940.834V936.298C1535.26 933.904 1536.09 932.077 1537.75 930.817C1539.4 929.539 1541.61 928.9 1544.36 928.9C1547.13 928.9 1549.38 929.485 1551.09 930.655C1552.8 931.807 1553.65 933.229 1553.65 934.921C1553.65 935.083 1553.59 935.227 1553.46 935.353C1553.35 935.461 1553.22 935.515 1553.06 935.515H1547.09C1546.73 935.515 1546.47 935.416 1546.31 935.218C1545.95 934.75 1545.68 934.48 1545.5 934.408C1545.08 934.246 1544.7 934.165 1544.36 934.165C1542.98 934.165 1542.28 934.84 1542.28 936.19V940.78C1542.28 942.31 1543.02 943.075 1544.5 943.075C1546.01 943.075 1546.77 942.427 1546.77 941.131H1545.5C1545.3 941.131 1545.13 941.059 1544.98 940.915C1544.84 940.771 1544.77 940.6 1544.77 940.402V937.405C1544.77 937.207 1544.84 937.036 1544.98 936.892C1545.13 936.748 1545.3 936.676 1545.5 936.676ZM1558.55 930.898C1560.21 929.566 1562.39 928.9 1565.11 928.9C1567.83 928.9 1570.01 929.575 1571.65 930.925C1573.3 932.257 1574.13 934.138 1574.13 936.568V940.78C1574.13 943.246 1573.31 945.127 1571.67 946.423C1570.05 947.701 1567.87 948.34 1565.11 948.34C1562.36 948.34 1560.16 947.701 1558.52 946.423C1556.9 945.127 1556.09 943.246 1556.09 940.78V936.568C1556.09 934.12 1556.91 932.23 1558.55 930.898ZM1563.65 942.535C1564.01 942.895 1564.5 943.075 1565.11 943.075C1565.72 943.075 1566.21 942.895 1566.57 942.535C1566.93 942.175 1567.11 941.626 1567.11 940.888V936.352C1567.11 935.632 1566.93 935.092 1566.57 934.732C1566.21 934.354 1565.72 934.165 1565.11 934.165C1564.5 934.165 1564.01 934.354 1563.65 934.732C1563.29 935.092 1563.11 935.632 1563.11 936.352V940.888C1563.11 941.626 1563.29 942.175 1563.65 942.535ZM1594.48 947.179C1594.54 947.287 1594.56 947.404 1594.56 947.53C1594.56 947.656 1594.5 947.782 1594.37 947.908C1594.27 948.016 1594.13 948.07 1593.97 948.07H1588.43C1587.88 948.07 1587.49 947.827 1587.27 947.341L1584.95 942.184H1583.84V947.341C1583.84 947.539 1583.77 947.71 1583.63 947.854C1583.48 947.998 1583.31 948.07 1583.12 948.07H1577.82C1577.63 948.07 1577.45 947.998 1577.31 947.854C1577.17 947.71 1577.09 947.539 1577.09 947.341V929.899C1577.09 929.701 1577.17 929.53 1577.31 929.386C1577.45 929.242 1577.63 929.17 1577.82 929.17H1585.82C1588.41 929.17 1590.43 929.755 1591.89 930.925C1593.35 932.077 1594.08 933.742 1594.08 935.92C1594.08 938.08 1593.11 939.781 1591.16 941.023L1594.48 947.179ZM1583.84 934.192V937.054H1585.82C1586.21 937.054 1586.52 936.928 1586.73 936.676C1586.95 936.406 1587.06 936.073 1587.06 935.677C1587.06 935.281 1586.95 934.939 1586.73 934.651C1586.54 934.345 1586.23 934.192 1585.82 934.192H1583.84ZM1607.8 948.07H1602.51C1602.31 948.07 1602.14 947.998 1601.99 947.854C1601.85 947.71 1601.78 947.539 1601.78 947.341V942.022L1595.7 930.007C1595.67 929.935 1595.65 929.836 1595.65 929.71C1595.65 929.584 1595.7 929.467 1595.81 929.359C1595.94 929.233 1596.08 929.17 1596.24 929.17H1601.32C1601.86 929.17 1602.24 929.395 1602.45 929.845L1605.15 935.272L1607.85 929.845C1608.07 929.395 1608.45 929.17 1608.99 929.17H1614.06C1614.22 929.17 1614.36 929.233 1614.47 929.359C1614.59 929.467 1614.66 929.584 1614.66 929.71C1614.66 929.836 1614.64 929.935 1614.6 930.007L1608.53 942.022V947.341C1608.53 947.539 1608.46 947.71 1608.31 947.854C1608.17 947.998 1608 948.07 1607.8 948.07Z" fill="#FEFDF6"/>
<path d="M1226.18 559.713C1226.18 558.013 1226.88 556.63 1228.28 555.563C1229.69 554.496 1231.54 553.963 1233.83 553.963C1236.13 553.963 1238 554.521 1239.45 555.638C1240.92 556.755 1241.65 557.921 1241.65 559.138C1241.65 559.288 1241.59 559.421 1241.48 559.538C1241.38 559.638 1241.26 559.688 1241.13 559.688H1236.13C1235.74 559.688 1235.39 559.546 1235.08 559.263C1234.76 558.98 1234.33 558.838 1233.8 558.838C1233 558.838 1232.6 559.071 1232.6 559.538C1232.6 559.788 1232.79 559.996 1233.18 560.163C1233.58 560.33 1234.31 560.48 1235.38 560.613C1237.86 560.93 1239.63 561.513 1240.68 562.363C1241.74 563.196 1242.28 564.471 1242.28 566.188C1242.28 567.888 1241.49 569.28 1239.93 570.363C1238.38 571.43 1236.34 571.963 1233.83 571.963C1231.31 571.963 1229.33 571.446 1227.9 570.413C1226.47 569.38 1225.75 568.121 1225.75 566.638C1225.75 566.488 1225.8 566.363 1225.9 566.263C1226.02 566.146 1226.15 566.088 1226.3 566.088H1231.05C1231.4 566.088 1231.78 566.255 1232.2 566.588C1232.63 566.921 1233.23 567.088 1233.98 567.088C1235.23 567.088 1235.85 566.855 1235.85 566.388C1235.85 566.088 1235.63 565.863 1235.18 565.713C1234.73 565.546 1233.88 565.38 1232.63 565.213C1228.33 564.646 1226.18 562.813 1226.18 559.713ZM1255.62 554.213H1260.52C1260.7 554.213 1260.86 554.28 1260.99 554.413C1261.13 554.546 1261.19 554.705 1261.19 554.888V571.038C1261.19 571.221 1261.13 571.38 1260.99 571.513C1260.86 571.646 1260.7 571.713 1260.52 571.713H1255.62C1255.43 571.713 1255.28 571.646 1255.14 571.513C1255.01 571.38 1254.94 571.221 1254.94 571.038V565.638H1250.89V571.038C1250.89 571.221 1250.83 571.38 1250.69 571.513C1250.56 571.646 1250.4 571.713 1250.22 571.713H1245.32C1245.13 571.713 1244.98 571.655 1244.84 571.538C1244.71 571.405 1244.64 571.238 1244.64 571.038V554.888C1244.64 554.705 1244.71 554.546 1244.84 554.413C1244.98 554.28 1245.13 554.213 1245.32 554.213H1250.22C1250.4 554.213 1250.56 554.28 1250.69 554.413C1250.83 554.546 1250.89 554.705 1250.89 554.888V560.138H1254.94V554.888C1254.94 554.705 1255.01 554.546 1255.14 554.413C1255.28 554.28 1255.43 554.213 1255.62 554.213ZM1269.92 554.213H1275.34C1275.94 554.213 1276.32 554.488 1276.47 555.038L1282.04 570.988C1282.06 571.038 1282.07 571.121 1282.07 571.238C1282.07 571.338 1282.01 571.446 1281.89 571.563C1281.79 571.663 1281.67 571.713 1281.52 571.713H1276.89C1276.39 571.713 1276.07 571.505 1275.92 571.088L1275.32 569.438H1269.94L1269.34 571.088C1269.19 571.505 1268.87 571.713 1268.37 571.713H1263.74C1263.59 571.713 1263.46 571.663 1263.34 571.563C1263.24 571.446 1263.19 571.338 1263.19 571.238C1263.19 571.121 1263.2 571.038 1263.22 570.988L1268.79 555.038C1268.94 554.488 1269.32 554.213 1269.92 554.213ZM1271.22 564.563H1274.04L1272.62 559.913L1271.22 564.563ZM1300.17 570.888C1300.22 570.988 1300.25 571.096 1300.25 571.213C1300.25 571.33 1300.19 571.446 1300.07 571.563C1299.97 571.663 1299.85 571.713 1299.7 571.713H1294.57C1294.05 571.713 1293.7 571.488 1293.5 571.038L1291.35 566.263H1290.32V571.038C1290.32 571.221 1290.25 571.38 1290.12 571.513C1289.99 571.646 1289.83 571.713 1289.65 571.713H1284.75C1284.56 571.713 1284.4 571.646 1284.27 571.513C1284.14 571.38 1284.07 571.221 1284.07 571.038V554.888C1284.07 554.705 1284.14 554.546 1284.27 554.413C1284.4 554.28 1284.56 554.213 1284.75 554.213H1292.15C1294.55 554.213 1296.42 554.755 1297.77 555.838C1299.12 556.905 1299.8 558.446 1299.8 560.463C1299.8 562.463 1298.9 564.038 1297.1 565.188L1300.17 570.888ZM1290.32 558.863V561.513H1292.15C1292.51 561.513 1292.8 561.396 1293 561.163C1293.2 560.913 1293.3 560.605 1293.3 560.238C1293.3 559.871 1293.2 559.555 1293 559.288C1292.81 559.005 1292.53 558.863 1292.15 558.863H1290.32ZM1308.63 566.838H1316.33C1316.51 566.838 1316.67 566.905 1316.8 567.038C1316.93 567.171 1317 567.33 1317 567.513V571.038C1317 571.221 1316.93 571.38 1316.8 571.513C1316.67 571.646 1316.51 571.713 1316.33 571.713H1303.3C1303.12 571.713 1302.96 571.646 1302.83 571.513C1302.69 571.38 1302.63 571.221 1302.63 571.038V554.888C1302.63 554.705 1302.69 554.546 1302.83 554.413C1302.96 554.28 1303.12 554.213 1303.3 554.213H1316.13C1316.31 554.213 1316.47 554.28 1316.6 554.413C1316.73 554.546 1316.8 554.705 1316.8 554.888V558.413C1316.8 558.596 1316.73 558.755 1316.6 558.888C1316.47 559.021 1316.31 559.088 1316.13 559.088H1308.63V560.663H1315.58C1315.76 560.663 1315.92 560.73 1316.05 560.863C1316.18 560.996 1316.25 561.155 1316.25 561.338V564.588C1316.25 564.771 1316.18 564.93 1316.05 565.063C1315.92 565.196 1315.76 565.263 1315.58 565.263H1308.63V566.838Z" fill="#FEFDF6"/>
<path d="M1431.31 928.803C1431.31 929.602 1431.03 930.368 1430.53 930.933C1430.03 931.498 1429.36 931.815 1428.65 931.815C1427.95 931.815 1427.27 931.498 1426.78 930.933C1426.28 930.368 1426 929.602 1426 928.803C1426 928.004 1426.28 927.238 1426.78 926.673C1427.27 926.108 1427.95 925.791 1428.65 925.791C1429.36 925.791 1430.03 926.108 1430.53 926.673C1431.03 927.238 1431.31 928.004 1431.31 928.803ZM1431.31 936.836C1431.31 937.634 1431.03 938.401 1430.53 938.965C1430.03 939.53 1429.36 939.848 1428.65 939.848C1427.95 939.848 1427.27 939.53 1426.78 938.965C1426.28 938.401 1426 937.634 1426 936.836C1426 936.037 1426.28 935.27 1426.78 934.706C1427.27 934.141 1427.95 933.823 1428.65 933.823C1429.36 933.823 1430.03 934.141 1430.53 934.706C1431.03 935.27 1431.31 936.037 1431.31 936.836ZM1431.31 944.868C1431.31 945.667 1431.03 946.433 1430.53 946.998C1430.03 947.563 1429.36 947.88 1428.65 947.88C1427.95 947.88 1427.27 947.563 1426.78 946.998C1426.28 946.433 1426 945.667 1426 944.868C1426 944.069 1426.28 943.303 1426.78 942.738C1427.27 942.173 1427.95 941.856 1428.65 941.856C1429.36 941.856 1430.03 942.173 1430.53 942.738C1431.03 943.303 1431.31 944.069 1431.31 944.868Z" fill="#FEFDF6"/>
<path fill-rule="evenodd" clip-rule="evenodd" d="M1433.08 928.803C1433.08 928.27 1433.26 927.76 1433.6 927.383C1433.93 927.006 1434.38 926.795 1434.85 926.795H1447.23C1447.7 926.795 1448.15 927.006 1448.48 927.383C1448.81 927.76 1449 928.27 1449 928.803C1449 929.336 1448.81 929.846 1448.48 930.223C1448.15 930.6 1447.7 930.811 1447.23 930.811H1434.85C1434.38 930.811 1433.93 930.6 1433.6 930.223C1433.26 929.846 1433.08 929.336 1433.08 928.803ZM1433.08 936.835C1433.08 936.303 1433.26 935.792 1433.6 935.415C1433.93 935.039 1434.38 934.827 1434.85 934.827H1447.23C1447.7 934.827 1448.15 935.039 1448.48 935.415C1448.81 935.792 1449 936.303 1449 936.835C1449 937.368 1448.81 937.879 1448.48 938.255C1448.15 938.632 1447.7 938.843 1447.23 938.843H1434.85C1434.38 938.843 1433.93 938.632 1433.6 938.255C1433.26 937.879 1433.08 937.368 1433.08 936.835ZM1433.08 944.868C1433.08 944.335 1433.26 943.824 1433.6 943.448C1433.93 943.071 1434.38 942.86 1434.85 942.86H1447.23C1447.7 942.86 1448.15 943.071 1448.48 943.448C1448.81 943.824 1449 944.335 1449 944.868C1449 945.4 1448.81 945.911 1448.48 946.288C1448.15 946.664 1447.7 946.876 1447.23 946.876H1434.85C1434.38 946.876 1433.93 946.664 1433.6 946.288C1433.26 945.911 1433.08 945.4 1433.08 944.868Z" fill="#FEFDF6"/>
<path d="M982 392.253L1010.81 376.314L1039 392.253V417.591L1010.81 433.938L982 417.591V392.253Z" fill="#FEFDF6" stroke="#1B267F" stroke-width="5"/>
<path d="M1117.5 433.557C1134.52 433.557 1148.5 420.277 1148.5 403.686C1148.5 387.094 1134.52 373.814 1117.5 373.814C1100.48 373.814 1086.5 387.094 1086.5 403.686C1086.5 420.277 1100.48 433.557 1117.5 433.557Z" stroke="#141F7B" stroke-width="5"/>
<rect x="1192.5" y="373.814" width="62" height="59.7423" stroke="#141F7B" stroke-width="5"/>
<rect x="-3.60623" width="54.1959" height="54.1959" transform="matrix(0.721247 -0.692678 0.721247 0.692678 1310.99 401.002)" stroke="#141F7B" stroke-width="5"/>
<line x1="1039" y1="402.168" x2="1085" y2="402.168" stroke="#141F7B" stroke-width="4"/>
<line x1="1149" y1="403.127" x2="1195" y2="403.127" stroke="#141F7B" stroke-width="4"/>
<line x1="1258" y1="403.131" x2="1305" y2="403.131" stroke="#141F7B" stroke-width="4"/>
<path d="M1388 405H1493" stroke="#141F7B" stroke-width="4"/>
<path d="M1885 147H1927" stroke="#141F7B" stroke-width="4"/>
<line x1="2001" y1="145" x2="2044" y2="145" stroke="#141F7B" stroke-width="4"/>
<path d="M1515.5 423.671C1527 423.671 1536.5 414.691 1536.5 403.404C1536.5 392.116 1527 383.137 1515.5 383.137C1504 383.137 1494.5 392.116 1494.5 403.404C1494.5 414.691 1504 423.671 1515.5 423.671Z" stroke="#141F7B" stroke-width="5"/>
<path d="M1505.3 397.179L1514.29 410.144L1542.94 386.45" stroke="#141F7B" stroke-width="5"/>
<path d="M1526.83 389.906L1531.38 386.152L1534.82 389.999L1530.27 393.753L1526.83 389.906Z" fill="#FEFDF6"/>
<rect width="10.1933" height="5.48365" transform="matrix(0.771196 -0.636598 0.666888 0.745158 1529.78 400.518)" fill="#FEFDF6"/>
<path d="M1645 147.271L1566.25 198.372V96.1691L1645 147.271Z" fill="#E84F14"/>
<path d="M1494 148.24L1415.25 199.341V97.1379L1494 148.24Z" fill="#E84F14"/>
<path d="M1532 148.24L1453.25 199.341V97.1379L1532 148.24Z" fill="#E84F14"/>
<path d="M1570 148.24L1491.25 199.341V97.1379L1570 148.24Z" fill="#E84F14"/>
<path d="M1608 148.24L1529.25 199.341V97.1379L1608 148.24Z" fill="#E84F14"/>
<path d="M1480.65 140.195H1484.6C1484.78 140.195 1484.94 140.262 1485.08 140.395C1485.21 140.529 1485.28 140.687 1485.28 140.87V157.02C1485.28 157.204 1485.21 157.362 1485.08 157.495C1484.94 157.629 1484.78 157.695 1484.6 157.695H1480.08C1479.89 157.695 1479.73 157.629 1479.6 157.495C1479.47 157.362 1479.4 157.204 1479.4 157.02V150.17L1477.75 152.87C1477.48 153.287 1477.18 153.495 1476.83 153.495H1475.08C1474.73 153.495 1474.42 153.287 1474.15 152.87L1472.5 150.17V157.02C1472.5 157.204 1472.43 157.362 1472.3 157.495C1472.17 157.629 1472.01 157.695 1471.83 157.695H1467.3C1467.12 157.695 1466.96 157.629 1466.83 157.495C1466.69 157.362 1466.63 157.204 1466.63 157.02V140.87C1466.63 140.687 1466.69 140.529 1466.83 140.395C1466.96 140.262 1467.12 140.195 1467.3 140.195H1471.25C1471.72 140.195 1472.08 140.42 1472.33 140.87L1475.95 146.87L1479.58 140.87C1479.83 140.42 1480.18 140.195 1480.65 140.195ZM1490.3 141.795C1491.83 140.562 1493.86 139.945 1496.37 139.945C1498.89 139.945 1500.91 140.57 1502.42 141.82C1503.96 143.054 1504.72 144.795 1504.72 147.045V150.945C1504.72 153.229 1503.97 154.97 1502.45 156.17C1500.95 157.354 1498.92 157.945 1496.37 157.945C1493.82 157.945 1491.79 157.354 1490.27 156.17C1488.77 154.97 1488.02 153.229 1488.02 150.945V147.045C1488.02 144.779 1488.78 143.029 1490.3 141.795ZM1495.02 152.57C1495.36 152.904 1495.81 153.07 1496.37 153.07C1496.94 153.07 1497.39 152.904 1497.72 152.57C1498.06 152.237 1498.22 151.729 1498.22 151.045V146.845C1498.22 146.179 1498.06 145.679 1497.72 145.345C1497.39 144.995 1496.94 144.82 1496.37 144.82C1495.81 144.82 1495.36 144.995 1495.02 145.345C1494.69 145.679 1494.52 146.179 1494.52 146.845V151.045C1494.52 151.729 1494.69 152.237 1495.02 152.57ZM1508.14 140.195H1515.34C1517.78 140.195 1519.78 140.804 1521.34 142.02C1522.93 143.22 1523.72 144.904 1523.72 147.07V150.795C1523.72 153.062 1522.95 154.779 1521.42 155.945C1519.89 157.112 1517.87 157.695 1515.37 157.695H1508.14C1507.96 157.695 1507.8 157.629 1507.67 157.495C1507.54 157.362 1507.47 157.204 1507.47 157.02V140.87C1507.47 140.687 1507.54 140.529 1507.67 140.395C1507.8 140.262 1507.96 140.195 1508.14 140.195ZM1513.72 145.07V152.82H1515.34C1515.91 152.82 1516.36 152.654 1516.69 152.32C1517.04 151.97 1517.22 151.462 1517.22 150.795V147.07C1517.22 145.737 1516.59 145.07 1515.34 145.07H1513.72ZM1532.24 157.695H1527.14C1526.96 157.695 1526.8 157.629 1526.66 157.495C1526.53 157.362 1526.46 157.204 1526.46 157.02V140.87C1526.46 140.687 1526.53 140.529 1526.66 140.395C1526.8 140.262 1526.96 140.195 1527.14 140.195H1532.24C1532.42 140.195 1532.58 140.262 1532.71 140.395C1532.85 140.529 1532.91 140.687 1532.91 140.87V157.02C1532.91 157.204 1532.85 157.362 1532.71 157.495C1532.58 157.629 1532.42 157.695 1532.24 157.695ZM1536.83 140.195H1549.43C1549.61 140.195 1549.77 140.262 1549.91 140.395C1550.04 140.529 1550.11 140.687 1550.11 140.87V144.67C1550.11 144.854 1550.04 145.012 1549.91 145.145C1549.77 145.279 1549.61 145.345 1549.43 145.345H1542.28V147.195H1548.93C1549.11 147.195 1549.27 147.262 1549.41 147.395C1549.54 147.529 1549.61 147.687 1549.61 147.87V151.645C1549.61 151.829 1549.54 151.987 1549.41 152.12C1549.27 152.254 1549.11 152.32 1548.93 152.32H1542.28V157.02C1542.28 157.204 1542.21 157.362 1542.08 157.495C1541.95 157.629 1541.79 157.695 1541.61 157.695H1536.83C1536.65 157.695 1536.49 157.629 1536.36 157.495C1536.22 157.362 1536.16 157.204 1536.16 157.02V140.87C1536.16 140.687 1536.22 140.529 1536.36 140.395C1536.49 140.262 1536.65 140.195 1536.83 140.195ZM1562.61 157.695H1557.71C1557.53 157.695 1557.37 157.629 1557.23 157.495C1557.1 157.362 1557.03 157.204 1557.03 157.02V152.095L1551.41 140.97C1551.38 140.904 1551.36 140.812 1551.36 140.695C1551.36 140.579 1551.41 140.47 1551.51 140.37C1551.63 140.254 1551.76 140.195 1551.91 140.195H1556.61C1557.11 140.195 1557.46 140.404 1557.66 140.82L1560.16 145.845L1562.66 140.82C1562.86 140.404 1563.21 140.195 1563.71 140.195H1568.41C1568.56 140.195 1568.68 140.254 1568.78 140.37C1568.9 140.47 1568.96 140.579 1568.96 140.695C1568.96 140.812 1568.94 140.904 1568.91 140.97L1563.28 152.095V157.02C1563.28 157.204 1563.22 157.362 1563.08 157.495C1562.95 157.629 1562.79 157.695 1562.61 157.695Z" fill="#FEFDF6"/>
<path d="M1300.5 927.713L1258 946.441L1300.5 963.247L1341.5 946.441L1300.5 927.713Z" stroke="#1B267F" stroke-width="3"/>
<path d="M1300.5 916.188L1258 934.915L1300.5 951.722L1341.5 934.915L1300.5 916.188Z" fill="#FCFBEC" stroke="#1B267F" stroke-width="3"/>
<path d="M1300.5 906.584L1258 925.312L1300.5 942.118L1341.5 925.312L1300.5 906.584Z" fill="#FCFBEC" stroke="#1B267F" stroke-width="3"/>
<path d="M1168.5 928.674L1126 947.401L1168.5 964.208L1209.5 947.401L1168.5 928.674Z" fill="#FEFDF6" stroke="#1B267F" stroke-width="3"/>
<path d="M1168.5 918.109L1126 936.837L1168.5 953.644L1209.5 936.837L1168.5 918.109Z" fill="#FEFDF6" stroke="#1B267F" stroke-width="3"/>
<path d="M1168.5 907.545L1126 926.273L1168.5 943.079L1209.5 926.273L1168.5 907.545Z" fill="#FEFDF6" stroke="#1B267F" stroke-width="3"/>
<path d="M1862.08 118.979C1862.08 118.979 1864.17 120.98 1866.25 124.981C1866.25 124.981 1872.87 114.977 1878.75 112.977M1841.31 98.9909C1830.9 98.5707 1822.86 99.7192 1822.86 99.7192C1817.78 100.071 1808.05 102.8 1808.05 118.775C1808.05 134.605 1807.94 154.125 1808.05 161.908C1808.05 166.662 1811.11 177.755 1821.72 178.347C1834.62 179.067 1857.85 179.224 1868.5 178.347C1871.35 178.191 1880.85 176.042 1882.05 166.118C1883.3 155.834 1883.05 148.691 1883.05 146.99" stroke="#141F7B" stroke-width="5" stroke-linecap="round" stroke-linejoin="round"/>
<path d="M1828.75 142.991H1845.42M1828.75 158.997H1862.08M1891.33 118.981C1891.33 130.029 1882 138.989 1870.48 138.989C1867.74 138.992 1865.03 138.476 1862.5 137.472C1859.97 136.467 1857.67 134.994 1855.73 133.136C1853.8 131.278 1852.26 129.071 1851.21 126.642C1850.16 124.213 1849.62 121.61 1849.62 118.981C1849.62 107.928 1858.96 98.9727 1870.48 98.9727C1873.22 98.97 1875.93 99.4856 1878.46 100.49C1880.99 101.494 1883.29 102.968 1885.22 104.826C1887.16 106.684 1888.7 108.891 1889.75 111.319C1890.79 113.748 1891.33 116.352 1891.33 118.981Z" stroke="#141F7B" stroke-width="5" stroke-linecap="round" stroke-linejoin="round"/>
<path d="M1981.08 118.977C1981.08 118.977 1983.17 120.978 1985.25 124.979C1985.25 124.979 1991.87 114.975 1997.75 112.975M1960.31 98.9889C1949.9 98.5688 1941.86 99.7172 1941.86 99.7172C1936.78 100.069 1927.05 102.798 1927.05 118.773C1927.05 134.603 1926.94 154.123 1927.05 161.907C1927.05 166.66 1930.11 177.753 1940.72 178.345C1953.62 179.065 1976.85 179.222 1987.5 178.345C1990.35 178.189 1999.85 176.04 2001.05 166.116C2002.3 155.832 2002.05 148.689 2002.05 146.988" stroke="#141F7B" stroke-width="5" stroke-linecap="round" stroke-linejoin="round"/>
<path d="M1947.75 142.989H1964.42M1947.75 158.995H1981.08M2010.33 118.979C2010.33 130.027 2001 138.987 1989.48 138.987C1986.74 138.99 1984.03 138.474 1981.5 137.47C1978.97 136.465 1976.67 134.992 1974.73 133.134C1972.8 131.276 1971.26 129.069 1970.21 126.64C1969.16 124.211 1968.62 121.608 1968.62 118.979C1968.62 107.926 1977.96 98.9707 1989.48 98.9707C1992.22 98.9681 1994.93 99.4837 1997.46 100.488C1999.99 101.492 2002.29 102.966 2004.22 104.824C2006.16 106.682 2007.7 108.889 2008.75 111.317C2009.79 113.746 2010.33 116.35 2010.33 118.979Z" stroke="#141F7B" stroke-width="5" stroke-linecap="round" stroke-linejoin="round"/>
<path d="M2098.08 118.977C2098.08 118.977 2100.17 120.978 2102.25 124.979C2102.25 124.979 2108.87 114.975 2114.75 112.975M2077.31 98.9889C2066.9 98.5688 2058.86 99.7172 2058.86 99.7172C2053.78 100.069 2044.05 102.798 2044.05 118.773C2044.05 134.603 2043.94 154.123 2044.05 161.907C2044.05 166.66 2047.11 177.753 2057.72 178.345C2070.62 179.065 2093.85 179.222 2104.5 178.345C2107.35 178.189 2116.85 176.04 2118.05 166.116C2119.3 155.832 2119.05 148.689 2119.05 146.988" stroke="#141F7B" stroke-width="5" stroke-linecap="round" stroke-linejoin="round"/>
<path d="M2064.75 142.989H2081.42M2064.75 158.995H2098.08M2127.33 118.979C2127.33 130.027 2118 138.987 2106.48 138.987C2103.74 138.99 2101.03 138.474 2098.5 137.47C2095.97 136.465 2093.67 134.992 2091.73 133.134C2089.8 131.276 2088.26 129.069 2087.21 126.64C2086.16 124.211 2085.62 121.608 2085.62 118.979C2085.62 107.926 2094.96 98.9707 2106.48 98.9707C2109.22 98.9681 2111.93 99.4837 2114.46 100.488C2116.99 101.492 2119.29 102.966 2121.22 104.824C2123.16 106.682 2124.7 108.889 2125.75 111.317C2126.79 113.746 2127.33 116.35 2127.33 118.979Z" stroke="#141F7B" stroke-width="5" stroke-linecap="round" stroke-linejoin="round"/>
<path d="M1643.25 556.215H1648.02C1648.55 556.215 1648.88 556.457 1649.01 556.941L1653.92 570.977C1653.93 571.021 1653.94 571.095 1653.94 571.197C1653.94 571.285 1653.89 571.381 1653.79 571.483C1653.7 571.571 1653.59 571.615 1653.46 571.615H1649.39C1648.95 571.615 1648.66 571.432 1648.53 571.065L1648 569.613H1643.27L1642.74 571.065C1642.61 571.432 1642.32 571.615 1641.88 571.615H1637.81C1637.68 571.615 1637.56 571.571 1637.46 571.483C1637.37 571.381 1637.33 571.285 1637.33 571.197C1637.33 571.095 1637.34 571.021 1637.35 570.977L1642.26 556.941C1642.39 556.457 1642.72 556.215 1643.25 556.215ZM1644.39 565.323H1646.88L1645.62 561.231L1644.39 565.323ZM1664.99 556.215H1668.97C1669.13 556.215 1669.27 556.274 1669.39 556.391C1669.5 556.509 1669.56 556.648 1669.56 556.809V571.021C1669.56 571.183 1669.5 571.322 1669.39 571.439C1669.27 571.557 1669.13 571.615 1668.97 571.615H1665.49C1665.11 571.615 1664.81 571.447 1664.59 571.109L1660.87 565.499V571.021C1660.87 571.183 1660.81 571.322 1660.7 571.439C1660.58 571.557 1660.44 571.615 1660.28 571.615H1656.3C1656.14 571.615 1656 571.557 1655.88 571.439C1655.76 571.322 1655.7 571.183 1655.7 571.021V556.809C1655.7 556.648 1655.76 556.509 1655.88 556.391C1656 556.274 1656.14 556.215 1656.3 556.215H1659.77C1660.18 556.215 1660.48 556.384 1660.68 556.721L1664.39 562.815V556.809C1664.39 556.648 1664.45 556.509 1664.57 556.391C1664.69 556.274 1664.83 556.215 1664.99 556.215ZM1677.24 556.215H1682.01C1682.54 556.215 1682.87 556.457 1683 556.941L1687.91 570.977C1687.92 571.021 1687.93 571.095 1687.93 571.197C1687.93 571.285 1687.88 571.381 1687.77 571.483C1687.69 571.571 1687.58 571.615 1687.44 571.615H1683.37C1682.93 571.615 1682.65 571.432 1682.52 571.065L1681.99 569.613H1677.26L1676.73 571.065C1676.6 571.432 1676.31 571.615 1675.87 571.615H1671.8C1671.67 571.615 1671.55 571.571 1671.45 571.483C1671.36 571.381 1671.32 571.285 1671.32 571.197C1671.32 571.095 1671.33 571.021 1671.34 570.977L1676.25 556.941C1676.38 556.457 1676.71 556.215 1677.24 556.215ZM1678.38 565.323H1680.87L1679.61 561.231L1678.38 565.323ZM1695.28 567.105H1701.37C1701.54 567.105 1701.67 567.164 1701.79 567.281C1701.91 567.399 1701.97 567.538 1701.97 567.699V571.021C1701.97 571.183 1701.91 571.322 1701.79 571.439C1701.67 571.557 1701.54 571.615 1701.37 571.615H1690.29C1690.12 571.615 1689.99 571.557 1689.87 571.439C1689.75 571.322 1689.69 571.183 1689.69 571.021V556.809C1689.69 556.648 1689.75 556.509 1689.87 556.391C1689.99 556.274 1690.12 556.215 1690.29 556.215H1694.69C1694.85 556.215 1694.99 556.274 1695.1 556.391C1695.22 556.509 1695.28 556.648 1695.28 556.809V567.105ZM1712.65 571.615H1708.34C1708.17 571.615 1708.03 571.557 1707.92 571.439C1707.8 571.322 1707.74 571.183 1707.74 571.021V566.687L1702.79 556.897C1702.76 556.839 1702.75 556.758 1702.75 556.655C1702.75 556.553 1702.79 556.457 1702.88 556.369C1702.98 556.267 1703.1 556.215 1703.23 556.215H1707.37C1707.81 556.215 1708.12 556.399 1708.29 556.765L1710.49 561.187L1712.69 556.765C1712.87 556.399 1713.18 556.215 1713.62 556.215H1717.75C1717.88 556.215 1717.99 556.267 1718.08 556.369C1718.18 556.457 1718.24 556.553 1718.24 556.655C1718.24 556.758 1718.22 556.839 1718.19 556.897L1713.24 566.687V571.021C1713.24 571.183 1713.18 571.322 1713.07 571.439C1712.95 571.557 1712.81 571.615 1712.65 571.615ZM1732.59 567.105C1732.75 567.105 1732.89 567.164 1733.01 567.281C1733.13 567.399 1733.19 567.538 1733.19 567.699V571.021C1733.19 571.183 1733.13 571.322 1733.01 571.439C1732.89 571.557 1732.75 571.615 1732.59 571.615H1720.03C1719.87 571.615 1719.73 571.557 1719.61 571.439C1719.5 571.322 1719.44 571.183 1719.44 571.021V567.853C1719.44 567.56 1719.55 567.303 1719.77 567.083L1725.93 560.681H1720.14C1719.98 560.681 1719.84 560.623 1719.72 560.505C1719.61 560.388 1719.55 560.249 1719.55 560.087V556.809C1719.55 556.648 1719.61 556.509 1719.72 556.391C1719.84 556.274 1719.98 556.215 1720.14 556.215H1732.31C1732.47 556.215 1732.61 556.274 1732.73 556.391C1732.84 556.509 1732.9 556.648 1732.9 556.809V559.933C1732.9 560.227 1732.81 560.469 1732.62 560.659L1726.79 567.105H1732.59ZM1740.88 567.325H1747.66C1747.82 567.325 1747.96 567.384 1748.08 567.501C1748.2 567.619 1748.25 567.758 1748.25 567.919V571.021C1748.25 571.183 1748.2 571.322 1748.08 571.439C1747.96 571.557 1747.82 571.615 1747.66 571.615H1736.2C1736.04 571.615 1735.9 571.557 1735.78 571.439C1735.66 571.322 1735.6 571.183 1735.6 571.021V556.809C1735.6 556.648 1735.66 556.509 1735.78 556.391C1735.9 556.274 1736.04 556.215 1736.2 556.215H1747.48C1747.65 556.215 1747.78 556.274 1747.9 556.391C1748.02 556.509 1748.08 556.648 1748.08 556.809V559.911C1748.08 560.073 1748.02 560.212 1747.9 560.329C1747.78 560.447 1747.65 560.505 1747.48 560.505H1740.88V561.891H1747C1747.16 561.891 1747.3 561.95 1747.42 562.067C1747.54 562.185 1747.59 562.324 1747.59 562.485V565.345C1747.59 565.507 1747.54 565.646 1747.42 565.763C1747.3 565.881 1747.16 565.939 1747 565.939H1740.88V567.325Z" fill="#15207B"/>
<line x1="948" y1="749.352" x2="2252" y2="749.352" stroke="#141F7B" stroke-width="5"/>
<path d="M949 749.383H938C926.954 749.383 918 758.337 918 769.383V905.658" stroke="#141F7B" stroke-width="5"/>
</svg>
