<svg width="24" height="28" viewBox="0 0 24 28" fill="none" xmlns="http://www.w3.org/2000/svg">
<path fill-rule="evenodd" clip-rule="evenodd" d="M15.4839 0.358974C15.4839 0.263768 15.4431 0.172462 15.3705 0.105141C15.2979 0.0378205 15.1994 0 15.0968 0H4.25806C3.12876 0 2.0457 0.416025 1.24716 1.15655C0.448616 1.89708 0 2.90145 0 3.94872V24.0513C0 25.0985 0.448616 26.1029 1.24716 26.8434C2.0457 27.584 3.12876 28 4.25806 28H19.7419C20.8712 28 21.9543 27.584 22.7528 26.8434C23.5514 26.1029 24 25.0985 24 24.0513V9.90339C24 9.80818 23.9592 9.71687 23.8866 9.64955C23.814 9.58223 23.7156 9.54441 23.6129 9.54441H16.6452C16.3372 9.54441 16.0418 9.43095 15.824 9.22899C15.6062 9.02702 15.4839 8.75311 15.4839 8.46749V0.358974ZM16.6452 14.359C16.9532 14.359 17.2485 14.4724 17.4663 14.6744C17.6841 14.8764 17.8065 15.1503 17.8065 15.4359C17.8065 15.7215 17.6841 15.9954 17.4663 16.1974C17.2485 16.3994 16.9532 16.5128 16.6452 16.5128H7.35484C7.04685 16.5128 6.75147 16.3994 6.53368 16.1974C6.3159 15.9954 6.19355 15.7215 6.19355 15.4359C6.19355 15.1503 6.3159 14.8764 6.53368 14.6744C6.75147 14.4724 7.04685 14.359 7.35484 14.359H16.6452ZM16.6452 20.1026C16.9532 20.1026 17.2485 20.216 17.4663 20.418C17.6841 20.62 17.8065 20.8939 17.8065 21.1795C17.8065 21.4651 17.6841 21.739 17.4663 21.941C17.2485 22.143 16.9532 22.2564 16.6452 22.2564H7.35484C7.04685 22.2564 6.75147 22.143 6.53368 21.941C6.3159 21.739 6.19355 21.4651 6.19355 21.1795C6.19355 20.8939 6.3159 20.62 6.53368 20.418C6.75147 20.216 7.04685 20.1026 7.35484 20.1026H16.6452Z" fill="white"/>
</svg>
