<svg width="150" height="40" viewBox="0 0 150 40" fill="none" xmlns="http://www.w3.org/2000/svg">
<rect x="150" width="40" height="150" rx="10" transform="rotate(90 150 0)" fill="#141F7B"/>
<path d="M33.56 12.26H36.24V30.78H33.56V12.26ZM28.1 14.18H30.74C30.74 19.84 28.82 24.48 22.24 27.66L20.86 25.54C26.18 22.98 28.1 19.62 28.1 14.66V14.18ZM21.84 14.18H29.36V16.28H21.84V14.18ZM45.7384 14.22H48.0984V14.66C48.0984 17.62 45.6184 20.12 40.8984 20.68L39.9384 18.56C43.9584 18.14 45.7384 16.3 45.7384 14.66V14.22ZM47.0384 14.22H49.3984V14.66C49.3984 16.3 51.1984 18.14 55.2184 18.56L54.2384 20.68C49.5384 20.12 47.0384 17.64 47.0384 14.66V14.22ZM40.7184 13.04H54.4384V15.14H40.7184V13.04ZM41.2184 28.34H54.0584V30.46H41.2184V28.34ZM41.2184 25.16H43.8784V29.12H41.2184V25.16ZM39.1984 21.92H55.9584V24.02H39.1984V21.92ZM46.2184 19.38H48.8584V22.78H46.2184V19.38ZM69.6978 17.14H73.4578V19.26H69.6978V17.14ZM69.5978 21.76H73.3778V23.88H69.5978V21.76ZM75.9778 12.26H78.5178V30.78H75.9778V12.26ZM72.1578 12.66H74.6378V29.96H72.1578V12.66ZM67.9778 14.44H70.5378C70.5378 19.7 68.9578 23.9 63.7978 26.94L62.2978 25.08C66.4778 22.54 67.9778 19.46 67.9778 14.98V14.44ZM63.3578 14.44H68.8778V16.56H63.3578V14.44ZM94.7163 14.66H97.9163V16.84H94.7163V14.66ZM94.7163 18.68H97.9163V20.86H94.7163V18.68ZM92.8763 12.26H95.5363V23.18H92.8763V12.26ZM83.1763 23.94H95.5363V30.78H92.8763V26.06H83.1763V23.94ZM86.1163 13.26C88.9763 13.26 91.1563 15.16 91.1563 17.8C91.1563 20.44 88.9763 22.32 86.1163 22.32C83.2563 22.32 81.0763 20.44 81.0763 17.8C81.0763 15.16 83.2563 13.26 86.1163 13.26ZM86.1163 15.52C84.7163 15.52 83.6763 16.34 83.6763 17.8C83.6763 19.26 84.7163 20.1 86.1163 20.1C87.5163 20.1 88.5563 19.26 88.5563 17.8C88.5563 16.34 87.5163 15.52 86.1163 15.52ZM108.695 18.04H113.575V20.18H108.695V18.04ZM103.655 13.68H105.815V16.36C105.815 21.02 104.235 25.32 100.755 27.06L99.0947 24.92C102.255 23.46 103.655 19.88 103.655 16.36V13.68ZM104.215 13.68H106.335V16.36C106.335 19.88 107.675 23.26 110.735 24.62L109.155 26.74C105.675 25.06 104.215 20.98 104.215 16.36V13.68ZM112.255 12.24H114.895V30.82H112.255V12.24Z" fill="white"/>
</svg>
