<svg width="48" height="83" viewBox="0 0 48 83" fill="none" xmlns="http://www.w3.org/2000/svg">
<path d="M24.5 10.9805V25.0161" stroke="#141F7B" stroke-width="3" stroke-linecap="round"/>
<path d="M32 7.5C32 11.6421 28.6421 15 24.5 15C20.3579 15 17 11.6421 17 7.5C17 3.35786 20.3579 0 24.5 0C28.6421 0 32 3.35786 32 7.5Z" fill="#00C938" fill-opacity="0.3"/>
<path d="M28.4724 7.49793C28.4724 9.69083 26.6947 11.4685 24.5018 11.4685C22.3089 11.4685 20.5312 9.69083 20.5312 7.49793C20.5312 5.30504 22.3089 3.52734 24.5018 3.52734C26.6947 3.52734 28.4724 5.30504 28.4724 7.49793Z" fill="#00C938"/>
<path d="M2.04778e-06 83V60.4444H48V83H2.04778e-06ZM15 57.2222C10.85 57.2222 7.313 55.6509 4.389 52.5081C1.465 49.3654 0.00200205 45.5664 2.04778e-06 41.1111C-0.00199795 36.6559 1.461 32.8569 4.389 29.7141C7.317 26.5714 10.854 25 15 25H33C37.15 25 40.688 26.5714 43.614 29.7141C46.54 32.8569 48.002 36.6559 48 41.1111C47.998 45.5664 46.535 49.3664 43.611 52.5113C40.687 55.6562 37.15 57.2265 33 57.2222H15ZM6 76.5556H42V66.8889H6V76.5556ZM15 50.7778H33C35.5 50.7778 37.625 49.838 39.375 47.9583C41.125 46.0787 42 43.7963 42 41.1111C42 38.4259 41.125 36.1435 39.375 34.2639C37.625 32.3843 35.5 31.4444 33 31.4444H15C12.5 31.4444 10.375 32.3843 8.625 34.2639C6.875 36.1435 6 38.4259 6 41.1111C6 43.7963 6.875 46.0787 8.625 47.9583C10.375 49.838 12.5 50.7778 15 50.7778ZM15 44.3333C15.85 44.3333 16.563 44.024 17.139 43.4053C17.715 42.7867 18.002 42.0219 18 41.1111C17.998 40.2003 17.71 39.4356 17.136 38.8169C16.562 38.1982 15.85 37.8889 15 37.8889C14.15 37.8889 13.438 38.1982 12.864 38.8169C12.29 39.4356 12.002 40.2003 12 41.1111C11.998 42.0219 12.286 42.7877 12.864 43.4086C13.442 44.0294 14.154 44.3376 15 44.3333ZM33 44.3333C33.85 44.3333 34.563 44.024 35.139 43.4053C35.715 42.7867 36.002 42.0219 36 41.1111C35.998 40.2003 35.71 39.4356 35.136 38.8169C34.562 38.1982 33.85 37.8889 33 37.8889C32.15 37.8889 31.438 38.1982 30.864 38.8169C30.29 39.4356 30.002 40.2003 30 41.1111C29.998 42.0219 30.286 42.7877 30.864 43.4086C31.442 44.0294 32.154 44.3376 33 44.3333Z" fill="#141F7B"/>
</svg>
