<svg width="40" height="40" viewBox="0 0 40 40" fill="none" xmlns="http://www.w3.org/2000/svg">
<circle cx="20" cy="20" r="20" fill="#141F7B"/>
<path d="M21.8814 12.4545L21.647 22.7244H19.3601L19.1328 12.4545H21.8814ZM20.5036 27.1562C20.0727 27.1562 19.7034 27.0047 19.3956 26.7017C19.0926 26.3987 18.9411 26.0294 18.9411 25.5938C18.9411 25.1676 19.0926 24.803 19.3956 24.5C19.7034 24.197 20.0727 24.0455 20.5036 24.0455C20.925 24.0455 21.2895 24.197 21.5973 24.5C21.9098 24.803 22.0661 25.1676 22.0661 25.5938C22.0661 25.8826 21.9927 26.1454 21.8459 26.3821C21.7038 26.6188 21.5144 26.8082 21.2777 26.9503C21.0457 27.0876 20.7876 27.1562 20.5036 27.1562Z" fill="white"/>
</svg>
