<svg width="150" height="40" viewBox="0 0 150 40" fill="none" xmlns="http://www.w3.org/2000/svg">
<rect x="150" width="40" height="150" rx="10" transform="rotate(90 150 0)" fill="#141F7B"/>
<path d="M23.78 12.8H26.12V13.66C26.12 17.22 23.32 20.24 18.46 20.96L17.42 18.82C21.68 18.26 23.78 15.84 23.78 13.66V12.8ZM24.28 12.8H26.6V13.66C26.6 15.82 28.72 18.26 32.96 18.82L31.94 20.96C27.08 20.24 24.28 17.22 24.28 13.66V12.8ZM23.8 24H26.44V30.78H23.8V24ZM16.82 22.32H33.56V24.48H16.82V22.32ZM45.2384 16.74H48.7584V18.9H45.2384V16.74ZM48.0384 12.26H50.6984V23.26H48.0384V12.26ZM44.4184 23.66C48.3384 23.66 50.7584 25 50.7584 27.24C50.7584 29.5 48.3384 30.8 44.4184 30.8C40.4984 30.8 38.0784 29.5 38.0784 27.24C38.0784 25 40.4984 23.66 44.4184 23.66ZM44.4184 25.68C42.0184 25.68 40.7384 26.18 40.7384 27.24C40.7384 28.28 42.0184 28.78 44.4184 28.78C46.8384 28.78 48.1184 28.28 48.1184 27.24C48.1184 26.18 46.8384 25.68 44.4184 25.68ZM39.4784 14.12H41.6384V15.28C41.6384 18.82 39.9984 22.06 36.4584 23.26L35.0984 21.16C38.1584 20.12 39.4784 17.66 39.4784 15.28V14.12ZM40.0384 14.12H42.1784V15.28C42.1784 17.46 43.4384 19.72 46.3584 20.7L45.0584 22.8C41.6184 21.66 40.0384 18.58 40.0384 15.28V14.12ZM35.8184 13.38H45.7784V15.5H35.8184V13.38ZM55.2169 17.92H64.2969V20.04H55.2169V17.92ZM58.3969 19.28H61.0569V22.82H58.3969V19.28ZM55.2169 13.38H64.1769V15.5H57.8769V18.8H55.2169V13.38ZM66.3569 12.24H69.0369V26.18H66.3569V12.24ZM56.4969 28.34H69.5369V30.46H56.4969V28.34ZM56.4969 25.2H59.1569V29.14H56.4969V25.2ZM54.0169 24.1L53.6969 22C57.1969 22 61.5369 21.96 65.2569 21.56L65.4369 23.46C61.5769 24.02 57.4169 24.1 54.0169 24.1ZM84.0963 17.14H87.8563V19.26H84.0963V17.14ZM83.9963 21.76H87.7763V23.88H83.9963V21.76ZM90.3763 12.26H92.9163V30.78H90.3763V12.26ZM86.5563 12.66H89.0363V29.96H86.5563V12.66ZM82.3763 14.44H84.9363C84.9363 19.7 83.3563 23.9 78.1963 26.94L76.6963 25.08C80.8763 22.54 82.3763 19.46 82.3763 14.98V14.44ZM77.7563 14.44H83.2763V16.56H77.7563V14.44ZM109.115 14.66H112.315V16.84H109.115V14.66ZM109.115 18.68H112.315V20.86H109.115V18.68ZM107.275 12.26H109.935V23.18H107.275V12.26ZM97.5747 23.94H109.935V30.78H107.275V26.06H97.5747V23.94ZM100.515 13.26C103.375 13.26 105.555 15.16 105.555 17.8C105.555 20.44 103.375 22.32 100.515 22.32C97.6547 22.32 95.4747 20.44 95.4747 17.8C95.4747 15.16 97.6547 13.26 100.515 13.26ZM100.515 15.52C99.1147 15.52 98.0747 16.34 98.0747 17.8C98.0747 19.26 99.1147 20.1 100.515 20.1C101.915 20.1 102.955 19.26 102.955 17.8C102.955 16.34 101.915 15.52 100.515 15.52ZM123.093 18.04H127.973V20.18H123.093V18.04ZM118.053 13.68H120.213V16.36C120.213 21.02 118.633 25.32 115.153 27.06L113.493 24.92C116.653 23.46 118.053 19.88 118.053 16.36V13.68ZM118.613 13.68H120.733V16.36C120.733 19.88 122.073 23.26 125.133 24.62L123.553 26.74C120.073 25.06 118.613 20.98 118.613 16.36V13.68ZM126.653 12.24H129.293V30.82H126.653V12.24Z" fill="white"/>
</svg>
