<svg width="235" height="311" viewBox="0 0 235 311" fill="none" xmlns="http://www.w3.org/2000/svg">
<rect width="235" height="311" fill="#1E1E1E"/>
<g clip-path="url(#clip0_0_1)">
<rect width="1440" height="1024" transform="translate(-603 -302)" fill="#FEFDF6"/>
<path d="M-289 -34C-289 -50.5686 -275.569 -64 -259 -64H494C510.569 -64 524 -50.5685 524 -34V425C524 441.569 510.569 455 494 455H-259C-275.569 455 -289 441.569 -289 425V-34Z" fill="white" fill-opacity="0.5" stroke="#E5B401" stroke-width="3" stroke-dasharray="5 5"/>
<path d="M47.8452 281.44H63.1752V284.62H47.8452V281.44ZM47.5452 300.34L47.1252 297.07C51.9552 297.07 58.4952 297.01 63.9852 296.32L64.1952 299.23C58.5852 300.22 52.2852 300.34 47.5452 300.34ZM50.2152 283.93H54.0852V297.94H50.2152V283.93ZM56.9352 283.93H60.8052V297.94H56.9352V283.93ZM65.2452 278.89H69.2652V306.67H65.2452V278.89ZM68.3652 289.42H73.2852V292.69H68.3652V289.42ZM82.9128 279.7C87.1428 279.7 90.3228 282.34 90.3228 286.06C90.3228 289.75 87.1428 292.39 82.9128 292.39C78.6828 292.39 75.5028 289.75 75.5028 286.06C75.5028 282.34 78.6828 279.7 82.9128 279.7ZM82.9128 282.94C80.8728 282.94 79.3428 284.08 79.3428 286.06C79.3428 288.04 80.8728 289.18 82.9128 289.18C84.9528 289.18 86.4528 288.04 86.4528 286.06C86.4528 284.08 84.9528 282.94 82.9128 282.94ZM94.1628 278.89H98.1828V292.78H94.1628V278.89ZM79.6428 293.92H98.1828V301.54H83.6028V304.9H79.7028V298.66H94.2228V297.01H79.6428V293.92ZM79.7028 303.28H98.8728V306.37H79.7028V303.28ZM120.652 287.68H124.612V291.37H120.652V287.68ZM122.692 279.16C129.022 279.16 132.742 280.81 132.742 283.87C132.742 286.93 129.022 288.61 122.692 288.61C116.332 288.61 112.642 286.93 112.642 283.87C112.642 280.81 116.332 279.16 122.692 279.16ZM122.692 282.07C118.672 282.07 116.782 282.64 116.782 283.87C116.782 285.16 118.672 285.7 122.692 285.7C126.712 285.7 128.602 285.16 128.602 283.87C128.602 282.64 126.712 282.07 122.692 282.07ZM110.122 290.14H135.232V293.29H110.122V290.14ZM113.002 294.76H132.202V301.9H116.962V304.36H113.032V299.14H128.272V297.73H113.002V294.76ZM113.032 303.49H132.922V306.49H113.032V303.49ZM156.86 278.86H160.85V306.73H156.86V278.86ZM139.22 297.01H141.68C146.6 297.01 150.53 296.83 154.94 296.08L155.33 299.29C150.83 300.1 146.75 300.25 141.68 300.25H139.22V297.01ZM139.19 281.23H152.3V291.97H143.27V298.21H139.22V288.82H148.22V284.41H139.19V281.23ZM184.457 278.89H188.477V306.67H184.457V278.89ZM176.267 281.77H180.227C180.227 290.26 177.347 297.22 167.477 301.99L165.407 298.81C173.387 294.97 176.267 289.93 176.267 282.49V281.77ZM166.877 281.77H178.157V284.92H166.877V281.77Z" fill="black"/>
<g clip-path="url(#clip1_0_1)">
<g filter="url(#filter0_d_0_1)">
<path d="M33 67C33 50.4315 46.4315 37 63 37H176C192.569 37 206 50.4315 206 67V213C206 229.569 192.569 243 176 243H63C46.4315 243 33 229.569 33 213V67Z" fill="#FAD23F"/>
</g>
<path d="M78 85C75.2386 85 73 87.2386 73 90V189C73 191.761 75.2386 194 78 194H160C162.761 194 165 191.761 165 189V114.534C165 113.346 164.497 112.213 163.616 111.415L136.016 86.261C135.132 85.45 133.976 85 132.776 85H78ZM82.2 98.3846C82.2 95.6232 84.4386 93.3846 87.2 93.3846H123.2C125.961 93.3846 128.2 95.6232 128.2 98.3846V113.538C128.2 116.3 130.439 118.538 133.2 118.538H150.8C153.561 118.538 155.8 120.777 155.8 123.538V180.615C155.8 183.377 153.561 185.615 150.8 185.615H87.2C84.4386 185.615 82.2 183.377 82.2 180.615V98.3846ZM137.4 106.815C137.4 103.915 140.844 102.394 142.987 104.348C145.241 106.402 143.788 110.154 140.739 110.154C138.895 110.154 137.4 108.659 137.4 106.815ZM122.368 129.993C120.459 128.253 117.541 128.253 115.632 129.993L107.952 136.992C105.351 139.362 107.028 143.692 110.547 143.692C112.675 143.692 114.4 145.417 114.4 147.545V160.054C114.4 162.594 116.459 164.654 119 164.654C121.541 164.654 123.6 162.594 123.6 160.054V147.545C123.6 145.417 125.325 143.692 127.453 143.692C130.972 143.692 132.649 139.362 130.048 136.992L122.368 129.993ZM104.792 168.846C102.477 168.846 100.6 170.723 100.6 173.038C100.6 175.354 102.477 177.231 104.792 177.231H133.208C135.523 177.231 137.4 175.354 137.4 173.038C137.4 170.723 135.523 168.846 133.208 168.846H104.792Z" fill="white"/>
</g>
</g>
<defs>
<filter id="filter0_d_0_1" x="13" y="21" width="213" height="246" filterUnits="userSpaceOnUse" color-interpolation-filters="sRGB">
<feFlood flood-opacity="0" result="BackgroundImageFix"/>
<feColorMatrix in="SourceAlpha" type="matrix" values="0 0 0 0 0 0 0 0 0 0 0 0 0 0 0 0 0 0 127 0" result="hardAlpha"/>
<feOffset dy="4"/>
<feGaussianBlur stdDeviation="10"/>
<feComposite in2="hardAlpha" operator="out"/>
<feColorMatrix type="matrix" values="0 0 0 0 0 0 0 0 0 0 0 0 0 0 0 0 0 0 0.25 0"/>
<feBlend mode="normal" in2="BackgroundImageFix" result="effect1_dropShadow_0_1"/>
<feBlend mode="normal" in="SourceGraphic" in2="effect1_dropShadow_0_1" result="shape"/>
</filter>
<clipPath id="clip0_0_1">
<rect width="1440" height="1024" fill="white" transform="translate(-603 -302)"/>
</clipPath>
<clipPath id="clip1_0_1">
<rect width="210" height="273" fill="white" transform="translate(14 12)"/>
</clipPath>
</defs>
</svg>
