<svg width="92" height="103" viewBox="0 0 92 103" fill="none" xmlns="http://www.w3.org/2000/svg">
<path d="M5 0.453125C2.23857 0.453125 0 2.6917 0 5.45312V97.6656C0 100.427 2.23858 102.666 5 102.666H87C89.7614 102.666 92 100.427 92 97.6656V28.2129C92 27.0615 91.4941 25.9683 90.6164 25.2231V25.2231L63.0164 1.63557V1.63557C62.1295 0.872669 60.9984 0.453125 59.8286 0.453125H5ZM9.2 13.3156C9.2 10.5542 11.4386 8.31562 14.2 8.31562H50.2C52.9614 8.31562 55.2 10.5542 55.2 13.3156V26.9031C55.2 29.6645 57.4386 31.9031 60.2 31.9031H77.8C80.5614 31.9031 82.8 34.1417 82.8 36.9031V89.8031C82.8 92.5645 80.5614 94.8031 77.8 94.8031H14.2C11.4386 94.8031 9.2 92.5645 9.2 89.8031V13.3156ZM64.4 20.8168C64.4 18.0647 67.6262 16.578 69.7183 18.366V18.366C71.9954 20.3121 70.6192 24.0406 67.6238 24.0406V24.0406C65.8434 24.0406 64.4 22.5973 64.4 20.8168V20.8168ZM49.2484 42.5418C47.3778 40.9431 44.6222 40.9431 42.7516 42.5418L35.2626 48.942C32.6348 51.1878 34.223 55.4906 37.6796 55.4906V55.4906C39.7343 55.4906 41.4 57.1563 41.4 59.211V70.5468C41.4 73.0874 43.4595 75.1468 46 75.1468V75.1468C48.5405 75.1468 50.6 73.0874 50.6 70.5468V59.211C50.6 57.1563 52.2657 55.4906 54.3204 55.4906V55.4906C57.777 55.4906 59.3652 51.1878 56.7374 48.942L49.2484 42.5418ZM31.5312 79.0781C29.3601 79.0781 27.6 80.8382 27.6 83.0093V83.0093C27.6 85.1805 29.3601 86.9406 31.5312 86.9406H60.4688C62.6399 86.9406 64.4 85.1805 64.4 83.0093V83.0093C64.4 80.8382 62.6399 79.0781 60.4687 79.0781H31.5312Z" fill="white"/>
</svg>
