<svg width="210" height="256" viewBox="0 0 210 256" fill="none" xmlns="http://www.w3.org/2000/svg">
<rect width="210" height="256" fill="#1E1E1E"/>
<g clip-path="url(#clip0_0_1)">
<rect width="1440" height="1024" transform="translate(-615 -318)" fill="#FEFDF6"/>
<path d="M-301 -50C-301 -66.5686 -287.569 -80 -271 -80H482C498.569 -80 512 -66.5685 512 -50V409C512 425.569 498.569 439 482 439H-271C-287.569 439 -301 425.569 -301 409V-50Z" fill="white" fill-opacity="0.5" stroke="#E5B401" stroke-width="3" stroke-dasharray="5 5"/>
<g clip-path="url(#clip1_0_1)">
<g filter="url(#filter0_d_0_1)">
<path d="M19 55C19 38.4315 32.4315 25 49 25H162C178.569 25 192 38.4315 192 55V201C192 217.569 178.569 231 162 231H49C32.4315 231 19 217.569 19 201V55Z" fill="#FAD23F"/>
</g>
<path d="M64 68.4531C61.2386 68.4531 59 70.6917 59 73.4531V165.666C59 168.427 61.2386 170.666 64 170.666H146C148.761 170.666 151 168.427 151 165.666V96.2129C151 95.0615 150.494 93.9683 149.616 93.2231V93.2231L122.016 69.6356V69.6356C121.13 68.8727 119.998 68.4531 118.829 68.4531H64ZM68.2 81.3156C68.2 78.5542 70.4386 76.3156 73.2 76.3156H109.2C111.961 76.3156 114.2 78.5542 114.2 81.3156V94.9031C114.2 97.6645 116.439 99.9031 119.2 99.9031H136.8C139.561 99.9031 141.8 102.142 141.8 104.903V157.803C141.8 160.565 139.561 162.803 136.8 162.803H73.2C70.4386 162.803 68.2 160.565 68.2 157.803V81.3156ZM123.4 88.8168C123.4 86.0647 126.626 84.578 128.718 86.366V86.366C130.995 88.3121 129.619 92.0406 126.624 92.0406V92.0406C124.843 92.0406 123.4 90.5973 123.4 88.8168V88.8168ZM108.248 110.542C106.378 108.943 103.622 108.943 101.752 110.542L94.2626 116.942C91.6348 119.188 93.223 123.491 96.6796 123.491V123.491C98.7343 123.491 100.4 125.156 100.4 127.211V138.547C100.4 141.087 102.459 143.147 105 143.147V143.147C107.541 143.147 109.6 141.087 109.6 138.547V127.211C109.6 125.156 111.266 123.491 113.32 123.491V123.491C116.777 123.491 118.365 119.188 115.737 116.942L108.248 110.542ZM90.5312 147.078C88.3601 147.078 86.6 148.838 86.6 151.009V151.009C86.6 153.181 88.3601 154.941 90.5312 154.941H119.469C121.64 154.941 123.4 153.181 123.4 151.009V151.009C123.4 148.838 121.64 147.078 119.469 147.078H90.5312Z" fill="white"/>
</g>
</g>
<defs>
<filter id="filter0_d_0_1" x="-1" y="9" width="213" height="246" filterUnits="userSpaceOnUse" color-interpolation-filters="sRGB">
<feFlood flood-opacity="0" result="BackgroundImageFix"/>
<feColorMatrix in="SourceAlpha" type="matrix" values="0 0 0 0 0 0 0 0 0 0 0 0 0 0 0 0 0 0 127 0" result="hardAlpha"/>
<feOffset dy="4"/>
<feGaussianBlur stdDeviation="10"/>
<feComposite in2="hardAlpha" operator="out"/>
<feColorMatrix type="matrix" values="0 0 0 0 0 0 0 0 0 0 0 0 0 0 0 0 0 0 0.25 0"/>
<feBlend mode="normal" in2="BackgroundImageFix" result="effect1_dropShadow_0_1"/>
<feBlend mode="normal" in="SourceGraphic" in2="effect1_dropShadow_0_1" result="shape"/>
</filter>
<clipPath id="clip0_0_1">
<rect width="1440" height="1024" fill="white" transform="translate(-615 -318)"/>
</clipPath>
<clipPath id="clip1_0_1">
<rect width="210" height="256" fill="white"/>
</clipPath>
</defs>
</svg>
